<?xml version="1.0" encoding="UTF-8" standalone="no"?>
<!-- Created with Inkscape (http://www.inkscape.org/) -->

<svg
   xmlns:dc="http://purl.org/dc/elements/1.1/"
   xmlns:cc="http://creativecommons.org/ns#"
   xmlns:rdf="http://www.w3.org/1999/02/22-rdf-syntax-ns#"
   xmlns:svg="http://www.w3.org/2000/svg"
   xmlns="http://www.w3.org/2000/svg"
   xmlns:sodipodi="http://sodipodi.sourceforge.net/DTD/sodipodi-0.dtd"
   xmlns:inkscape="http://www.inkscape.org/namespaces/inkscape"
   width="275mm"
   height="275mm"
   viewBox="0 0 974.40945 974.40944"
   id="svg4161"
   version="1.1"
   inkscape:version="0.91 r13725"
   sodipodi:docname="grid_decorated.svg">
  <defs
     id="defs4163" />
  <sodipodi:namedview
     id="base"
     pagecolor="#ffffff"
     bordercolor="#666666"
     borderopacity="1.0"
     inkscape:pageopacity="0.0"
     inkscape:pageshadow="2"
     inkscape:zoom="0.49497475"
     inkscape:cx="1014.6802"
     inkscape:cy="540.78334"
     inkscape:document-units="mm"
     inkscape:current-layer="layer1"
     showgrid="false"
     inkscape:window-width="1920"
     inkscape:window-height="1054"
     inkscape:window-x="1280"
     inkscape:window-y="0"
     inkscape:window-maximized="1" />
  <metadata
     id="metadata4166">
    <rdf:RDF>
      <cc:Work
         rdf:about="">
        <dc:format>image/svg+xml</dc:format>
        <dc:type
           rdf:resource="http://purl.org/dc/dcmitype/StillImage" />
        <dc:title></dc:title>
      </cc:Work>
    </rdf:RDF>
  </metadata>
  <g
     inkscape:label="Layer 1"
     inkscape:groupmode="layer"
     id="layer1"
     transform="translate(0,-77.952756)">
    <g
       id="g4775">
      <rect
         ry="7.2189598"
         rx="5.73911"
         y="245.15749"
         x="22.91902"
         height="640"
         width="928.57141"
         id="rect4138"
         style="fill:none;fill-opacity:1;stroke:#000000;stroke-width:0.001;stroke-miterlimit:4;stroke-dasharray:none;stroke-opacity:1" />
      <rect
         ry="6.7816219"
         rx="3.7677522"
         y="79.344063"
         x="1.3913089"
         height="971.62683"
         width="971.62683"
         id="rect4140"
         style="fill:none;fill-opacity:1;stroke:#000000;stroke-width:2.78264093;stroke-miterlimit:4;stroke-dasharray:none;stroke-opacity:1" />
      <path
         inkscape:connector-curvature="0"
         id="path4148"
         d="m 90.355744,77.952755 c 0,974.409445 0,974.409445 0,974.409445"
         style="fill:none;fill-rule:evenodd;stroke:#000000;stroke-width:3.5461328;stroke-linecap:butt;stroke-linejoin:miter;stroke-miterlimit:4;stroke-dasharray:none;stroke-opacity:1" />
      <path
         style="fill:none;fill-rule:evenodd;stroke:#000000;stroke-width:3.5461328;stroke-linecap:butt;stroke-linejoin:miter;stroke-miterlimit:4;stroke-dasharray:none;stroke-opacity:1"
         d="m 178.93842,77.952755 c 0,974.409445 0,974.409445 0,974.409445"
         id="path4757"
         inkscape:connector-curvature="0" />
      <path
         inkscape:connector-curvature="0"
         id="path4759"
         d="m 267.5211,77.952755 c 0,974.409445 0,974.409445 0,974.409445"
         style="fill:none;fill-rule:evenodd;stroke:#000000;stroke-width:3.5461328;stroke-linecap:butt;stroke-linejoin:miter;stroke-miterlimit:4;stroke-dasharray:none;stroke-opacity:1" />
      <path
         style="fill:none;fill-rule:evenodd;stroke:#000000;stroke-width:3.5461328;stroke-linecap:butt;stroke-linejoin:miter;stroke-miterlimit:4;stroke-dasharray:none;stroke-opacity:1"
         d="m 356.10378,77.952755 c 0,974.409445 0,974.409445 0,974.409445"
         id="path4761"
         inkscape:connector-curvature="0" />
      <path
         inkscape:connector-curvature="0"
         id="path4763"
         d="m 444.68645,77.952755 c 0,974.409445 0,974.409445 0,974.409445"
         style="fill:none;fill-rule:evenodd;stroke:#000000;stroke-width:3.5461328;stroke-linecap:butt;stroke-linejoin:miter;stroke-miterlimit:4;stroke-dasharray:none;stroke-opacity:1" />
      <path
         style="fill:none;fill-rule:evenodd;stroke:#000000;stroke-width:3.5461328;stroke-linecap:butt;stroke-linejoin:miter;stroke-miterlimit:4;stroke-dasharray:none;stroke-opacity:1"
         d="m 533.26913,77.952755 c 0,974.409445 0,974.409445 0,974.409445"
         id="path4765"
         inkscape:connector-curvature="0" />
      <path
         inkscape:connector-curvature="0"
         id="path4767"
         d="m 621.85181,77.952755 c 0,974.409445 0,974.409445 0,974.409445"
         style="fill:none;fill-rule:evenodd;stroke:#000000;stroke-width:3.5461328;stroke-linecap:butt;stroke-linejoin:miter;stroke-miterlimit:4;stroke-dasharray:none;stroke-opacity:1" />
      <path
         style="fill:none;fill-rule:evenodd;stroke:#000000;stroke-width:3.5461328;stroke-linecap:butt;stroke-linejoin:miter;stroke-miterlimit:4;stroke-dasharray:none;stroke-opacity:1"
         d="m 710.43448,77.952755 c 0,974.409445 0,974.409445 0,974.409445"
         id="path4769"
         inkscape:connector-curvature="0" />
      <path
         inkscape:connector-curvature="0"
         id="path4771"
         d="m 799.01716,77.952755 c 0,974.409445 0,974.409445 0,974.409445"
         style="fill:none;fill-rule:evenodd;stroke:#000000;stroke-width:3.5461328;stroke-linecap:butt;stroke-linejoin:miter;stroke-miterlimit:4;stroke-dasharray:none;stroke-opacity:1" />
      <path
         style="fill:none;fill-rule:evenodd;stroke:#000000;stroke-width:3.5461328;stroke-linecap:butt;stroke-linejoin:miter;stroke-miterlimit:4;stroke-dasharray:none;stroke-opacity:1"
         d="m 887.59984,77.952755 c 0,974.409445 0,974.409445 0,974.409445"
         id="path4773"
         inkscape:connector-curvature="0" />
    </g>
    <g
       id="g4789"
       transform="matrix(0,-1,1,0,-77.952753,1052.3622)">
      <rect
         style="fill:none;fill-opacity:1;stroke:#000000;stroke-width:0.001;stroke-miterlimit:4;stroke-dasharray:none;stroke-opacity:1"
         id="rect4791"
         width="928.57141"
         height="640"
         x="22.91902"
         y="245.15749"
         rx="5.73911"
         ry="7.2189598" />
      <rect
         style="fill:none;fill-opacity:1;stroke:#000000;stroke-width:2.78264093;stroke-miterlimit:4;stroke-dasharray:none;stroke-opacity:1"
         id="rect4793"
         width="971.62683"
         height="971.62683"
         x="1.3913089"
         y="79.344063"
         rx="3.7677522"
         ry="6.7816219" />
      <path
         style="fill:none;fill-rule:evenodd;stroke:#000000;stroke-width:3.5461328;stroke-linecap:butt;stroke-linejoin:miter;stroke-miterlimit:4;stroke-dasharray:none;stroke-opacity:1"
         d="m 90.355744,77.952755 c 0,974.409445 0,974.409445 0,974.409445"
         id="path4795"
         inkscape:connector-curvature="0" />
      <path
         inkscape:connector-curvature="0"
         id="path4797"
         d="m 178.93842,77.952755 c 0,974.409445 0,974.409445 0,974.409445"
         style="fill:none;fill-rule:evenodd;stroke:#000000;stroke-width:3.5461328;stroke-linecap:butt;stroke-linejoin:miter;stroke-miterlimit:4;stroke-dasharray:none;stroke-opacity:1" />
      <path
         style="fill:none;fill-rule:evenodd;stroke:#000000;stroke-width:3.5461328;stroke-linecap:butt;stroke-linejoin:miter;stroke-miterlimit:4;stroke-dasharray:none;stroke-opacity:1"
         d="m 267.5211,77.952755 c 0,974.409445 0,974.409445 0,974.409445"
         id="path4799"
         inkscape:connector-curvature="0" />
      <path
         inkscape:connector-curvature="0"
         id="path4801"
         d="m 356.10378,77.952755 c 0,974.409445 0,974.409445 0,974.409445"
         style="fill:none;fill-rule:evenodd;stroke:#000000;stroke-width:3.5461328;stroke-linecap:butt;stroke-linejoin:miter;stroke-miterlimit:4;stroke-dasharray:none;stroke-opacity:1" />
      <path
         style="fill:none;fill-rule:evenodd;stroke:#000000;stroke-width:3.5461328;stroke-linecap:butt;stroke-linejoin:miter;stroke-miterlimit:4;stroke-dasharray:none;stroke-opacity:1"
         d="m 444.68645,77.952755 c 0,974.409445 0,974.409445 0,974.409445"
         id="path4803"
         inkscape:connector-curvature="0" />
      <path
         inkscape:connector-curvature="0"
         id="path4805"
         d="m 533.26913,77.952755 c 0,974.409445 0,974.409445 0,974.409445"
         style="fill:none;fill-rule:evenodd;stroke:#000000;stroke-width:3.5461328;stroke-linecap:butt;stroke-linejoin:miter;stroke-miterlimit:4;stroke-dasharray:none;stroke-opacity:1" />
      <path
         style="fill:none;fill-rule:evenodd;stroke:#000000;stroke-width:3.5461328;stroke-linecap:butt;stroke-linejoin:miter;stroke-miterlimit:4;stroke-dasharray:none;stroke-opacity:1"
         d="m 621.85181,77.952755 c 0,974.409445 0,974.409445 0,974.409445"
         id="path4807"
         inkscape:connector-curvature="0" />
      <path
         inkscape:connector-curvature="0"
         id="path4809"
         d="m 710.43448,77.952755 c 0,974.409445 0,974.409445 0,974.409445"
         style="fill:none;fill-rule:evenodd;stroke:#000000;stroke-width:3.5461328;stroke-linecap:butt;stroke-linejoin:miter;stroke-miterlimit:4;stroke-dasharray:none;stroke-opacity:1" />
      <path
         style="fill:none;fill-rule:evenodd;stroke:#000000;stroke-width:3.5461328;stroke-linecap:butt;stroke-linejoin:miter;stroke-miterlimit:4;stroke-dasharray:none;stroke-opacity:1"
         d="m 799.01716,77.952755 c 0,974.409445 0,974.409445 0,974.409445"
         id="path4811"
         inkscape:connector-curvature="0" />
      <path
         inkscape:connector-curvature="0"
         id="path4813"
         d="m 887.59984,77.952755 c 0,974.409445 0,974.409445 0,974.409445"
         style="fill:none;fill-rule:evenodd;stroke:#000000;stroke-width:3.5461328;stroke-linecap:butt;stroke-linejoin:miter;stroke-miterlimit:4;stroke-dasharray:none;stroke-opacity:1" />
    </g>
    <g
       transform="matrix(0.66811277,0,0,0.66811277,-233.49287,-30.560021)"
       id="layer1-6"
       inkscape:label="Layer 1">
      <path
         inkscape:connector-curvature="0"
         id="path5393"
         d="m 407.84593,274.49413 c -1.1,-0.24273 -4.475,-1.39545 -7.5,-2.5616 -21.28682,-8.20609 -34.14385,-27.46142 -32.74587,-49.04182 1.30325,-20.11816 13.87618,-35.98928 34.41809,-43.44682 6.76842,-2.45721 23.94759,-2.43007 30.82778,0.0487 13.63148,4.91111 25.15998,15.26733 30.80758,27.67489 1.7388,3.82008 2.05917,6.62115 2.12035,18.5386 l 0.0721,14.0386 -3.7462,7.59319 c -6.2731,12.71496 -19.98191,23.57038 -33.78161,26.7502 -4.42143,1.01882 -16.60068,1.26039 -20.47219,0.40606 z m 6.26913,-24.57665 -0.26913,-22.25 -3.75,-0.31037 -3.75,-0.31036 0,16.66877 0,16.66878 -2.75,-0.67921 c -4.46535,-1.10286 -11.94087,-6.38889 -16.09897,-11.38376 -3.91733,-4.70564 -7.15103,-10.17917 -7.15103,-12.10419 0,-0.66926 3.98639,-1.04966 11,-1.04966 l 11,0 0,-4 0,-4 -16.12883,0 -16.12883,0 0.67334,5.07591 c 2.72321,20.52853 21.30613,37.99748 42.35345,39.81452 0.99811,0.0862 1.21166,-4.64199 1,-22.14043 z m 16.31571,20.15588 c 18.30277,-5.97465 31.57363,-21.03616 32.73973,-37.15734 l 0.41857,-5.78671 -22.87157,0.26908 -22.87157,0.26909 -0.31036,3.75 -0.31037,3.75 17.50135,0 c 10.71495,0 17.74361,0.392 18.12613,1.01092 0.9784,1.58308 -6.1605,12.53045 -10.80897,16.57538 -4.11322,3.57917 -10.97023,7.34821 -13.44778,7.39174 -0.92203,0.0162 -1.25,-2.73299 -1.25,-10.47804 l 0,-10.5 -5,0 -5,0 0,16.5 0,16.5 3.33484,0 c 1.83417,0 6.22167,-0.94236 9.75,-2.09412 z m 12.66516,-22.45402 c 7.36153,-7.77533 7.10727,-8.45186 -3.17653,-8.45186 l -8.42652,0 -0.32348,8.41179 -0.32347,8.41179 3.5,-1.4133 c 1.925,-0.77732 5.8625,-3.90861 8.75,-6.95842 z m -40.75,-0.45186 0,-8 -8.5,0 c -4.675,0 -8.5,0.24735 -8.5,0.54966 0,4.09215 11.90679,15.4085 16.25,15.44418 0.4125,0.003 0.75,-3.59384 0.75,-7.99384 z m 12,-27.5 0,-4.5 -17,0 c -13.35914,0 -17,-0.2809 -17,-1.3116 0,-0.72138 1.92962,-4.19175 4.28805,-7.71195 3.01068,-4.49374 6.19466,-7.67772 10.6884,-10.6884 9.60658,-6.43613 10.02355,-6.21932 10.02355,5.21195 l 0,9.5 4.5,0 4.5,0 0,-15 0,-15 -3.96249,0 c -9.2122,0 -23.78077,8.60614 -31.18017,18.41917 -4.32015,5.72933 -7.5129,13.50364 -8.45152,20.57927 l -0.66348,5.00156 22.12883,0 22.12883,0 0,-4.5 z m 13,-12.5 c 0,-9.35 0.24969,-17 0.55486,-17 1.62114,0 10.4452,4.6507 13.71662,7.22931 4.00777,3.15902 8.99166,9.79218 10.15891,13.52069 0.69995,2.23582 0.63781,2.25 -9.863,2.25 l -10.56739,0 0,5.5 0,5.5 15.89301,0 c 18.056,0 17.66143,0.19655 16.10289,-8.02163 -3.83009,-20.19598 -24.67032,-37.40766 -43.7459,-36.12917 l -2.25,0.1508 0,21.33333 c 0,11.73334 0.3,21.63334 0.66667,22 0.36666,0.36667 2.61666,0.66667 5,0.66667 l 4.33333,0 0,-17 z m -26,-4.46862 c 0,-8.94388 -0.61286,-9.02317 -8.82374,-1.1416 -8.67589,8.32792 -8.65003,8.61022 0.78856,8.61022 l 8.03518,0 0,-7.46862 z m 45,5.69113 c 0,-2.37066 -11.56364,-13.22251 -14.0898,-13.22251 -0.50061,0 -0.9102,3.15 -0.9102,7 l 0,7 7.5,0 c 4.125,0 7.5,-0.34987 7.5,-0.77749 z"
         style="fill:#000000" />
    </g>
    <path
       inkscape:connector-curvature="0"
       id="path5473"
       d="m 40.994204,1036.833 c -0.734924,-0.1622 -2.989805,-0.9323 -5.010846,-1.7114 -14.221996,-5.4826 -22.811942,-18.3473 -21.877934,-32.7655 0.870718,-13.44119 9.270853,-24.04489 22.995166,-29.02737 4.522068,-1.64169 15.99969,-1.62356 20.596433,0.0325 9.107366,3.28118 16.809704,10.2003 20.582938,18.48995 1.161714,2.55224 1.375758,4.42367 1.416633,12.38588 l 0.04817,9.3794 -2.502884,5.0731 c -4.191139,8.495 -13.35017,15.7476 -22.569925,17.8721 -2.954014,0.6807 -11.091127,0.8421 -13.677732,0.2713 z m 4.188486,-16.42 -0.179809,-14.8655 -2.505423,-0.2073 -2.505423,-0.2074 0,11.1366 0,11.1367 -1.83731,-0.4538 c -2.983358,-0.7369 -7.977848,-4.2685 -10.755928,-7.6057 -2.617218,-3.1439 -4.777694,-6.8008 -4.777694,-8.0869 0,-0.4472 2.663358,-0.7013 7.34924,-0.7013 l 7.349241,0 0,-2.6725 0,-2.6724 -10.775877,0 -10.775878,0 0.449867,3.3913 c 1.819412,13.7153 14.234898,25.3866 28.296881,26.6005 0.66685,0.058 0.809526,-3.1013 0.668113,-14.7923 z m 10.900734,13.4664 c 12.228314,-3.9917 21.094745,-14.0545 21.873832,-24.8253 l 0.279652,-3.8661 -15.280788,0.1797 -15.280788,0.1798 -0.207356,2.5055 -0.207362,2.5054 11.692876,0 c 7.158794,0 11.854732,0.2619 12.110298,0.6754 0.653682,1.0577 -4.115908,8.3717 -7.22161,11.0742 -2.748095,2.3913 -7.329351,4.9094 -8.984634,4.9385 -0.61602,0.011 -0.835141,-1.8259 -0.835141,-7.0005 l 0,-7.0152 -3.340564,0 -3.340564,0 0,11.0239 0,11.0238 2.22805,0 c 1.225432,0 4.156777,-0.6296 6.514099,-1.3991 z m 8.461755,-15.0018 c 4.918332,-5.1948 4.748458,-5.6468 -2.12228,-5.6468 l -5.629866,0 -0.216121,5.6201 -0.216114,5.62 2.338394,-0.9443 c 1.286118,-0.5193 3.916812,-2.6114 5.845987,-4.649 z m -27.225595,-0.3019 0,-5.3449 -5.678959,0 c -3.123427,0 -5.678958,0.1653 -5.678958,0.3673 0,2.734 7.955078,10.2946 10.856832,10.3184 0.275597,0 0.501085,-2.4011 0.501085,-5.3408 z m 8.017353,-18.3731 0,-3.00648 -11.357917,0 c -8.925412,0 -11.357917,-0.18767 -11.357917,-0.8763 0,-0.48196 1.289204,-2.80056 2.864901,-5.15245 2.011474,-3.00232 4.138731,-5.12958 7.141056,-7.14105 6.418279,-4.30007 6.696862,-4.15521 6.696862,3.48217 l 0,6.34707 3.006508,0 3.006507,0 0,-10.02169 0,-10.0217 -2.64739,0 c -6.154789,0 -15.888236,5.74988 -20.83187,12.30609 -2.886347,3.82784 -5.019464,9.02195 -5.646568,13.74927 l -0.44328,3.34157 14.784554,0 14.784554,0 0,-3.0065 z m 8.685466,-8.35138 c 0,-6.24686 0.166821,-11.35792 0.370709,-11.35792 1.083104,0 6.978572,3.10719 9.164249,4.83 2.677642,2.11058 6.007443,6.54228 6.787298,9.03334 0.467645,1.49378 0.426129,1.50326 -6.589597,1.50326 l -7.060208,0 0,3.67462 0,3.67458 10.618323,0 c 12.063444,0 11.799827,0.1314 10.758546,-5.35932 -2.558932,-13.49319 -16.482555,-24.99253 -29.227194,-24.13836 l -1.503254,0.10075 0,14.25307 c 0,7.8392 0.200434,14.45356 0.445411,14.69846 0.24497,0.245 1.748224,0.4454 3.340564,0.4454 l 2.895153,0 0,-11.35788 z m -17.370932,-2.98554 c 0,-5.97552 -0.40946,-6.0285 -5.895253,-0.76272 -5.796473,5.56399 -5.779196,5.7526 0.526847,5.7526 l 5.368406,0 0,-4.98988 z m 30.065075,3.80231 c 0,-1.58386 -7.725816,-8.83412 -9.413576,-8.83412 -0.334464,0 -0.608116,2.10455 -0.608116,4.67679 l 0,4.67678 5.010846,0 c 2.755965,0 5.010846,-0.23375 5.010846,-0.51945 z"
       style="fill:#000000" />
    <path
       style="fill:#000000"
       d="m 924.99357,1036.833 c -0.73493,-0.1622 -2.98981,-0.9323 -5.01085,-1.7114 -14.22192,-5.4826 -22.81184,-18.3473 -21.87782,-32.7655 0.87068,-13.44119 9.2708,-24.04489 22.99504,-29.02737 4.52205,-1.64169 15.9997,-1.62356 20.59638,0.0325 9.10738,3.28118 16.80965,10.2003 20.58288,18.48995 1.16172,2.55224 1.37578,4.42367 1.4166,12.38592 l 0.0481,9.3794 -2.50282,5.0731 c -4.19114,8.495 -13.35016,15.7476 -22.56985,17.8721 -2.95406,0.6807 -11.09114,0.8421 -13.67774,0.2713 z m 4.18846,-16.42 -0.17979,-14.8655 -2.50542,-0.2073 -2.50542,-0.2074 0,11.1366 0,11.1367 -1.83731,-0.4538 c -2.98333,-0.7369 -7.9778,-4.2685 -10.75588,-7.6057 -2.6172,-3.1439 -4.77768,-6.8008 -4.77768,-8.0869 0,-0.4472 2.66337,-0.7013 7.34924,-0.7013 l 7.34918,0 0,-2.6725 0,-2.6724 -10.7758,0 -10.77585,0 0.44984,3.3913 c 1.8194,13.7153 14.23488,25.3866 28.29678,26.6005 0.66684,0.058 0.80955,-3.1013 0.66811,-14.7923 z m 10.90073,13.4664 c 12.22827,-3.9917 21.09466,-14.0545 21.87374,-24.8253 l 0.27968,-3.8661 -15.28075,0.1797 -15.28074,0.1798 -0.20738,2.5055 -0.20738,2.5054 11.69284,0 c 7.15883,0 11.85473,0.2619 12.11028,0.6754 0.65368,1.0577 -4.11591,8.3717 -7.22156,11.0742 -2.74809,2.3913 -7.32934,4.9094 -8.98465,4.9385 -0.616,0.011 -0.83514,-1.8259 -0.83514,-7.0005 l 0,-7.0152 -3.3405,0 -3.34056,0 0,11.0239 0,11.0238 2.22802,0 c 1.22545,0 4.1568,-0.6296 6.5141,-1.3991 z m 8.46171,-15.0018 c 4.91832,-5.1948 4.74841,-5.6468 -2.12226,-5.6468 l -5.62985,0 -0.21613,5.6201 -0.21614,5.62 2.3384,-0.9443 c 1.28611,-0.5193 3.91681,-2.6114 5.84598,-4.649 z m -27.22552,-0.3019 0,-5.3449 -5.6789,0 c -3.12342,0 -5.67896,0.1653 -5.67896,0.3673 0,2.734 7.95502,10.2946 10.85677,10.3184 0.2756,0 0.50109,-2.4011 0.50109,-5.3408 z m 8.01735,-18.3731 0,-3.00648 -11.35792,0 c -8.92538,0 -11.35785,-0.18767 -11.35785,-0.8763 0,-0.48196 1.28919,-2.80056 2.86487,-5.15245 2.01149,-3.00232 4.13876,-5.12958 7.14105,-7.14105 6.41823,-4.30007 6.69683,-4.15521 6.69683,3.48217 l 0,6.34707 3.00651,0 3.00651,0 0,-10.02169 0,-10.0217 -2.6474,0 c -6.15479,0 -15.88819,5.74988 -20.83182,12.30609 -2.88632,3.82784 -5.0194,9.02195 -5.64649,13.74927 l -0.44329,3.34157 14.78446,0 14.78454,0 0,-3.0065 z m 8.6854,-8.35138 c 0,-6.24686 0.16683,-11.35792 0.37073,-11.35792 1.08308,0 6.97857,3.10719 9.16424,4.83 2.67759,2.11058 6.0074,6.54228 6.78729,9.03334 0.46761,1.49378 0.42612,1.50326 -6.5896,1.50326 l -7.06021,0 0,3.67462 0,3.67458 10.61831,0 c 12.06338,0 11.79981,0.1314 10.75849,-5.35932 -2.55894,-13.49319 -16.48247,-24.99253 -29.22706,-24.13836 l -1.50325,0.10075 0,14.25307 c 0,7.8392 0.20043,14.45356 0.44536,14.69846 0.245,0.245 1.74825,0.4454 3.34056,0.4454 l 2.89514,0 0,-11.35788 z m -17.37087,-2.98554 c 0,-5.97552 -0.40942,-6.0285 -5.89522,-0.76272 -5.79642,5.56399 -5.77918,5.7526 0.52687,5.7526 l 5.36835,0 0,-4.98988 z m 30.06501,3.80231 c 0,-1.58386 -7.72579,-8.83412 -9.41358,-8.83412 -0.33445,0 -0.60811,2.10455 -0.60811,4.67679 l 0,4.67678 5.01084,0 c 2.75597,0 5.01085,-0.23375 5.01085,-0.51945 z"
       id="path5481"
       inkscape:connector-curvature="0" />
    <g
       inkscape:label="Layer 1"
       id="g5477"
       transform="matrix(0.66811277,0,0,0.66811277,650.50713,-30.560021)">
      <path
         style="fill:#000000"
         d="m 407.84593,274.49413 c -1.1,-0.24273 -4.475,-1.39545 -7.5,-2.5616 -21.28682,-8.20609 -34.14385,-27.46142 -32.74587,-49.04182 1.30325,-20.11816 13.87618,-35.98928 34.41809,-43.44682 6.76842,-2.45721 23.94759,-2.43007 30.82778,0.0487 13.63148,4.91111 25.15998,15.26733 30.80758,27.67489 1.7388,3.82008 2.05917,6.62115 2.12035,18.5386 l 0.0721,14.0386 -3.7462,7.59319 c -6.2731,12.71496 -19.98191,23.57038 -33.78161,26.7502 -4.42143,1.01882 -16.60068,1.26039 -20.47219,0.40606 z m 6.26913,-24.57665 -0.26913,-22.25 -3.75,-0.31037 -3.75,-0.31036 0,16.66877 0,16.66878 -2.75,-0.67921 c -4.46535,-1.10286 -11.94087,-6.38889 -16.09897,-11.38376 -3.91733,-4.70564 -7.15103,-10.17917 -7.15103,-12.10419 0,-0.66926 3.98639,-1.04966 11,-1.04966 l 11,0 0,-4 0,-4 -16.12883,0 -16.12883,0 0.67334,5.07591 c 2.72321,20.52853 21.30613,37.99748 42.35345,39.81452 0.99811,0.0862 1.21166,-4.64199 1,-22.14043 z m 16.31571,20.15588 c 18.30277,-5.97465 31.57363,-21.03616 32.73973,-37.15734 l 0.41857,-5.78671 -22.87157,0.26908 -22.87157,0.26909 -0.31036,3.75 -0.31037,3.75 17.50135,0 c 10.71495,0 17.74361,0.392 18.12613,1.01092 0.9784,1.58308 -6.1605,12.53045 -10.80897,16.57538 -4.11322,3.57917 -10.97023,7.34821 -13.44778,7.39174 -0.92203,0.0162 -1.25,-2.73299 -1.25,-10.47804 l 0,-10.5 -5,0 -5,0 0,16.5 0,16.5 3.33484,0 c 1.83417,0 6.22167,-0.94236 9.75,-2.09412 z m 12.66516,-22.45402 c 7.36153,-7.77533 7.10727,-8.45186 -3.17653,-8.45186 l -8.42652,0 -0.32348,8.41179 -0.32347,8.41179 3.5,-1.4133 c 1.925,-0.77732 5.8625,-3.90861 8.75,-6.95842 z m -40.75,-0.45186 0,-8 -8.5,0 c -4.675,0 -8.5,0.24735 -8.5,0.54966 0,4.09215 11.90679,15.4085 16.25,15.44418 0.4125,0.003 0.75,-3.59384 0.75,-7.99384 z m 12,-27.5 0,-4.5 -17,0 c -13.35914,0 -17,-0.2809 -17,-1.3116 0,-0.72138 1.92962,-4.19175 4.28805,-7.71195 3.01068,-4.49374 6.19466,-7.67772 10.6884,-10.6884 9.60658,-6.43613 10.02355,-6.21932 10.02355,5.21195 l 0,9.5 4.5,0 4.5,0 0,-15 0,-15 -3.96249,0 c -9.2122,0 -23.78077,8.60614 -31.18017,18.41917 -4.32015,5.72933 -7.5129,13.50364 -8.45152,20.57927 l -0.66348,5.00156 22.12883,0 22.12883,0 0,-4.5 z m 13,-12.5 c 0,-9.35 0.24969,-17 0.55486,-17 1.62114,0 10.4452,4.6507 13.71662,7.22931 4.00777,3.15902 8.99166,9.79218 10.15891,13.52069 0.69995,2.23582 0.63781,2.25 -9.863,2.25 l -10.56739,0 0,5.5 0,5.5 15.89301,0 c 18.056,0 17.66143,0.19655 16.10289,-8.02163 -3.83009,-20.19598 -24.67032,-37.40766 -43.7459,-36.12917 l -2.25,0.1508 0,21.33333 c 0,11.73334 0.3,21.63334 0.66667,22 0.36666,0.36667 2.61666,0.66667 5,0.66667 l 4.33333,0 0,-17 z m -26,-4.46862 c 0,-8.94388 -0.61286,-9.02317 -8.82374,-1.1416 -8.67589,8.32792 -8.65003,8.61022 0.78856,8.61022 l 8.03518,0 0,-7.46862 z m 45,5.69113 c 0,-2.37066 -11.56364,-13.22251 -14.0898,-13.22251 -0.50061,0 -0.9102,3.15 -0.9102,7 l 0,7 7.5,0 c 4.125,0 7.5,-0.34987 7.5,-0.77749 z"
         id="path5479"
         inkscape:connector-curvature="0" />
    </g>
    <g
       transform="matrix(0.66811277,0,0,0.66811277,208.82134,413.95305)"
       id="g5485"
       inkscape:label="Layer 1">
      <path
         inkscape:connector-curvature="0"
         id="path5487"
         d="m 407.84593,274.49413 c -1.1,-0.24273 -4.475,-1.39545 -7.5,-2.5616 -21.28682,-8.20609 -34.14385,-27.46142 -32.74587,-49.04182 1.30325,-20.11816 13.87618,-35.98928 34.41809,-43.44682 6.76842,-2.45721 23.94759,-2.43007 30.82778,0.0487 13.63148,4.91111 25.15998,15.26733 30.80758,27.67489 1.7388,3.82008 2.05917,6.62115 2.12035,18.5386 l 0.0721,14.0386 -3.7462,7.59319 c -6.2731,12.71496 -19.98191,23.57038 -33.78161,26.7502 -4.42143,1.01882 -16.60068,1.26039 -20.47219,0.40606 z m 6.26913,-24.57665 -0.26913,-22.25 -3.75,-0.31037 -3.75,-0.31036 0,16.66877 0,16.66878 -2.75,-0.67921 c -4.46535,-1.10286 -11.94087,-6.38889 -16.09897,-11.38376 -3.91733,-4.70564 -7.15103,-10.17917 -7.15103,-12.10419 0,-0.66926 3.98639,-1.04966 11,-1.04966 l 11,0 0,-4 0,-4 -16.12883,0 -16.12883,0 0.67334,5.07591 c 2.72321,20.52853 21.30613,37.99748 42.35345,39.81452 0.99811,0.0862 1.21166,-4.64199 1,-22.14043 z m 16.31571,20.15588 c 18.30277,-5.97465 31.57363,-21.03616 32.73973,-37.15734 l 0.41857,-5.78671 -22.87157,0.26908 -22.87157,0.26909 -0.31036,3.75 -0.31037,3.75 17.50135,0 c 10.71495,0 17.74361,0.392 18.12613,1.01092 0.9784,1.58308 -6.1605,12.53045 -10.80897,16.57538 -4.11322,3.57917 -10.97023,7.34821 -13.44778,7.39174 -0.92203,0.0162 -1.25,-2.73299 -1.25,-10.47804 l 0,-10.5 -5,0 -5,0 0,16.5 0,16.5 3.33484,0 c 1.83417,0 6.22167,-0.94236 9.75,-2.09412 z m 12.66516,-22.45402 c 7.36153,-7.77533 7.10727,-8.45186 -3.17653,-8.45186 l -8.42652,0 -0.32348,8.41179 -0.32347,8.41179 3.5,-1.4133 c 1.925,-0.77732 5.8625,-3.90861 8.75,-6.95842 z m -40.75,-0.45186 0,-8 -8.5,0 c -4.675,0 -8.5,0.24735 -8.5,0.54966 0,4.09215 11.90679,15.4085 16.25,15.44418 0.4125,0.003 0.75,-3.59384 0.75,-7.99384 z m 12,-27.5 0,-4.5 -17,0 c -13.35914,0 -17,-0.2809 -17,-1.3116 0,-0.72138 1.92962,-4.19175 4.28805,-7.71195 3.01068,-4.49374 6.19466,-7.67772 10.6884,-10.6884 9.60658,-6.43613 10.02355,-6.21932 10.02355,5.21195 l 0,9.5 4.5,0 4.5,0 0,-15 0,-15 -3.96249,0 c -9.2122,0 -23.78077,8.60614 -31.18017,18.41917 -4.32015,5.72933 -7.5129,13.50364 -8.45152,20.57927 l -0.66348,5.00156 22.12883,0 22.12883,0 0,-4.5 z m 13,-12.5 c 0,-9.35 0.24969,-17 0.55486,-17 1.62114,0 10.4452,4.6507 13.71662,7.22931 4.00777,3.15902 8.99166,9.79218 10.15891,13.52069 0.69995,2.23582 0.63781,2.25 -9.863,2.25 l -10.56739,0 0,5.5 0,5.5 15.89301,0 c 18.056,0 17.66143,0.19655 16.10289,-8.02163 -3.83009,-20.19598 -24.67032,-37.40766 -43.7459,-36.12917 l -2.25,0.1508 0,21.33333 c 0,11.73334 0.3,21.63334 0.66667,22 0.36666,0.36667 2.61666,0.66667 5,0.66667 l 4.33333,0 0,-17 z m -26,-4.46862 c 0,-8.94388 -0.61286,-9.02317 -8.82374,-1.1416 -8.67589,8.32792 -8.65003,8.61022 0.78856,8.61022 l 8.03518,0 0,-7.46862 z m 45,5.69113 c 0,-2.37066 -11.56364,-13.22251 -14.0898,-13.22251 -0.50061,0 -0.9102,3.15 -0.9102,7 l 0,7 7.5,0 c 4.125,0 7.5,-0.34987 7.5,-0.77749 z"
         style="fill:#000000" />
    </g>
  </g>
</svg>
