<?xml version="1.0" encoding="UTF-8" standalone="no"?>
<!-- Created with Inkscape (http://www.inkscape.org/) -->

<svg
   xmlns:dc="http://purl.org/dc/elements/1.1/"
   xmlns:cc="http://creativecommons.org/ns#"
   xmlns:rdf="http://www.w3.org/1999/02/22-rdf-syntax-ns#"
   xmlns:svg="http://www.w3.org/2000/svg"
   xmlns="http://www.w3.org/2000/svg"
   xmlns:sodipodi="http://sodipodi.sourceforge.net/DTD/sodipodi-0.dtd"
   xmlns:inkscape="http://www.inkscape.org/namespaces/inkscape"
   width="27.756392mm"
   height="27.48765mm"
   viewBox="0 0 98.349419 97.397184"
   id="svg4834"
   version="1.1"
   inkscape:version="0.91 r13725"
   sodipodi:docname="shield_knot.svg">
  <defs
     id="defs4836" />
  <sodipodi:namedview
     id="base"
     pagecolor="#ffffff"
     bordercolor="#666666"
     borderopacity="1.0"
     inkscape:pageopacity="0.0"
     inkscape:pageshadow="2"
     inkscape:zoom="0.98994949"
     inkscape:cx="50.378454"
     inkscape:cy="-48.600602"
     inkscape:document-units="px"
     inkscape:current-layer="layer1"
     showgrid="false"
     fit-margin-top="0"
     fit-margin-left="0"
     fit-margin-right="0"
     fit-margin-bottom="0"
     inkscape:window-width="1920"
     inkscape:window-height="1054"
     inkscape:window-x="1280"
     inkscape:window-y="0"
     inkscape:window-maximized="1" />
  <metadata
     id="metadata4839">
    <rdf:RDF>
      <cc:Work
         rdf:about="">
        <dc:format>image/svg+xml</dc:format>
        <dc:type
           rdf:resource="http://purl.org/dc/dcmitype/StillImage" />
        <dc:title></dc:title>
      </cc:Work>
    </rdf:RDF>
  </metadata>
  <g
     inkscape:label="Layer 1"
     inkscape:groupmode="layer"
     id="layer1"
     transform="translate(-367.49654,-177.61714)">
    <path
       style="fill:#000000"
       d="m 407.84593,274.49413 c -1.1,-0.24273 -4.475,-1.39545 -7.5,-2.5616 -21.28682,-8.20609 -34.14385,-27.46142 -32.74587,-49.04182 1.30325,-20.11816 13.87618,-35.98928 34.41809,-43.44682 6.76842,-2.45721 23.94759,-2.43007 30.82778,0.0487 13.63148,4.91111 25.15998,15.26733 30.80758,27.67489 1.7388,3.82008 2.05917,6.62115 2.12035,18.5386 l 0.0721,14.0386 -3.7462,7.59319 c -6.2731,12.71496 -19.98191,23.57038 -33.78161,26.7502 -4.42143,1.01882 -16.60068,1.26039 -20.47219,0.40606 z m 6.26913,-24.57665 -0.26913,-22.25 -3.75,-0.31037 -3.75,-0.31036 0,16.66877 0,16.66878 -2.75,-0.67921 c -4.46535,-1.10286 -11.94087,-6.38889 -16.09897,-11.38376 -3.91733,-4.70564 -7.15103,-10.17917 -7.15103,-12.10419 0,-0.66926 3.98639,-1.04966 11,-1.04966 l 11,0 0,-4 0,-4 -16.12883,0 -16.12883,0 0.67334,5.07591 c 2.72321,20.52853 21.30613,37.99748 42.35345,39.81452 0.99811,0.0862 1.21166,-4.64199 1,-22.14043 z m 16.31571,20.15588 c 18.30277,-5.97465 31.57363,-21.03616 32.73973,-37.15734 l 0.41857,-5.78671 -22.87157,0.26908 -22.87157,0.26909 -0.31036,3.75 -0.31037,3.75 17.50135,0 c 10.71495,0 17.74361,0.392 18.12613,1.01092 0.9784,1.58308 -6.1605,12.53045 -10.80897,16.57538 -4.11322,3.57917 -10.97023,7.34821 -13.44778,7.39174 -0.92203,0.0162 -1.25,-2.73299 -1.25,-10.47804 l 0,-10.5 -5,0 -5,0 0,16.5 0,16.5 3.33484,0 c 1.83417,0 6.22167,-0.94236 9.75,-2.09412 z m 12.66516,-22.45402 c 7.36153,-7.77533 7.10727,-8.45186 -3.17653,-8.45186 l -8.42652,0 -0.32348,8.41179 -0.32347,8.41179 3.5,-1.4133 c 1.925,-0.77732 5.8625,-3.90861 8.75,-6.95842 z m -40.75,-0.45186 0,-8 -8.5,0 c -4.675,0 -8.5,0.24735 -8.5,0.54966 0,4.09215 11.90679,15.4085 16.25,15.44418 0.4125,0.003 0.75,-3.59384 0.75,-7.99384 z m 12,-27.5 0,-4.5 -17,0 c -13.35914,0 -17,-0.2809 -17,-1.3116 0,-0.72138 1.92962,-4.19175 4.28805,-7.71195 3.01068,-4.49374 6.19466,-7.67772 10.6884,-10.6884 9.60658,-6.43613 10.02355,-6.21932 10.02355,5.21195 l 0,9.5 4.5,0 4.5,0 0,-15 0,-15 -3.96249,0 c -9.2122,0 -23.78077,8.60614 -31.18017,18.41917 -4.32015,5.72933 -7.5129,13.50364 -8.45152,20.57927 l -0.66348,5.00156 22.12883,0 22.12883,0 0,-4.5 z m 13,-12.5 c 0,-9.35 0.24969,-17 0.55486,-17 1.62114,0 10.4452,4.6507 13.71662,7.22931 4.00777,3.15902 8.99166,9.79218 10.15891,13.52069 0.69995,2.23582 0.63781,2.25 -9.863,2.25 l -10.56739,0 0,5.5 0,5.5 15.89301,0 c 18.056,0 17.66143,0.19655 16.10289,-8.02163 -3.83009,-20.19598 -24.67032,-37.40766 -43.7459,-36.12917 l -2.25,0.1508 0,21.33333 c 0,11.73334 0.3,21.63334 0.66667,22 0.36666,0.36667 2.61666,0.66667 5,0.66667 l 4.33333,0 0,-17 z m -26,-4.46862 c 0,-8.94388 -0.61286,-9.02317 -8.82374,-1.1416 -8.67589,8.32792 -8.65003,8.61022 0.78856,8.61022 l 8.03518,0 0,-7.46862 z m 45,5.69113 c 0,-2.37066 -11.56364,-13.22251 -14.0898,-13.22251 -0.50061,0 -0.9102,3.15 -0.9102,7 l 0,7 7.5,0 c 4.125,0 7.5,-0.34987 7.5,-0.77749 z"
       id="path5393"
       inkscape:connector-curvature="0" />
  </g>
</svg>
