<?xml version="1.0" encoding="UTF-8" standalone="no"?>
<!-- Created with Inkscape (http://www.inkscape.org/) -->

<svg
   xmlns:dc="http://purl.org/dc/elements/1.1/"
   xmlns:cc="http://creativecommons.org/ns#"
   xmlns:rdf="http://www.w3.org/1999/02/22-rdf-syntax-ns#"
   xmlns:svg="http://www.w3.org/2000/svg"
   xmlns="http://www.w3.org/2000/svg"
   xmlns:sodipodi="http://sodipodi.sourceforge.net/DTD/sodipodi-0.dtd"
   xmlns:inkscape="http://www.inkscape.org/namespaces/inkscape"
   width="145.01846mm"
   height="20.979694mm"
   viewBox="0 0 513.84495 74.337499"
   id="svg4186"
   version="1.1"
   inkscape:version="0.91 r13725"
   sodipodi:docname="notice_notext.svg">
  <defs
     id="defs4188" />
  <sodipodi:namedview
     id="base"
     pagecolor="#ffffff"
     bordercolor="#666666"
     borderopacity="1.0"
     inkscape:pageopacity="0.0"
     inkscape:pageshadow="2"
     inkscape:zoom="1.4"
     inkscape:cx="302.23042"
     inkscape:cy="9.9643415"
     inkscape:document-units="px"
     inkscape:current-layer="layer1"
     showgrid="false"
     fit-margin-top="0"
     fit-margin-left="0"
     fit-margin-right="0"
     fit-margin-bottom="0"
     inkscape:window-width="1600"
     inkscape:window-height="851"
     inkscape:window-x="0"
     inkscape:window-y="25"
     inkscape:window-maximized="1" />
  <metadata
     id="metadata4191">
    <rdf:RDF>
      <cc:Work
         rdf:about="">
        <dc:format>image/svg+xml</dc:format>
        <dc:type
           rdf:resource="http://purl.org/dc/dcmitype/StillImage" />
        <dc:title></dc:title>
      </cc:Work>
    </rdf:RDF>
  </metadata>
  <g
     inkscape:label="Layer 1"
     inkscape:groupmode="layer"
     id="layer1"
     transform="translate(-17.296875,-18.551563)">
    <flowRoot
       xml:space="preserve"
       id="flowRoot4742"
       style="font-style:normal;font-weight:normal;font-size:40px;line-height:125%;font-family:sans-serif;text-align:start;letter-spacing:0px;word-spacing:0px;writing-mode:lr-tb;text-anchor:start;fill:#000000;fill-opacity:1;stroke:none;stroke-width:1px;stroke-linecap:butt;stroke-linejoin:miter;stroke-opacity:1"><flowRegion
         id="flowRegion4744"><rect
           id="rect4746"
           width="679.83264"
           height="257.5889"
           x="40.406101"
           y="30.08783" /></flowRegion><flowPara
         id="flowPara4748"></flowPara></flowRoot>    <g
       style="font-style:normal;font-variant:normal;font-weight:normal;font-stretch:normal;font-size:12.5px;line-height:125%;font-family:FreeSans;-inkscape-font-specification:'FreeSans, Normal';text-align:start;letter-spacing:0px;word-spacing:0px;writing-mode:lr-tb;text-anchor:start;fill:#000000;fill-opacity:1;stroke:none;stroke-width:1px;stroke-linecap:butt;stroke-linejoin:miter;stroke-opacity:1"
       id="flowRoot4754">
      <path
         d="m 21.709375,19.576563 0,8.087499 -1.1625,0 0,-8.087499 -3,0 0,-1.025 7.15,0 0,1.025 -2.9875,0 z"
         style=""
         id="path4798" />
      <path
         d="m 29.994531,23.126562 q 0,-0.6875 -0.425,-0.987499 -0.4125,-0.300001 -0.925,-0.300001 -0.8,0 -1.2875,0.612501 -0.4875,0.599999 -0.4875,1.599999 l 0,3.6125 -1.0375,0 0,-9.112499 1.0375,0 0,3.4625 q 0.4625,-0.600001 0.925,-0.837501 0.475,-0.25 1.175,-0.25 0.95,0 1.5,0.4875 0.5625,0.475001 0.5625,1.3 l 0,4.95 -1.0375,0 0,-4.5375 z"
         style=""
         id="path4800" />
      <path
         d="m 33.646484,21.114062 0,6.55 -1.0375,0 0,-6.55 1.0375,0 z m 0,-2.562499 0,1.312499 -1.05,0 0,-1.312499 1.05,0 z"
         style=""
         id="path4802" />
      <path
         d="m 36.079687,25.714062 q 0.075,0.5875 0.4,0.9375 0.337501,0.3375 1.2,0.3375 0.6875,0 1.100001,-0.275 0.424999,-0.2875 0.424999,-0.75 0,-0.3625 -0.237499,-0.574999 -0.237501,-0.212501 -0.775,-0.337501 l -0.975,-0.2375 q -1.162501,-0.275 -1.625,-0.6875 -0.450001,-0.424999 -0.450001,-1.2 0,-0.912499 0.6875,-1.45 0.6875,-0.55 1.825001,-0.55 1.137499,0 1.75,0.525001 0.612499,0.524999 0.625,1.487499 l -1.100001,0 q -0.0375,-1.049999 -1.3125,-1.049999 -0.6375,0 -1.0125,0.274999 -0.375,0.2625 -0.375,0.7125 0,0.35 0.2875,0.575001 0.2875,0.212499 0.925001,0.362499 l 1,0.2375 q 0.974999,0.2375 1.412499,0.675 0.4375,0.425 0.4375,1.15 0,0.950001 -0.7375,1.512501 -0.725,0.5625 -1.962499,0.5625 -2.537501,0 -2.612501,-2.237501 l 1.1,0 z"
         style=""
         id="path4804" />
      <path
         d="m 50.069531,18.551563 0,9.112499 -0.925,0 0,-0.8625 q -0.425,0.6125 -0.925,0.875 -0.4875,0.275001 -1.1625,0.275001 -1.325,0 -2.0875,-0.950001 -0.7625,-0.9625 -0.7625,-2.625 0,-1.5625 0.7625,-2.5 0.775,-0.95 2.05,-0.95 1.35,0 2.0125,1.0125 l 0,-3.387499 1.0375,0 z m -2.875,3.349999 q -0.85,0 -1.375,0.7 -0.525,0.7 -0.525,1.8375 0,1.15 0.525,1.85 0.525,0.6875 1.3875,0.6875 0.825,0 1.325,-0.6875 0.5,-0.6875 0.5,-1.825 0,-1.175 -0.5,-1.8625 -0.5,-0.7 -1.3375,-0.7 z"
         style=""
         id="path4806" />
      <path
         d="m 57.101953,24.739062 -4.825,0 q 0.025,1.025001 0.525,1.6375 0.5125,0.6125 1.4,0.6125 1.275,0 1.7125,-1.3125 l 1.05,0 q -0.2,1.075 -0.9375,1.675 -0.7375,0.600001 -1.8625,0.600001 -1.375,0 -2.175,-0.925001 -0.8,-0.9375 -0.8,-2.55 0,-1.6125 0.8125,-2.575 0.825,-0.975 2.1875,-0.975 2.9125,0 2.9125,3.8125 z m -4.8,-0.849999 3.6875,0 q 0,-0.850001 -0.5125,-1.425001 -0.5125,-0.574999 -1.3,-0.574999 -0.7875,0 -1.3,0.549999 -0.5125,0.5375 -0.575,1.450001 z"
         style=""
         id="path4808" />
      <path
         d="m 59.004492,25.714062 q 0.075,0.5875 0.4,0.9375 0.3375,0.3375 1.2,0.3375 0.6875,0 1.1,-0.275 0.425,-0.2875 0.425,-0.75 0,-0.3625 -0.2375,-0.574999 -0.2375,-0.212501 -0.775,-0.337501 l -0.975,-0.2375 q -1.1625,-0.275 -1.625,-0.6875 -0.45,-0.424999 -0.45,-1.2 0,-0.912499 0.6875,-1.45 0.6875,-0.55 1.825,-0.55 1.1375,0 1.75,0.525001 0.6125,0.524999 0.625,1.487499 l -1.1,0 q -0.0375,-1.049999 -1.3125,-1.049999 -0.6375,0 -1.0125,0.274999 -0.375,0.2625 -0.375,0.7125 0,0.35 0.2875,0.575001 0.2875,0.212499 0.925,0.362499 l 1,0.2375 q 0.975,0.2375 1.4125,0.675 0.4375,0.425 0.4375,1.15 0,0.950001 -0.7375,1.512501 -0.725,0.5625 -1.9625,0.5625 -2.5375,0 -2.6125,-2.237501 l 1.1,0 z"
         style=""
         id="path4810" />
      <path
         d="m 65.506836,21.114062 0,6.55 -1.0375,0 0,-6.55 1.0375,0 z m 0,-2.562499 0,1.312499 -1.05,0 0,-1.312499 1.05,0 z"
         style=""
         id="path4812" />
      <path
         d="m 69.490039,27.951563 q -1.15,0 -1.925,-0.9375 -0.775,-0.950001 -0.775,-2.512501 0,-1.6 0.7625,-2.5875 0.775,-0.9875 2.025,-0.9875 1.225,0 2,1.1375 l -0.125,-0.95 1.0875,0 0,5.475 q 0,0.9375 -0.1125,1.5625 -0.1125,0.6375 -0.4125,1.175001 -0.3,0.537499 -0.9,0.799999 -0.5875,0.262501 -1.5,0.262501 -1.15,0 -1.8375,-0.525001 -0.6875,-0.525 -0.775,-1.45 l 1.0625,0 q 0.175,1.100001 1.5875,1.100001 1.05,0 1.4375,-0.600001 0.3875,-0.587499 0.3875,-1.8 l 0,-0.3375 q -0.4375,0.625 -0.9125,0.9 -0.4625,0.275001 -1.075,0.275001 z m 0.2,-6.0625 q -0.8375,0 -1.325,0.6875 -0.4875,0.6875 -0.4875,1.862499 0,1.1875 0.4875,1.875 0.4875,0.675 1.3375,0.675 0.825,0 1.3,-0.662499 0.475,-0.675001 0.475,-1.850001 0,-1.225 -0.475,-1.899999 -0.4625,-0.6875 -1.3125,-0.6875 z"
         style=""
         id="path4814" />
      <path
         d="m 74.049805,21.114062 0.9625,0 0,1.1 q 0.4375,-0.6875 0.9375,-0.9875 0.5125,-0.3 1.2375,-0.3 0.95,0 1.5125,0.4875 0.5625,0.4875 0.5625,1.3 l 0,4.95 -1.0375,0 0,-4.5375 q 0,-0.5875 -0.3625,-0.9375 -0.3625,-0.35 -0.9875,-0.35 -0.8,0 -1.2875,0.612501 -0.4875,0.599999 -0.4875,1.599999 l 0,3.6125 -1.05,0 0,-6.55 z"
         style=""
         id="path4816" />
      <path
         d="m 90.113672,27.664062 -1.1875,0 -1.325,-5.1375 -1.2625,5.1375 -1.175,0 -1.9,-6.55 1.15,0 1.3375,5.1 1.25,-5.1 1.275,0 1.2875,5.1 1.3,-5.1 1.175,0 -1.925,6.55 z"
         style=""
         id="path4818" />
      <path
         d="m 92.834375,23.051562 q 0.075,-2.125 2.625,-2.125 1.2125,0 1.8375,0.462501 0.625,0.449999 0.625,1.324999 l 0,3.85 q 0,0.512501 0.5625,0.512501 0.1125,0 0.225,-0.025 l 0,0.7875 q -0.4375,0.112501 -0.7125,0.112501 -0.5,0 -0.7625,-0.237501 -0.25,-0.225 -0.3125,-0.725 -1.05,0.962501 -2.225,0.962501 -0.9875,0 -1.575,-0.525001 -0.575,-0.525 -0.575,-1.412499 0,-0.287501 0.05,-0.525001 0.0625,-0.2375 0.125,-0.412499 0.075,-0.1875 0.25,-0.337501 0.175,-0.162499 0.2875,-0.2625 0.125,-0.1 0.4,-0.1875 0.2875,-0.1 0.4375,-0.1375 0.15,-0.05 0.525,-0.1125 0.375,-0.0625 0.55,-0.0875 0.175,-0.025 0.625,-0.0875 0.6125,-0.075 0.85,-0.2375 0.2375,-0.1625 0.2375,-0.487499 l 0,-0.275001 q 0,-0.474999 -0.3875,-0.724999 -0.375,-0.25 -1.075,-0.25 -0.725,0 -1.1,0.287499 -0.375,0.275001 -0.4375,0.875 l -1.05,0 z m 2.0875,3.9875 q 0.8625,0 1.4125,-0.45 0.55,-0.4625 0.55,-0.9875 l 0,-1.175 q -0.3125,0.150001 -0.95,0.25 -0.625,0.1 -1.0875,0.175 -0.4625,0.075 -0.8375,0.3625 -0.375,0.275 -0.375,0.775 0,0.5 0.3375,0.775001 0.3375,0.274999 0.95,0.274999 z"
         style=""
         id="path4820" />
      <path
         d="m 100.48398,25.714062 q 0.075,0.5875 0.4,0.9375 0.3375,0.3375 1.2,0.3375 0.6875,0 1.1,-0.275 0.425,-0.2875 0.425,-0.75 0,-0.3625 -0.2375,-0.574999 -0.2375,-0.212501 -0.775,-0.337501 l -0.975,-0.2375 q -1.1625,-0.275 -1.624996,-0.6875 -0.45,-0.424999 -0.45,-1.2 0,-0.912499 0.687496,-1.45 0.6875,-0.55 1.825,-0.55 1.1375,0 1.75,0.525001 0.6125,0.524999 0.625,1.487499 l -1.1,0 q -0.0375,-1.049999 -1.3125,-1.049999 -0.6375,0 -1.0125,0.274999 -0.375,0.2625 -0.375,0.7125 0,0.35 0.2875,0.575001 0.2875,0.212499 0.925,0.362499 l 1,0.2375 q 0.975,0.2375 1.4125,0.675 0.4375,0.425 0.4375,1.15 0,0.950001 -0.7375,1.512501 -0.725,0.5625 -1.9625,0.5625 -2.537496,0 -2.612496,-2.237501 l 1.099996,0 z"
         style=""
         id="path4822" />
      <path
         d="m 108.98633,30.389063 0,-9.275001 0.9625,0 0,0.9875 q 0.7375,-1.175 2.0875,-1.175 1.3,0 2.05,0.962501 0.7625,0.962499 0.7625,2.612499 0,1.5625 -0.775,2.512501 -0.7625,0.9375 -2.025,0.9375 -1.2125,0 -2.0125,-0.975001 l 0,3.412501 -1.05,0 z m 2.875,-8.487501 q -0.825,0 -1.325,0.7 -0.5,0.6875 -0.5,1.8375 0,1.15 0.5,1.85 0.5,0.6875 1.325,0.6875 0.85,0 1.375,-0.6875 0.525,-0.7 0.525,-1.8125 0,-1.175 -0.525,-1.875 -0.5125,-0.7 -1.375,-0.7 z"
         style=""
         id="path4824" />
      <path
         d="m 119.11875,22.026562 q -1.05,0.025 -1.575,0.487501 -0.525,0.462499 -0.525,1.75 l 0,3.399999 -1.05,0 0,-6.55 0.9625,0 0,1.1875 q 0.45,-0.7375 0.8625,-1.05 0.425,-0.325 0.925,-0.325 0.1375,0 0.4,0.0375 l 0,1.0625 z"
         style=""
         id="path4826" />
      <path
         d="m 122.69414,20.926562 q 1.4125,0 2.1875,0.9375 0.7875,0.925 0.7875,2.625 0,1.6125 -0.8,2.5375 -0.7875,0.925001 -2.1625,0.925001 -1.4,0 -2.1875,-0.925001 -0.775,-0.9375 -0.775,-2.5875 0,-1.65 0.7875,-2.575 0.7875,-0.9375 2.1625,-0.9375 z m 0.0125,0.962501 q -0.875,0 -1.375,0.6875 -0.5,0.674999 -0.5,1.862499 0,1.1875 0.5,1.875 0.5,0.675 1.375,0.675 0.8625,0 1.3625,-0.675 0.5125,-0.6875 0.5125,-1.8375 0,-1.212499 -0.5,-1.899999 -0.4875,-0.6875 -1.375,-0.6875 z"
         style=""
         id="path4828" />
      <path
         d="m 132.27168,18.551563 0,9.112499 -0.925,0 0,-0.8625 q -0.425,0.6125 -0.925,0.875 -0.4875,0.275001 -1.1625,0.275001 -1.325,0 -2.0875,-0.950001 -0.7625,-0.9625 -0.7625,-2.625 0,-1.5625 0.7625,-2.5 0.775,-0.95 2.05,-0.95 1.35,0 2.0125,1.0125 l 0,-3.387499 1.0375,0 z m -2.875,3.349999 q -0.85,0 -1.375,0.7 -0.525,0.7 -0.525,1.8375 0,1.15 0.525,1.85 0.525,0.6875 1.3875,0.6875 0.825,0 1.325,-0.6875 0.5,-0.6875 0.5,-1.825 0,-1.175 -0.5,-1.8625 -0.5,-0.7 -1.3375,-0.7 z"
         style=""
         id="path4830" />
      <path
         d="m 138.9791,27.664062 -0.9375,0 0,-0.9125 q -0.4625,0.65 -0.9625,0.925 -0.5,0.275001 -1.225,0.275001 -0.95,0 -1.525,-0.487501 -0.5625,-0.4875 -0.5625,-1.3 l 0,-5.05 1.0375,0 0,4.6375 q 0,0.5875 0.3625,0.9375 0.3625,0.35 0.9875,0.35 0.8125,0 1.3,-0.6 0.4875,-0.612499 0.4875,-1.612499 l 0,-3.712501 1.0375,0 0,6.55 z"
         style=""
         id="path4832" />
      <path
         d="m 145.60547,23.314062 -1.05,0 q -0.1,-0.6875 -0.5,-1.049999 -0.4,-0.375 -1.05,-0.375 -0.85,0 -1.3375,0.699999 -0.475,0.6875 -0.475,1.9125 0,1.1625 0.4875,1.825001 0.4875,0.662499 1.35,0.662499 1.3375,0 1.6,-1.575 l 1.05,0 q -0.1,1.2 -0.8,1.875 -0.7,0.662501 -1.875,0.662501 -1.3375,0 -2.125,-0.925001 -0.775,-0.9375 -0.775,-2.525 0,-1.625 0.7875,-2.6 0.8,-0.975 2.125,-0.975 1.1375,0 1.8125,0.6125 0.6875,0.6125 0.775,1.775 z"
         style=""
         id="path4834" />
      <path
         d="m 152.34121,24.739062 -4.825,0 q 0.025,1.025001 0.525,1.6375 0.5125,0.6125 1.4,0.6125 1.275,0 1.7125,-1.3125 l 1.05,0 q -0.2,1.075 -0.9375,1.675 -0.7375,0.600001 -1.8625,0.600001 -1.375,0 -2.175,-0.925001 -0.8,-0.9375 -0.8,-2.55 0,-1.6125 0.8125,-2.575 0.825,-0.975 2.1875,-0.975 2.9125,0 2.9125,3.8125 z m -4.8,-0.849999 3.6875,0 q 0,-0.850001 -0.5125,-1.425001 -0.5125,-0.574999 -1.3,-0.574999 -0.7875,0 -1.3,0.549999 -0.5125,0.5375 -0.575,1.450001 z"
         style=""
         id="path4836" />
      <path
         d="m 158.95625,18.551563 0,9.112499 -0.925,0 0,-0.8625 q -0.425,0.6125 -0.925,0.875 -0.4875,0.275001 -1.1625,0.275001 -1.325,0 -2.0875,-0.950001 -0.7625,-0.9625 -0.7625,-2.625 0,-1.5625 0.7625,-2.5 0.775,-0.95 2.05,-0.95 1.35,0 2.0125,1.0125 l 0,-3.387499 1.0375,0 z m -2.875,3.349999 q -0.85,0 -1.375,0.7 -0.525,0.7 -0.525,1.8375 0,1.15 0.525,1.85 0.525,0.6875 1.3875,0.6875 0.825,0 1.325,-0.6875 0.5,-0.6875 0.5,-1.825 0,-1.175 -0.5,-1.8625 -0.5,-0.7 -1.3375,-0.7 z"
         style=""
         id="path4838" />
      <path
         d="m 163.57617,18.551563 1.0375,0 0,3.449999 q 0.7125,-1.075 2.025,-1.075 1.3,0 2.05,0.925 0.75,0.925 0.75,2.5125 0,1.625 -0.775,2.6125 -0.775,0.975001 -2.075,0.975001 -1.3375,0 -2.075,-1.125 l 0,0.837499 -0.9375,0 0,-9.112499 z m 2.8625,3.349999 q -0.825,0 -1.325,0.7 -0.5,0.6875 -0.5,1.8375 0,1.15 0.5,1.85 0.5,0.6875 1.325,0.6875 0.85,0 1.375,-0.6875 0.5375,-0.7 0.5375,-1.8125 0,-1.175 -0.525,-1.875 -0.5125,-0.7 -1.3875,-0.7 z"
         style=""
         id="path4840" />
      <path
         d="m 174.53359,21.114062 1.125,0 -2.9125,7.925 q -0.5125,1.350001 -1.6875,1.350001 -0.3875,0 -0.7,-0.162501 l 0,-0.9375 q 0.3375,0.075 0.55,0.075 0.325,0 0.5125,-0.15 0.1875,-0.137499 0.325,-0.4875 l 0.4,-1.0375 -2.2125,-6.575 1.1125,0 1.675,5.1 1.8125,-5.1 z"
         style=""
         id="path4842" />
      <path
         d="m 184.82754,27.664062 -1.225,0 -2.5875,-7.6375 0,7.6375 -1.1,0 0,-9.112499 1.6125,0 2.7,7.937499 2.65,-7.937499 1.6125,0 0,9.112499 -1.1,0 0,-7.6375 -2.5625,7.6375 z"
         style=""
         id="path4844" />
      <path
         d="m 190.14883,23.051562 q 0.075,-2.125 2.625,-2.125 1.2125,0 1.8375,0.462501 0.625,0.449999 0.625,1.324999 l 0,3.85 q 0,0.512501 0.5625,0.512501 0.1125,0 0.225,-0.025 l 0,0.7875 q -0.4375,0.112501 -0.7125,0.112501 -0.5,0 -0.7625,-0.237501 -0.25,-0.225 -0.3125,-0.725 -1.05,0.962501 -2.225,0.962501 -0.9875,0 -1.575,-0.525001 -0.575,-0.525 -0.575,-1.412499 0,-0.287501 0.05,-0.525001 0.0625,-0.2375 0.125,-0.412499 0.075,-0.1875 0.25,-0.337501 0.175,-0.162499 0.2875,-0.2625 0.125,-0.1 0.4,-0.1875 0.2875,-0.1 0.4375,-0.1375 0.15,-0.05 0.525,-0.1125 0.375,-0.0625 0.55,-0.0875 0.175,-0.025 0.625,-0.0875 0.6125,-0.075 0.85,-0.2375 0.2375,-0.1625 0.2375,-0.487499 l 0,-0.275001 q 0,-0.474999 -0.3875,-0.724999 -0.375,-0.25 -1.075,-0.25 -0.725,0 -1.1,0.287499 -0.375,0.275001 -0.4375,0.875 l -1.05,0 z m 2.0875,3.9875 q 0.8625,0 1.4125,-0.45 0.55,-0.4625 0.55,-0.9875 l 0,-1.175 q -0.3125,0.150001 -0.95,0.25 -0.625,0.1 -1.0875,0.175 -0.4625,0.075 -0.8375,0.3625 -0.375,0.275 -0.375,0.775 0,0.5 0.3375,0.775001 0.3375,0.274999 0.95,0.274999 z"
         style=""
         id="path4846" />
      <path
         d="m 199.52344,21.114062 0,0.85 -1.075,0 0,4.487501 q 0,0.349999 0.1125,0.474999 0.125,0.1125 0.4625,0.1125 0.3125,0 0.5,-0.05 l 0,0.875 q -0.4875,0.0875 -0.85,0.0875 -0.6125,0 -0.9375,-0.275001 -0.325,-0.2625 -0.325,-0.7625 l 0,-4.95 -0.8875,0 0,-0.85 0.8875,0 0,-1.8 1.0375,0 0,1.8 1.075,0 z"
         style=""
         id="path4848" />
      <path
         d="m 203.01465,21.114062 0,0.85 -1.075,0 0,4.487501 q 0,0.349999 0.1125,0.474999 0.125,0.1125 0.4625,0.1125 0.3125,0 0.5,-0.05 l 0,0.875 q -0.4875,0.0875 -0.85,0.0875 -0.6125,0 -0.9375,-0.275001 -0.325,-0.2625 -0.325,-0.7625 l 0,-4.95 -0.8875,0 0,-0.85 0.8875,0 0,-1.8 1.0375,0 0,1.8 1.075,0 z"
         style=""
         id="path4850" />
      <path
         d="m 212.29336,27.664062 -1.225,0 -2.5875,-7.6375 0,7.6375 -1.1,0 0,-9.112499 1.6125,0 2.7,7.937499 2.65,-7.937499 1.6125,0 0,9.112499 -1.1,0 0,-7.6375 -2.5625,7.6375 z"
         style=""
         id="path4852" />
      <path
         d="m 217.61465,23.051562 q 0.075,-2.125 2.625,-2.125 1.2125,0 1.8375,0.462501 0.625,0.449999 0.625,1.324999 l 0,3.85 q 0,0.512501 0.5625,0.512501 0.1125,0 0.225,-0.025 l 0,0.7875 q -0.4375,0.112501 -0.7125,0.112501 -0.5,0 -0.7625,-0.237501 -0.25,-0.225 -0.3125,-0.725 -1.05,0.962501 -2.225,0.962501 -0.9875,0 -1.575,-0.525001 -0.575,-0.525 -0.575,-1.412499 0,-0.287501 0.05,-0.525001 0.0625,-0.2375 0.125,-0.412499 0.075,-0.1875 0.25,-0.337501 0.175,-0.162499 0.2875,-0.2625 0.125,-0.1 0.4,-0.1875 0.2875,-0.1 0.4375,-0.1375 0.15,-0.05 0.525,-0.1125 0.375,-0.0625 0.55,-0.0875 0.175,-0.025 0.625,-0.0875 0.6125,-0.075 0.85,-0.2375 0.2375,-0.1625 0.2375,-0.487499 l 0,-0.275001 q 0,-0.474999 -0.3875,-0.724999 -0.375,-0.25 -1.075,-0.25 -0.725,0 -1.1,0.287499 -0.375,0.275001 -0.4375,0.875 l -1.05,0 z m 2.0875,3.9875 q 0.8625,0 1.4125,-0.45 0.55,-0.4625 0.55,-0.9875 l 0,-1.175 q -0.3125,0.150001 -0.95,0.25 -0.625,0.1 -1.0875,0.175 -0.4625,0.075 -0.8375,0.3625 -0.375,0.275 -0.375,0.775 0,0.5 0.3375,0.775001 0.3375,0.274999 0.95,0.274999 z"
         style=""
         id="path4854" />
      <path
         d="m 227.63926,22.026562 q -1.05,0.025 -1.575,0.487501 -0.525,0.462499 -0.525,1.75 l 0,3.399999 -1.05,0 0,-6.55 0.9625,0 0,1.1875 q 0.45,-0.7375 0.8625,-1.05 0.425,-0.325 0.925,-0.325 0.1375,0 0.4,0.0375 l 0,1.0625 z"
         style=""
         id="path4856" />
      <path
         d="m 229.41465,25.714062 q 0.075,0.5875 0.4,0.9375 0.3375,0.3375 1.2,0.3375 0.6875,0 1.1,-0.275 0.425,-0.2875 0.425,-0.75 0,-0.3625 -0.2375,-0.574999 -0.2375,-0.212501 -0.775,-0.337501 l -0.975,-0.2375 q -1.1625,-0.275 -1.625,-0.6875 -0.45,-0.424999 -0.45,-1.2 0,-0.912499 0.6875,-1.45 0.6875,-0.55 1.825,-0.55 1.1375,0 1.75,0.525001 0.6125,0.524999 0.625,1.487499 l -1.1,0 q -0.0375,-1.049999 -1.3125,-1.049999 -0.6375,0 -1.0125,0.274999 -0.375,0.2625 -0.375,0.7125 0,0.35 0.2875,0.575001 0.2875,0.212499 0.925,0.362499 l 1,0.2375 q 0.975,0.2375 1.4125,0.675 0.4375,0.425 0.4375,1.15 0,0.950001 -0.7375,1.512501 -0.725,0.5625 -1.9625,0.5625 -2.5375,0 -2.6125,-2.237501 l 1.1,0 z"
         style=""
         id="path4858" />
      <path
         d="m 238.95449,23.126562 q 0,-0.6875 -0.425,-0.987499 -0.4125,-0.300001 -0.925,-0.300001 -0.8,0 -1.2875,0.612501 -0.4875,0.599999 -0.4875,1.599999 l 0,3.6125 -1.0375,0 0,-9.112499 1.0375,0 0,3.4625 q 0.4625,-0.600001 0.925,-0.837501 0.475,-0.25 1.175,-0.25 0.95,0 1.5,0.4875 0.5625,0.475001 0.5625,1.3 l 0,4.95 -1.0375,0 0,-4.5375 z"
         style=""
         id="path4860" />
      <path
         d="m 241.39395,23.051562 q 0.075,-2.125 2.625,-2.125 1.2125,0 1.8375,0.462501 0.625,0.449999 0.625,1.324999 l 0,3.85 q 0,0.512501 0.5625,0.512501 0.1125,0 0.225,-0.025 l 0,0.7875 q -0.4375,0.112501 -0.7125,0.112501 -0.5,0 -0.7625,-0.237501 -0.25,-0.225 -0.3125,-0.725 -1.05,0.962501 -2.225,0.962501 -0.9875,0 -1.575,-0.525001 -0.575,-0.525 -0.575,-1.412499 0,-0.287501 0.05,-0.525001 0.0625,-0.2375 0.125,-0.412499 0.075,-0.1875 0.25,-0.337501 0.175,-0.162499 0.2875,-0.2625 0.125,-0.1 0.4,-0.1875 0.2875,-0.1 0.4375,-0.1375 0.15,-0.05 0.525,-0.1125 0.375,-0.0625 0.55,-0.0875 0.175,-0.025 0.625,-0.0875 0.6125,-0.075 0.85,-0.2375 0.2375,-0.1625 0.2375,-0.487499 l 0,-0.275001 q 0,-0.474999 -0.3875,-0.724999 -0.375,-0.25 -1.075,-0.25 -0.725,0 -1.1,0.287499 -0.375,0.275001 -0.4375,0.875 l -1.05,0 z m 2.0875,3.9875 q 0.8625,0 1.4125,-0.45 0.55,-0.4625 0.55,-0.9875 l 0,-1.175 q -0.3125,0.150001 -0.95,0.25 -0.625,0.1 -1.0875,0.175 -0.4625,0.075 -0.8375,0.3625 -0.375,0.275 -0.375,0.775 0,0.5 0.3375,0.775001 0.3375,0.274999 0.95,0.274999 z"
         style=""
         id="path4862" />
      <path
         d="m 249.31855,18.551563 0,9.112499 -1.05,0 0,-9.112499 1.05,0 z"
         style=""
         id="path4864" />
      <path
         d="m 252.0041,18.551563 0,9.112499 -1.05,0 0,-9.112499 1.05,0 z"
         style=""
         id="path4866" />
      <path
         d="m 256.67715,23.051562 q 0.075,-2.125 2.625,-2.125 1.2125,0 1.8375,0.462501 0.625,0.449999 0.625,1.324999 l 0,3.85 q 0,0.512501 0.5625,0.512501 0.1125,0 0.225,-0.025 l 0,0.7875 q -0.4375,0.112501 -0.7125,0.112501 -0.5,0 -0.7625,-0.237501 -0.25,-0.225 -0.3125,-0.725 -1.05,0.962501 -2.225,0.962501 -0.9875,0 -1.575,-0.525001 -0.575,-0.525 -0.575,-1.412499 0,-0.287501 0.05,-0.525001 0.0625,-0.2375 0.125,-0.412499 0.075,-0.1875 0.25,-0.337501 0.175,-0.162499 0.2875,-0.2625 0.125,-0.1 0.4,-0.1875 0.2875,-0.1 0.4375,-0.1375 0.15,-0.05 0.525,-0.1125 0.375,-0.0625 0.55,-0.0875 0.175,-0.025 0.625,-0.0875 0.6125,-0.075 0.85,-0.2375 0.2375,-0.1625 0.2375,-0.487499 l 0,-0.275001 q 0,-0.474999 -0.3875,-0.724999 -0.375,-0.25 -1.075,-0.25 -0.725,0 -1.1,0.287499 -0.375,0.275001 -0.4375,0.875 l -1.05,0 z m 2.0875,3.9875 q 0.8625,0 1.4125,-0.45 0.55,-0.4625 0.55,-0.9875 l 0,-1.175 q -0.3125,0.150001 -0.95,0.25 -0.625,0.1 -1.0875,0.175 -0.4625,0.075 -0.8375,0.3625 -0.375,0.275 -0.375,0.775 0,0.5 0.3375,0.775001 0.3375,0.274999 0.95,0.274999 z"
         style=""
         id="path4868" />
      <path
         d="m 263.55176,21.114062 0.9625,0 0,1.1 q 0.4375,-0.6875 0.9375,-0.9875 0.5125,-0.3 1.2375,-0.3 0.95,0 1.5125,0.4875 0.5625,0.4875 0.5625,1.3 l 0,4.95 -1.0375,0 0,-4.5375 q 0,-0.5875 -0.3625,-0.9375 -0.3625,-0.35 -0.9875,-0.35 -0.8,0 -1.2875,0.612501 -0.4875,0.599999 -0.4875,1.599999 l 0,3.6125 -1.05,0 0,-6.55 z"
         style=""
         id="path4870" />
      <path
         d="m 275.75312,18.551563 0,9.112499 -0.925,0 0,-0.8625 q -0.425,0.6125 -0.925,0.875 -0.4875,0.275001 -1.16249,0.275001 -1.32501,0 -2.08751,-0.950001 -0.7625,-0.9625 -0.7625,-2.625 0,-1.5625 0.7625,-2.5 0.77501,-0.95 2.05,-0.95 1.35001,0 2.0125,1.0125 l 0,-3.387499 1.0375,0 z m -2.875,3.349999 q -0.85,0 -1.375,0.7 -0.525,0.7 -0.525,1.8375 0,1.15 0.525,1.85 0.525,0.6875 1.3875,0.6875 0.825,0 1.325,-0.6875 0.5,-0.6875 0.5,-1.825 0,-1.175 -0.5,-1.8625 -0.5,-0.7 -1.3375,-0.7 z"
         style=""
         id="path4872" />
      <path
         d="m 281.49805,21.114062 0,6.55 -1.0375,0 0,-6.55 1.0375,0 z m 0,-2.562499 0,1.312499 -1.05,0 0,-1.312499 1.05,0 z"
         style=""
         id="path4874" />
      <path
         d="m 283.93125,25.714062 q 0.075,0.5875 0.4,0.9375 0.3375,0.3375 1.2,0.3375 0.6875,0 1.1,-0.275 0.425,-0.2875 0.425,-0.75 0,-0.3625 -0.2375,-0.574999 -0.2375,-0.212501 -0.775,-0.337501 l -0.975,-0.2375 q -1.1625,-0.275 -1.625,-0.6875 -0.45,-0.424999 -0.45,-1.2 0,-0.912499 0.6875,-1.45 0.6875,-0.55 1.825,-0.55 1.1375,0 1.75,0.525001 0.6125,0.524999 0.625,1.487499 l -1.1,0 q -0.0375,-1.049999 -1.3125,-1.049999 -0.6375,0 -1.0125,0.274999 -0.375,0.2625 -0.375,0.7125 0,0.35 0.2875,0.575001 0.2875,0.212499 0.925,0.362499 l 1,0.2375 q 0.975,0.2375 1.4125,0.675 0.4375,0.425 0.4375,1.15 0,0.950001 -0.7375,1.512501 -0.725,0.5625 -1.9625,0.5625 -2.5375,0 -2.6125,-2.237501 l 1.1,0 z"
         style=""
         id="path4876" />
      <path
         d="m 295.58359,22.026562 q -1.05,0.025 -1.575,0.487501 -0.525,0.462499 -0.525,1.75 l 0,3.399999 -1.05,0 0,-6.55 0.9625,0 0,1.1875 q 0.45,-0.7375 0.8625,-1.05 0.425,-0.325 0.925,-0.325 0.1375,0 0.4,0.0375 l 0,1.0625 z"
         style=""
         id="path4878" />
      <path
         d="m 302.12148,24.739062 -4.825,0 q 0.025,1.025001 0.525,1.6375 0.5125,0.6125 1.4,0.6125 1.275,0 1.7125,-1.3125 l 1.05,0 q -0.2,1.075 -0.9375,1.675 -0.7375,0.600001 -1.8625,0.600001 -1.375,0 -2.175,-0.925001 -0.8,-0.9375 -0.8,-2.55 0,-1.6125 0.8125,-2.575 0.825,-0.975 2.1875,-0.975 2.9125,0 2.9125,3.8125 z m -4.8,-0.849999 3.6875,0 q 0,-0.850001 -0.5125,-1.425001 -0.5125,-0.574999 -1.3,-0.574999 -0.7875,0 -1.3,0.549999 -0.5125,0.5375 -0.575,1.450001 z"
         style=""
         id="path4880" />
      <path
         d="m 304.29902,18.551563 0,9.112499 -1.05,0 0,-9.112499 1.05,0 z"
         style=""
         id="path4882" />
      <path
         d="m 311.47207,24.739062 -4.825,0 q 0.025,1.025001 0.525,1.6375 0.5125,0.6125 1.4,0.6125 1.275,0 1.7125,-1.3125 l 1.05,0 q -0.2,1.075 -0.9375,1.675 -0.7375,0.600001 -1.8625,0.600001 -1.375,0 -2.175,-0.925001 -0.8,-0.9375 -0.8,-2.55 0,-1.6125 0.8125,-2.575 0.825,-0.975 2.1875,-0.975 2.9125,0 2.9125,3.8125 z m -4.8,-0.849999 3.6875,0 q 0,-0.850001 -0.5125,-1.425001 -0.5125,-0.574999 -1.3,-0.574999 -0.7875,0 -1.3,0.549999 -0.5125,0.5375 -0.575,1.450001 z"
         style=""
         id="path4884" />
      <path
         d="m 312.51211,23.051562 q 0.075,-2.125 2.625,-2.125 1.2125,0 1.8375,0.462501 0.625,0.449999 0.625,1.324999 l 0,3.85 q 0,0.512501 0.5625,0.512501 0.1125,0 0.225,-0.025 l 0,0.7875 q -0.4375,0.112501 -0.7125,0.112501 -0.5,0 -0.7625,-0.237501 -0.25,-0.225 -0.3125,-0.725 -1.05,0.962501 -2.225,0.962501 -0.9875,0 -1.575,-0.525001 -0.575,-0.525 -0.575,-1.412499 0,-0.287501 0.05,-0.525001 0.0625,-0.2375 0.125,-0.412499 0.075,-0.1875 0.25,-0.337501 0.175,-0.162499 0.2875,-0.2625 0.125,-0.1 0.4,-0.1875 0.2875,-0.1 0.4375,-0.1375 0.15,-0.05 0.525,-0.1125 0.375,-0.0625 0.55,-0.0875 0.175,-0.025 0.625,-0.0875 0.6125,-0.075 0.85,-0.2375 0.2375,-0.1625 0.2375,-0.487499 l 0,-0.275001 q 0,-0.474999 -0.3875,-0.724999 -0.375,-0.25 -1.075,-0.25 -0.725,0 -1.1,0.287499 -0.375,0.275001 -0.4375,0.875 l -1.05,0 z m 2.0875,3.9875 q 0.8625,0 1.4125,-0.45 0.55,-0.4625 0.55,-0.9875 l 0,-1.175 q -0.3125,0.150001 -0.95,0.25 -0.625,0.1 -1.0875,0.175 -0.4625,0.075 -0.8375,0.3625 -0.375,0.275 -0.375,0.775 0,0.5 0.3375,0.775001 0.3375,0.274999 0.95,0.274999 z"
         style=""
         id="path4886" />
      <path
         d="m 320.16172,25.714062 q 0.075,0.5875 0.4,0.9375 0.3375,0.3375 1.2,0.3375 0.6875,0 1.1,-0.275 0.425,-0.2875 0.425,-0.75 0,-0.3625 -0.2375,-0.574999 -0.2375,-0.212501 -0.775,-0.337501 l -0.975,-0.2375 q -1.1625,-0.275 -1.625,-0.6875 -0.45,-0.424999 -0.45,-1.2 0,-0.912499 0.6875,-1.45 0.6875,-0.55 1.825,-0.55 1.1375,0 1.75,0.525001 0.6125,0.524999 0.625,1.487499 l -1.1,0 q -0.0375,-1.049999 -1.3125,-1.049999 -0.6375,0 -1.0125,0.274999 -0.375,0.2625 -0.375,0.7125 0,0.35 0.2875,0.575001 0.2875,0.212499 0.925,0.362499 l 1,0.2375 q 0.975,0.2375 1.4125,0.675 0.4375,0.425 0.4375,1.15 0,0.950001 -0.7375,1.512501 -0.725,0.5625 -1.9625,0.5625 -2.5375,0 -2.6125,-2.237501 l 1.1,0 z"
         style=""
         id="path4888" />
      <path
         d="m 331.07656,24.739062 -4.825,0 q 0.025,1.025001 0.525,1.6375 0.5125,0.6125 1.4,0.6125 1.275,0 1.7125,-1.3125 l 1.05,0 q -0.2,1.075 -0.9375,1.675 -0.7375,0.600001 -1.8625,0.600001 -1.375,0 -2.175,-0.925001 -0.8,-0.9375 -0.8,-2.55 0,-1.6125 0.8125,-2.575 0.825,-0.975 2.1875,-0.975 2.9125,0 2.9125,3.8125 z m -4.8,-0.849999 3.6875,0 q 0,-0.850001 -0.5125,-1.425001 -0.5125,-0.574999 -1.3,-0.574999 -0.7875,0 -1.3,0.549999 -0.5125,0.5375 -0.575,1.450001 z"
         style=""
         id="path4890" />
      <path
         d="m 337.6916,18.551563 0,9.112499 -0.925,0 0,-0.8625 q -0.425,0.6125 -0.925,0.875 -0.4875,0.275001 -1.1625,0.275001 -1.325,0 -2.0875,-0.950001 -0.7625,-0.9625 -0.7625,-2.625 0,-1.5625 0.7625,-2.5 0.775,-0.95 2.05,-0.95 1.35,0 2.0125,1.0125 l 0,-3.387499 1.0375,0 z m -2.875,3.349999 q -0.85,0 -1.375,0.7 -0.525,0.7 -0.525,1.8375 0,1.15 0.525,1.85 0.525,0.6875 1.3875,0.6875 0.825,0 1.325,-0.6875 0.5,-0.6875 0.5,-1.825 0,-1.175 -0.5,-1.8625 -0.5,-0.7 -1.3375,-0.7 z"
         style=""
         id="path4892" />
      <path
         d="m 347.52402,27.664062 -0.9375,0 0,-0.9125 q -0.4625,0.65 -0.9625,0.925 -0.5,0.275001 -1.225,0.275001 -0.95,0 -1.525,-0.487501 -0.5625,-0.4875 -0.5625,-1.3 l 0,-5.05 1.0375,0 0,4.6375 q 0,0.5875 0.3625,0.9375 0.3625,0.35 0.9875,0.35 0.8125,0 1.3,-0.6 0.4875,-0.612499 0.4875,-1.612499 l 0,-3.712501 1.0375,0 0,6.55 z"
         style=""
         id="path4894" />
      <path
         d="m 349.02539,21.114062 0.9625,0 0,1.1 q 0.4375,-0.6875 0.9375,-0.9875 0.5125,-0.3 1.2375,-0.3 0.95,0 1.5125,0.4875 0.5625,0.4875 0.5625,1.3 l 0,4.95 -1.0375,0 0,-4.5375 q 0,-0.5875 -0.3625,-0.9375 -0.3625,-0.35 -0.9875,-0.35 -0.8,0 -1.2875,0.612501 -0.4875,0.599999 -0.4875,1.599999 l 0,3.6125 -1.05,0 0,-6.55 z"
         style=""
         id="path4896" />
      <path
         d="m 361.22676,18.551563 0,9.112499 -0.925,0 0,-0.8625 q -0.425,0.6125 -0.925,0.875 -0.4875,0.275001 -1.1625,0.275001 -1.325,0 -2.0875,-0.950001 -0.7625,-0.9625 -0.7625,-2.625 0,-1.5625 0.7625,-2.5 0.775,-0.95 2.05,-0.95 1.35,0 2.0125,1.0125 l 0,-3.387499 1.0375,0 z m -2.875,3.349999 q -0.85,0 -1.375,0.7 -0.525,0.7 -0.525,1.8375 0,1.15 0.525,1.85 0.525,0.6875 1.3875,0.6875 0.825,0 1.325,-0.6875 0.5,-0.6875 0.5,-1.825 0,-1.175 -0.5,-1.8625 -0.5,-0.7 -1.3375,-0.7 z"
         style=""
         id="path4898" />
      <path
         d="m 368.25918,24.739062 -4.825,0 q 0.025,1.025001 0.525,1.6375 0.5125,0.6125 1.4,0.6125 1.275,0 1.7125,-1.3125 l 1.05,0 q -0.2,1.075 -0.9375,1.675 -0.7375,0.600001 -1.8625,0.600001 -1.375,0 -2.175,-0.925001 -0.8,-0.9375 -0.8,-2.55 0,-1.6125 0.8125,-2.575 0.825,-0.975 2.1875,-0.975 2.9125,0 2.9125,3.8125 z m -4.8,-0.849999 3.6875,0 q 0,-0.850001 -0.5125,-1.425001 -0.5125,-0.574999 -1.3,-0.574999 -0.7875,0 -1.3,0.549999 -0.5125,0.5375 -0.575,1.450001 z"
         style=""
         id="path4900" />
      <path
         d="m 372.53672,22.026562 q -1.05,0.025 -1.575,0.487501 -0.525,0.462499 -0.525,1.75 l 0,3.399999 -1.05,0 0,-6.55 0.9625,0 0,1.1875 q 0.45,-0.7375 0.8625,-1.05 0.425,-0.325 0.925,-0.325 0.1375,0 0.4,0.0375 l 0,1.0625 z"
         style=""
         id="path4902" />
      <path
         d="m 379.16211,21.114062 0,0.85 -1.075,0 0,4.487501 q 0,0.349999 0.1125,0.474999 0.125,0.1125 0.4625,0.1125 0.3125,0 0.5,-0.05 l 0,0.875 q -0.4875,0.0875 -0.85,0.0875 -0.6125,0 -0.9375,-0.275001 -0.325,-0.2625 -0.325,-0.7625 l 0,-4.95 -0.8875,0 0,-0.85 0.8875,0 0,-1.8 1.0375,0 0,1.8 1.075,0 z"
         style=""
         id="path4904" />
      <path
         d="m 384.31582,23.126562 q 0,-0.6875 -0.425,-0.987499 -0.4125,-0.300001 -0.925,-0.300001 -0.8,0 -1.2875,0.612501 -0.4875,0.599999 -0.4875,1.599999 l 0,3.6125 -1.0375,0 0,-9.112499 1.0375,0 0,3.4625 q 0.4625,-0.600001 0.925,-0.837501 0.475,-0.25 1.175,-0.25 0.95,0 1.5,0.4875 0.5625,0.475001 0.5625,1.3 l 0,4.95 -1.0375,0 0,-4.5375 z"
         style=""
         id="path4906" />
      <path
         d="m 392.38027,24.739062 -4.825,0 q 0.025,1.025001 0.525,1.6375 0.5125,0.6125 1.4,0.6125 1.275,0 1.7125,-1.3125 l 1.05,0 q -0.2,1.075 -0.9375,1.675 -0.7375,0.600001 -1.8625,0.600001 -1.375,0 -2.175,-0.925001 -0.8,-0.9375 -0.8,-2.55 0,-1.6125 0.8125,-2.575 0.825,-0.975 2.1875,-0.975 2.9125,0 2.9125,3.8125 z m -4.8,-0.849999 3.6875,0 q 0,-0.850001 -0.5125,-1.425001 -0.5125,-0.574999 -1.3,-0.574999 -0.7875,0 -1.3,0.549999 -0.5125,0.5375 -0.575,1.450001 z"
         style=""
         id="path4908" />
      <path
         d="m 403.45781,21.226562 q 0,1.162501 -0.7125,1.875 -0.7,0.7 -1.8375,0.7 l -2.8625,0 0,3.8625 -1.1625,0 0,-9.112499 3.7625,0 q 1.35,0 2.075,0.699999 0.7375,0.6875 0.7375,1.975 z m -5.4125,1.55 2.425,0 q 0.8375,0 1.3,-0.425 0.475,-0.425 0.475,-1.175 0,-0.75 -0.475,-1.175 -0.4625,-0.424999 -1.3,-0.424999 l -2.425,0 0,3.199999 z"
         style=""
         id="path4910" />
      <path
         d="m 410.37344,24.739062 -4.825,0 q 0.025,1.025001 0.525,1.6375 0.5125,0.6125 1.4,0.6125 1.275,0 1.7125,-1.3125 l 1.05,0 q -0.2,1.075 -0.9375,1.675 -0.7375,0.600001 -1.8625,0.600001 -1.375,0 -2.175,-0.925001 -0.8,-0.9375 -0.8,-2.55 0,-1.6125 0.8125,-2.575 0.825,-0.975 2.1875,-0.975 2.9125,0 2.9125,3.8125 z m -4.8,-0.849999 3.6875,0 q 0,-0.850001 -0.5125,-1.425001 -0.5125,-0.574999 -1.3,-0.574999 -0.7875,0 -1.3,0.549999 -0.5125,0.5375 -0.575,1.450001 z"
         style=""
         id="path4912" />
      <path
         d="m 417.03848,24.739062 -4.825,0 q 0.025,1.025001 0.525,1.6375 0.5125,0.6125 1.4,0.6125 1.275,0 1.7125,-1.3125 l 1.05,0 q -0.2,1.075 -0.9375,1.675 -0.7375,0.600001 -1.8625,0.600001 -1.375,0 -2.175,-0.925001 -0.8,-0.9375 -0.8,-2.55 0,-1.6125 0.8125,-2.575 0.825,-0.975 2.1875,-0.975 2.9125,0 2.9125,3.8125 z m -4.8,-0.849999 3.6875,0 q 0,-0.850001 -0.5125,-1.425001 -0.5125,-0.574999 -1.3,-0.574999 -0.7875,0 -1.3,0.549999 -0.5125,0.5375 -0.575,1.450001 z"
         style=""
         id="path4914" />
      <path
         d="m 421.31602,22.026562 q -1.05,0.025 -1.575,0.487501 -0.525,0.462499 -0.525,1.75 l 0,3.399999 -1.05,0 0,-6.55 0.9625,0 0,1.1875 q 0.45,-0.7375 0.8625,-1.05 0.425,-0.325 0.925,-0.325 0.1375,0 0.4,0.0375 l 0,1.0625 z"
         style=""
         id="path4916" />
      <path
         d="m 432.26641,21.226562 q 0,1.162501 -0.7125,1.875 -0.7,0.7 -1.8375,0.7 l -2.8625,0 0,3.8625 -1.1625,0 0,-9.112499 3.7625,0 q 1.35,0 2.075,0.699999 0.7375,0.6875 0.7375,1.975 z m -5.4125,1.55 2.425,0 q 0.8375,0 1.3,-0.425 0.475,-0.425 0.475,-1.175 0,-0.75 -0.475,-1.175 -0.4625,-0.424999 -1.3,-0.424999 l -2.425,0 0,3.199999 z"
         style=""
         id="path4918" />
      <path
         d="m 436.79453,22.026562 q -1.05,0.025 -1.575,0.487501 -0.525,0.462499 -0.525,1.75 l 0,3.399999 -1.05,0 0,-6.55 0.9625,0 0,1.1875 q 0.45,-0.7375 0.8625,-1.05 0.425,-0.325 0.925,-0.325 0.1375,0 0.4,0.0375 l 0,1.0625 z"
         style=""
         id="path4920" />
      <path
         d="m 440.36992,20.926562 q 1.4125,0 2.1875,0.9375 0.7875,0.925 0.7875,2.625 0,1.6125 -0.8,2.5375 -0.7875,0.925001 -2.1625,0.925001 -1.4,0 -2.1875,-0.925001 -0.775,-0.9375 -0.775,-2.5875 0,-1.65 0.7875,-2.575 0.7875,-0.9375 2.1625,-0.9375 z m 0.0125,0.962501 q -0.875,0 -1.375,0.6875 -0.5,0.674999 -0.5,1.862499 0,1.1875 0.5,1.875 0.5,0.675 1.375,0.675 0.8625,0 1.3625,-0.675 0.5125,-0.6875 0.5125,-1.8375 0,-1.212499 -0.5,-1.899999 -0.4875,-0.6875 -1.375,-0.6875 z"
         style=""
         id="path4922" />
      <path
         d="m 449.94746,18.551563 0,9.112499 -0.925,0 0,-0.8625 q -0.425,0.6125 -0.925,0.875 -0.4875,0.275001 -1.1625,0.275001 -1.325,0 -2.0875,-0.950001 -0.7625,-0.9625 -0.7625,-2.625 0,-1.5625 0.7625,-2.5 0.775,-0.95 2.05,-0.95 1.35,0 2.0125,1.0125 l 0,-3.387499 1.0375,0 z m -2.875,3.349999 q -0.85,0 -1.375,0.7 -0.525,0.7 -0.525,1.8375 0,1.15 0.525,1.85 0.525,0.6875 1.3875,0.6875 0.825,0 1.325,-0.6875 0.5,-0.6875 0.5,-1.825 0,-1.175 -0.5,-1.8625 -0.5,-0.7 -1.3375,-0.7 z"
         style=""
         id="path4924" />
      <path
         d="m 456.65488,27.664062 -0.9375,0 0,-0.9125 q -0.4625,0.65 -0.9625,0.925 -0.5,0.275001 -1.225,0.275001 -0.95,0 -1.525,-0.487501 -0.5625,-0.4875 -0.5625,-1.3 l 0,-5.05 1.0375,0 0,4.6375 q 0,0.5875 0.3625,0.9375 0.3625,0.35 0.9875,0.35 0.8125,0 1.3,-0.6 0.4875,-0.612499 0.4875,-1.612499 l 0,-3.712501 1.0375,0 0,6.55 z"
         style=""
         id="path4926" />
      <path
         d="m 463.28125,23.314062 -1.05,0 q -0.1,-0.6875 -0.5,-1.049999 -0.4,-0.375 -1.05,-0.375 -0.85,0 -1.3375,0.699999 -0.475,0.6875 -0.475,1.9125 0,1.1625 0.4875,1.825001 0.4875,0.662499 1.35,0.662499 1.3375,0 1.6,-1.575 l 1.05,0 q -0.1,1.2 -0.8,1.875 -0.7,0.662501 -1.875,0.662501 -1.3375,0 -2.125,-0.925001 -0.775,-0.9375 -0.775,-2.525 0,-1.625 0.7875,-2.6 0.8,-0.975 2.125,-0.975 1.1375,0 1.8125,0.6125 0.6875,0.6125 0.775,1.775 z"
         style=""
         id="path4928" />
      <path
         d="m 466.97949,21.114062 0,0.85 -1.075,0 0,4.487501 q 0,0.349999 0.1125,0.474999 0.125,0.1125 0.4625,0.1125 0.3125,0 0.5,-0.05 l 0,0.875 q -0.4875,0.0875 -0.85,0.0875 -0.6125,0 -0.9375,-0.275001 -0.325,-0.2625 -0.325,-0.7625 l 0,-4.95 -0.8875,0 0,-0.85 0.8875,0 0,-1.8 1.0375,0 0,1.8 1.075,0 z"
         style=""
         id="path4930" />
      <path
         d="m 469.0957,21.114062 0,6.55 -1.0375,0 0,-6.55 1.0375,0 z m 0,-2.562499 0,1.312499 -1.05,0 0,-1.312499 1.05,0 z"
         style=""
         id="path4932" />
      <path
         d="m 473.32891,20.926562 q 1.4125,0 2.1875,0.9375 0.7875,0.925 0.7875,2.625 0,1.6125 -0.8,2.5375 -0.7875,0.925001 -2.1625,0.925001 -1.4,0 -2.1875,-0.925001 -0.775,-0.9375 -0.775,-2.5875 0,-1.65 0.7875,-2.575 0.7875,-0.9375 2.1625,-0.9375 z m 0.0125,0.962501 q -0.875,0 -1.375,0.6875 -0.5,0.674999 -0.5,1.862499 0,1.1875 0.5,1.875 0.5,0.675 1.375,0.675 0.8625,0 1.3625,-0.675 0.5125,-0.6875 0.5125,-1.8375 0,-1.212499 -0.5,-1.899999 -0.4875,-0.6875 -1.375,-0.6875 z"
         style=""
         id="path4934" />
      <path
         d="m 477.41895,21.114062 0.9625,0 0,1.1 q 0.4375,-0.6875 0.9375,-0.9875 0.5125,-0.3 1.2375,-0.3 0.95,0 1.5125,0.4875 0.5625,0.4875 0.5625,1.3 l 0,4.95 -1.0375,0 0,-4.5375 q 0,-0.5875 -0.3625,-0.9375 -0.3625,-0.35 -0.9875,-0.35 -0.8,0 -1.2875,0.612501 -0.4875,0.599999 -0.4875,1.599999 l 0,3.6125 -1.05,0 0,-6.55 z"
         style=""
         id="path4936" />
      <path
         d="m 488.67031,18.551563 0,8.0875 4.5,0 0,1.024999 -5.6625,0 0,-9.112499 1.1625,0 z"
         style=""
         id="path4938" />
      <path
         d="m 495.41406,21.114062 0,6.55 -1.0375,0 0,-6.55 1.0375,0 z m 0,-2.562499 0,1.312499 -1.05,0 0,-1.312499 1.05,0 z"
         style=""
         id="path4940" />
      <path
         d="m 502.19727,23.314062 -1.05,0 q -0.1,-0.6875 -0.5,-1.049999 -0.4,-0.375 -1.05,-0.375 -0.85,0 -1.3375,0.699999 -0.475,0.6875 -0.475,1.9125 0,1.1625 0.4875,1.825001 0.4875,0.662499 1.35,0.662499 1.3375,0 1.6,-1.575 l 1.05,0 q -0.1,1.2 -0.8,1.875 -0.7,0.662501 -1.875,0.662501 -1.3375,0 -2.125,-0.925001 -0.775,-0.9375 -0.775,-2.525 0,-1.625 0.7875,-2.6 0.8,-0.975 2.125,-0.975 1.1375,0 1.8125,0.6125 0.6875,0.6125 0.775,1.775 z"
         style=""
         id="path4942" />
      <path
         d="m 508.93301,24.739062 -4.825,0 q 0.025,1.025001 0.525,1.6375 0.5125,0.6125 1.4,0.6125 1.275,0 1.7125,-1.3125 l 1.05,0 q -0.2,1.075 -0.9375,1.675 -0.7375,0.600001 -1.8625,0.600001 -1.375,0 -2.175,-0.925001 -0.8,-0.9375 -0.8,-2.55 0,-1.6125 0.8125,-2.575 0.825,-0.975 2.1875,-0.975 2.9125,0 2.9125,3.8125 z m -4.8,-0.849999 3.6875,0 q 0,-0.850001 -0.5125,-1.425001 -0.5125,-0.574999 -1.3,-0.574999 -0.7875,0 -1.3,0.549999 -0.5125,0.5375 -0.575,1.450001 z"
         style=""
         id="path4944" />
      <path
         d="m 510.06055,21.114062 0.9625,0 0,1.1 q 0.4375,-0.6875 0.9375,-0.9875 0.5125,-0.3 1.2375,-0.3 0.95,0 1.5125,0.4875 0.5625,0.4875 0.5625,1.3 l 0,4.95 -1.0375,0 0,-4.5375 q 0,-0.5875 -0.3625,-0.9375 -0.3625,-0.35 -0.9875,-0.35 -0.8,0 -1.2875,0.612501 -0.4875,0.599999 -0.4875,1.599999 l 0,3.6125 -1.05,0 0,-6.55 z"
         style=""
         id="path4946" />
      <path
         d="m 517.54941,25.714062 q 0.075,0.5875 0.4,0.9375 0.3375,0.3375 1.2,0.3375 0.6875,0 1.1,-0.275 0.425,-0.2875 0.425,-0.75 0,-0.3625 -0.2375,-0.574999 -0.2375,-0.212501 -0.775,-0.337501 l -0.975,-0.2375 q -1.1625,-0.275 -1.625,-0.6875 -0.45,-0.424999 -0.45,-1.2 0,-0.912499 0.6875,-1.45 0.6875,-0.55 1.825,-0.55 1.1375,0 1.75,0.525001 0.6125,0.524999 0.625,1.487499 l -1.1,0 q -0.0375,-1.049999 -1.3125,-1.049999 -0.6375,0 -1.0125,0.274999 -0.375,0.2625 -0.375,0.7125 0,0.35 0.2875,0.575001 0.2875,0.212499 0.925,0.362499 l 1,0.2375 q 0.975,0.2375 1.4125,0.675 0.4375,0.425 0.4375,1.15 0,0.950001 -0.7375,1.512501 -0.725,0.5625 -1.9625,0.5625 -2.5375,0 -2.6125,-2.237501 l 1.1,0 z"
         style=""
         id="path4948" />
      <path
         d="m 528.46426,24.739062 -4.825,0 q 0.025,1.025001 0.525,1.6375 0.5125,0.6125 1.4,0.6125 1.275,0 1.7125,-1.3125 l 1.05,0 q -0.2,1.075 -0.9375,1.675 -0.7375,0.600001 -1.8625,0.600001 -1.375,0 -2.175,-0.925001 -0.8,-0.9375 -0.8,-2.55 0,-1.6125 0.8125,-2.575 0.825,-0.975 2.1875,-0.975 2.9125,0 2.9125,3.8125 z m -4.8,-0.849999 3.6875,0 q 0,-0.850001 -0.5125,-1.425001 -0.5125,-0.574999 -1.3,-0.574999 -0.7875,0 -1.3,0.549999 -0.5125,0.5375 -0.575,1.450001 z"
         style=""
         id="path4950" />
      <path
         d="m 531.1418,26.364062 0,1.3 -1.3,0 0,-1.3 1.3,0 z"
         style=""
         id="path4952" />
      <path
         d="m 19.596875,34.176563 0,9.112499 -1.175,0 0,-9.112499 1.175,0 z"
         style=""
         id="path4954" />
      <path
         d="m 23.888672,36.739063 0,0.849999 -1.075,0 0,4.487501 q 0,0.35 0.1125,0.475 0.125,0.112499 0.4625,0.112499 0.3125,0 0.5,-0.05 l 0,0.875 q -0.4875,0.0875 -0.85,0.0875 -0.6125,0 -0.9375,-0.275 -0.325,-0.262501 -0.325,-0.762501 l 0,-4.95 -0.8875,0 0,-0.849999 0.8875,0 0,-1.800001 1.0375,0 0,1.800001 1.075,0 z"
         style=""
         id="path4956" />
      <path
         d="m 29.129883,36.739063 0,6.549999 -1.0375,0 0,-6.549999 1.0375,0 z m 0,-2.5625 0,1.3125 -1.05,0 0,-1.3125 1.05,0 z"
         style=""
         id="path4958" />
      <path
         d="m 31.563086,41.339062 q 0.075,0.587501 0.4,0.9375 0.3375,0.337501 1.2,0.337501 0.6875,0 1.1,-0.275001 0.425,-0.287499 0.425,-0.75 0,-0.3625 -0.2375,-0.574999 -0.2375,-0.2125 -0.775,-0.3375 l -0.975,-0.237501 q -1.1625,-0.275 -1.625,-0.6875 -0.45,-0.424999 -0.45,-1.199999 0,-0.9125 0.6875,-1.450001 0.6875,-0.549999 1.825,-0.549999 1.1375,0 1.75,0.525 0.6125,0.524999 0.625,1.487499 l -1.1,0 q -0.0375,-1.049999 -1.3125,-1.049999 -0.6375,0 -1.0125,0.274999 -0.375,0.262501 -0.375,0.7125 0,0.35 0.2875,0.575001 0.2875,0.212499 0.925,0.362499 l 1,0.237501 q 0.975,0.237499 1.4125,0.674999 0.4375,0.425 0.4375,1.15 0,0.950001 -0.7375,1.512501 -0.725,0.5625 -1.9625,0.5625 -2.5375,0 -2.6125,-2.237501 l 1.1,0 z"
         style=""
         id="path4960" />
      <path
         d="m 42.56543,36.739063 0,0.849999 -1.0875,0 0,5.7 -1.0375,0 0,-5.7 -0.875,0 0,-0.849999 0.875,0 0,-1.112501 q 0,-0.699999 0.4,-1.0875 0.4125,-0.399999 1.1375,-0.399999 0.2875,0 0.5875,0.0625 l 0,0.862499 q -0.2375,-0.0125 -0.3625,-0.0125 -0.725,0 -0.725,0.662499 l 0,1.025001 1.0875,0 z"
         style=""
         id="path4962" />
      <path
         d="m 46.706641,37.651562 q -1.05,0.025 -1.575,0.487501 -0.525,0.462499 -0.525,1.75 l 0,3.399999 -1.05,0 0,-6.549999 0.9625,0 0,1.1875 q 0.45,-0.737501 0.8625,-1.050001 0.425,-0.324999 0.925,-0.324999 0.1375,0 0.4,0.0375 l 0,1.0625 z"
         style=""
         id="path4964" />
      <path
         d="m 53.244531,40.364063 -4.825,0 q 0.025,1.025 0.525,1.637499 0.5125,0.612501 1.4,0.612501 1.275,0 1.7125,-1.3125 l 1.05,0 q -0.2,1.074999 -0.9375,1.674999 -0.7375,0.600001 -1.8625,0.600001 -1.375,0 -2.175,-0.925001 -0.8,-0.9375 -0.8,-2.55 0,-1.612499 0.8125,-2.575 0.825,-0.974999 2.1875,-0.974999 2.9125,0 2.9125,3.8125 z m -4.8,-0.85 3.6875,0 q 0,-0.850001 -0.5125,-1.425001 -0.5125,-0.574999 -1.3,-0.574999 -0.7875,0 -1.3,0.549999 -0.5125,0.5375 -0.575,1.450001 z"
         style=""
         id="path4966" />
      <path
         d="m 59.90957,40.364063 -4.825,0 q 0.025,1.025 0.525,1.637499 0.5125,0.612501 1.4,0.612501 1.275,0 1.7125,-1.3125 l 1.05,0 q -0.2,1.074999 -0.9375,1.674999 -0.7375,0.600001 -1.8625,0.600001 -1.375,0 -2.175,-0.925001 -0.8,-0.9375 -0.8,-2.55 0,-1.612499 0.8125,-2.575 0.825,-0.974999 2.1875,-0.974999 2.9125,0 2.9125,3.8125 z m -4.8,-0.85 3.6875,0 q 0,-0.850001 -0.5125,-1.425001 -0.5125,-0.574999 -1.3,-0.574999 -0.7875,0 -1.3,0.549999 -0.5125,0.5375 -0.575,1.450001 z"
         style=""
         id="path4968" />
      <path
         d="m 66.662109,36.739063 0,0.849999 -1.075,0 0,4.487501 q 0,0.35 0.1125,0.475 0.125,0.112499 0.4625,0.112499 0.3125,0 0.5,-0.05 l 0,0.875 q -0.4875,0.0875 -0.85,0.0875 -0.6125,0 -0.9375,-0.275 -0.325,-0.262501 -0.325,-0.762501 l 0,-4.95 -0.8875,0 0,-0.849999 0.8875,0 0,-1.800001 1.0375,0 0,1.800001 1.075,0 z"
         style=""
         id="path4970" />
      <path
         d="m 70.22832,36.551563 q 1.4125,0 2.1875,0.9375 0.7875,0.924999 0.7875,2.625 0,1.612499 -0.8,2.537499 -0.7875,0.925001 -2.1625,0.925001 -1.4,0 -2.1875,-0.925001 -0.775,-0.9375 -0.775,-2.5875 0,-1.65 0.7875,-2.574999 0.7875,-0.9375 2.1625,-0.9375 z m 0.0125,0.9625 q -0.875,0 -1.375,0.6875 -0.5,0.674999 -0.5,1.862499 0,1.1875 0.5,1.875 0.5,0.675001 1.375,0.675001 0.8625,0 1.3625,-0.675001 0.5125,-0.6875 0.5125,-1.8375 0,-1.212499 -0.5,-1.899999 -0.4875,-0.6875 -1.375,-0.6875 z"
         style=""
         id="path4972" />
      <path
         d="m 79.943359,36.739063 0,0.849999 -1.075,0 0,4.487501 q 0,0.35 0.1125,0.475 0.125,0.112499 0.4625,0.112499 0.3125,0 0.5,-0.05 l 0,0.875 q -0.4875,0.0875 -0.85,0.0875 -0.6125,0 -0.9375,-0.275 -0.325,-0.262501 -0.325,-0.762501 l 0,-4.95 -0.8875,0 0,-0.849999 0.8875,0 0,-1.800001 1.0375,0 0,1.800001 1.075,0 z"
         style=""
         id="path4974" />
      <path
         d="m 80.84707,38.676563 q 0.075,-2.125 2.625,-2.125 1.2125,0 1.8375,0.4625 0.625,0.449999 0.625,1.324999 l 0,3.85 q 0,0.512501 0.5625,0.512501 0.1125,0 0.225,-0.025 l 0,0.787499 q -0.4375,0.112501 -0.7125,0.112501 -0.5,0 -0.7625,-0.237501 -0.25,-0.224999 -0.3125,-0.724999 -1.05,0.9625 -2.225,0.9625 -0.9875,0 -1.575,-0.525 -0.575,-0.525001 -0.575,-1.4125 0,-0.287501 0.05,-0.525 0.0625,-0.237501 0.125,-0.4125 0.075,-0.1875 0.25,-0.3375 0.175,-0.1625 0.2875,-0.262501 0.125,-0.1 0.4,-0.1875 0.2875,-0.1 0.4375,-0.1375 0.15,-0.05 0.525,-0.1125 0.375,-0.0625 0.55,-0.0875 0.175,-0.025 0.625,-0.0875 0.6125,-0.075 0.85,-0.237501 0.2375,-0.1625 0.2375,-0.487499 l 0,-0.275 q 0,-0.475 -0.3875,-0.725 -0.375,-0.25 -1.075,-0.25 -0.725,0 -1.1,0.2875 -0.375,0.275 -0.4375,0.875 l -1.05,0 z m 2.0875,3.987499 q 0.8625,0 1.4125,-0.45 0.55,-0.4625 0.55,-0.9875 l 0,-1.174999 q -0.3125,0.15 -0.95,0.25 -0.625,0.1 -1.0875,0.174999 -0.4625,0.075 -0.8375,0.3625 -0.375,0.275001 -0.375,0.775001 0,0.5 0.3375,0.775 0.3375,0.274999 0.95,0.274999 z"
         style=""
         id="path4976" />
      <path
         d="m 88.75918,34.176563 0,5.3375 2.775,-2.775 1.3375,0 -2.275,2.262499 2.675,4.2875 -1.2875,0 -2.2125,-3.549999 -1.0125,1 0,2.549999 -1.0375,0 0,-9.112499 1.0375,0 z"
         style=""
         id="path4978" />
      <path
         d="m 99.680078,40.364063 -4.825,0 q 0.025,1.025 0.525,1.637499 0.5125,0.612501 1.4,0.612501 1.275,0 1.7125,-1.3125 l 1.05,0 q -0.2,1.074999 -0.9375,1.674999 -0.7375,0.600001 -1.8625,0.600001 -1.375,0 -2.175,-0.925001 -0.8,-0.9375 -0.8,-2.55 0,-1.612499 0.8125,-2.575 0.825,-0.974999 2.1875,-0.974999 2.9125,0 2.9125,3.8125 z m -4.8,-0.85 3.6875,0 q 0,-0.850001 -0.5125,-1.425001 -0.5125,-0.574999 -1.3,-0.574999 -0.7875,0 -1.3,0.549999 -0.5125,0.5375 -0.575,1.450001 z"
         style=""
         id="path4980" />
      <path
         d="m 103.84512,38.676563 q 0.075,-2.125 2.625,-2.125 1.2125,0 1.8375,0.4625 0.625,0.449999 0.625,1.324999 l 0,3.85 q 0,0.512501 0.5625,0.512501 0.1125,0 0.225,-0.025 l 0,0.787499 q -0.4375,0.112501 -0.7125,0.112501 -0.5,0 -0.7625,-0.237501 -0.25,-0.224999 -0.3125,-0.724999 -1.05,0.9625 -2.225,0.9625 -0.9875,0 -1.575,-0.525 -0.575,-0.525001 -0.575,-1.4125 0,-0.287501 0.05,-0.525 0.0625,-0.237501 0.125,-0.4125 0.075,-0.1875 0.25,-0.3375 0.175,-0.1625 0.2875,-0.262501 0.125,-0.1 0.4,-0.1875 0.2875,-0.1 0.4375,-0.1375 0.15,-0.05 0.525,-0.1125 0.375,-0.0625 0.55,-0.0875 0.175,-0.025 0.625,-0.0875 0.6125,-0.075 0.85,-0.237501 0.2375,-0.1625 0.2375,-0.487499 l 0,-0.275 q 0,-0.475 -0.3875,-0.725 -0.375,-0.25 -1.075,-0.25 -0.725,0 -1.1,0.2875 -0.375,0.275 -0.4375,0.875 l -1.05,0 z m 2.0875,3.987499 q 0.8625,0 1.4125,-0.45 0.55,-0.4625 0.55,-0.9875 l 0,-1.174999 q -0.3125,0.15 -0.95,0.25 -0.625,0.1 -1.0875,0.174999 -0.4625,0.075 -0.8375,0.3625 -0.375,0.275001 -0.375,0.775001 0,0.5 0.3375,0.775 0.3375,0.274999 0.95,0.274999 z"
         style=""
         id="path4982" />
      <path
         d="m 110.71973,36.739063 0.9625,0 0,1.099999 q 0.4375,-0.6875 0.9375,-0.9875 0.5125,-0.299999 1.2375,-0.299999 0.95,0 1.5125,0.487499 0.5625,0.4875 0.5625,1.3 l 0,4.95 -1.0375,0 0,-4.5375 q 0,-0.5875 -0.3625,-0.9375 -0.3625,-0.35 -0.9875,-0.35 -0.8,0 -1.2875,0.612501 -0.4875,0.6 -0.4875,1.6 l 0,3.612499 -1.05,0 0,-6.549999 z"
         style=""
         id="path4984" />
      <path
         d="m 122.92109,34.176563 0,9.112499 -0.925,0 0,-0.862499 q -0.425,0.612499 -0.925,0.875 -0.4875,0.275 -1.1625,0.275 -1.325,0 -2.0875,-0.950001 -0.7625,-0.9625 -0.7625,-2.625 0,-1.5625 0.7625,-2.5 0.775,-0.949999 2.05,-0.949999 1.35,0 2.0125,1.012499 l 0,-3.387499 1.0375,0 z m -2.875,3.349999 q -0.85,0 -1.375,0.7 -0.525,0.700001 -0.525,1.8375 0,1.15 0.525,1.85 0.525,0.6875 1.3875,0.6875 0.825,0 1.325,-0.6875 0.5,-0.6875 0.5,-1.825 0,-1.175 -0.5,-1.8625 -0.5,-0.7 -1.3375,-0.7 z"
         style=""
         id="path4986" />
      <path
         d="m 130.69102,37.651562 q -1.05,0.025 -1.575,0.487501 -0.525,0.462499 -0.525,1.75 l 0,3.399999 -1.05,0 0,-6.549999 0.9625,0 0,1.1875 q 0.45,-0.737501 0.8625,-1.050001 0.425,-0.324999 0.925,-0.324999 0.1375,0 0.4,0.0375 l 0,1.0625 z"
         style=""
         id="path4988" />
      <path
         d="m 137.22891,40.364063 -4.825,0 q 0.025,1.025 0.525,1.637499 0.5125,0.612501 1.4,0.612501 1.275,0 1.7125,-1.3125 l 1.05,0 q -0.2,1.074999 -0.9375,1.674999 -0.7375,0.600001 -1.8625,0.600001 -1.375,0 -2.175,-0.925001 -0.8,-0.9375 -0.8,-2.55 0,-1.612499 0.8125,-2.575 0.825,-0.974999 2.1875,-0.974999 2.9125,0 2.9125,3.8125 z m -4.8,-0.85 3.6875,0 q 0,-0.850001 -0.5125,-1.425001 -0.5125,-0.574999 -1.3,-0.574999 -0.7875,0 -1.3,0.549999 -0.5125,0.5375 -0.575,1.450001 z"
         style=""
         id="path4990" />
      <path
         d="m 143.56895,43.289062 -0.9375,0 0,-0.9125 q -0.4625,0.65 -0.9625,0.925001 -0.5,0.275 -1.225,0.275 -0.95,0 -1.525,-0.487501 -0.5625,-0.4875 -0.5625,-1.3 l 0,-5.049999 1.0375,0 0,4.637499 q 0,0.5875 0.3625,0.9375 0.3625,0.35 0.9875,0.35 0.8125,0 1.3,-0.6 0.4875,-0.612499 0.4875,-1.612499 l 0,-3.7125 1.0375,0 0,6.549999 z"
         style=""
         id="path4992" />
      <path
         d="m 145.84531,41.339062 q 0.075,0.587501 0.4,0.9375 0.3375,0.337501 1.2,0.337501 0.6875,0 1.1,-0.275001 0.425,-0.287499 0.425,-0.75 0,-0.3625 -0.2375,-0.574999 -0.2375,-0.2125 -0.775,-0.3375 l -0.975,-0.237501 q -1.1625,-0.275 -1.625,-0.6875 -0.45,-0.424999 -0.45,-1.199999 0,-0.9125 0.6875,-1.450001 0.6875,-0.549999 1.825,-0.549999 1.1375,0 1.75,0.525 0.6125,0.524999 0.625,1.487499 l -1.1,0 q -0.0375,-1.049999 -1.3125,-1.049999 -0.6375,0 -1.0125,0.274999 -0.375,0.262501 -0.375,0.7125 0,0.35 0.2875,0.575001 0.2875,0.212499 0.925,0.362499 l 1,0.237501 q 0.975,0.237499 1.4125,0.674999 0.4375,0.425 0.4375,1.15 0,0.950001 -0.7375,1.512501 -0.725,0.5625 -1.9625,0.5625 -2.5375,0 -2.6125,-2.237501 l 1.1,0 z"
         style=""
         id="path4994" />
      <path
         d="m 156.76016,40.364063 -4.825,0 q 0.025,1.025 0.525,1.637499 0.5125,0.612501 1.4,0.612501 1.275,0 1.7125,-1.3125 l 1.05,0 q -0.2,1.074999 -0.9375,1.674999 -0.7375,0.600001 -1.8625,0.600001 -1.375,0 -2.175,-0.925001 -0.8,-0.9375 -0.8,-2.55 0,-1.612499 0.8125,-2.575 0.825,-0.974999 2.1875,-0.974999 2.9125,0 2.9125,3.8125 z m -4.8,-0.85 3.6875,0 q 0,-0.850001 -0.5125,-1.425001 -0.5125,-0.574999 -1.3,-0.574999 -0.7875,0 -1.3,0.549999 -0.5125,0.5375 -0.575,1.450001 z"
         style=""
         id="path4996" />
      <path
         d="m 166.2252,43.289062 -0.9375,0 0,-0.9125 q -0.4625,0.65 -0.9625,0.925001 -0.5,0.275 -1.225,0.275 -0.95,0 -1.525,-0.487501 -0.5625,-0.4875 -0.5625,-1.3 l 0,-5.049999 1.0375,0 0,4.637499 q 0,0.5875 0.3625,0.9375 0.3625,0.35 0.9875,0.35 0.8125,0 1.3,-0.6 0.4875,-0.612499 0.4875,-1.612499 l 0,-3.7125 1.0375,0 0,6.549999 z"
         style=""
         id="path4998" />
      <path
         d="m 167.72656,36.739063 0.9625,0 0,1.099999 q 0.4375,-0.6875 0.9375,-0.9875 0.5125,-0.299999 1.2375,-0.299999 0.95,0 1.5125,0.487499 0.5625,0.4875 0.5625,1.3 l 0,4.95 -1.0375,0 0,-4.5375 q 0,-0.5875 -0.3625,-0.9375 -0.3625,-0.35 -0.9875,-0.35 -0.8,0 -1.2875,0.612501 -0.4875,0.6 -0.4875,1.6 l 0,3.612499 -1.05,0 0,-6.549999 z"
         style=""
         id="path5000" />
      <path
         d="m 179.92793,34.176563 0,9.112499 -0.925,0 0,-0.862499 q -0.425,0.612499 -0.925,0.875 -0.4875,0.275 -1.1625,0.275 -1.325,0 -2.0875,-0.950001 -0.7625,-0.9625 -0.7625,-2.625 0,-1.5625 0.7625,-2.5 0.775,-0.949999 2.05,-0.949999 1.35,0 2.0125,1.012499 l 0,-3.387499 1.0375,0 z m -2.875,3.349999 q -0.85,0 -1.375,0.7 -0.525,0.700001 -0.525,1.8375 0,1.15 0.525,1.85 0.525,0.6875 1.3875,0.6875 0.825,0 1.325,-0.6875 0.5,-0.6875 0.5,-1.825 0,-1.175 -0.5,-1.8625 -0.5,-0.7 -1.3375,-0.7 z"
         style=""
         id="path5002" />
      <path
         d="m 186.96035,40.364063 -4.825,0 q 0.025,1.025 0.525,1.637499 0.5125,0.612501 1.4,0.612501 1.275,0 1.7125,-1.3125 l 1.05,0 q -0.2,1.074999 -0.9375,1.674999 -0.7375,0.600001 -1.8625,0.600001 -1.375,0 -2.175,-0.925001 -0.8,-0.9375 -0.8,-2.55 0,-1.612499 0.8125,-2.575 0.825,-0.974999 2.1875,-0.974999 2.9125,0 2.9125,3.8125 z m -4.8,-0.85 3.6875,0 q 0,-0.850001 -0.5125,-1.425001 -0.5125,-0.574999 -1.3,-0.574999 -0.7875,0 -1.3,0.549999 -0.5125,0.5375 -0.575,1.450001 z"
         style=""
         id="path5004" />
      <path
         d="m 191.23789,37.651562 q -1.05,0.025 -1.575,0.487501 -0.525,0.462499 -0.525,1.75 l 0,3.399999 -1.05,0 0,-6.549999 0.9625,0 0,1.1875 q 0.45,-0.737501 0.8625,-1.050001 0.425,-0.324999 0.925,-0.324999 0.1375,0 0.4,0.0375 l 0,1.0625 z"
         style=""
         id="path5006" />
      <path
         d="m 200.48828,38.939062 -1.05,0 q -0.1,-0.6875 -0.5,-1.049999 -0.4,-0.375 -1.05,-0.375 -0.85,0 -1.3375,0.699999 -0.475,0.6875 -0.475,1.9125 0,1.1625 0.4875,1.825001 0.4875,0.6625 1.35,0.6625 1.3375,0 1.6,-1.575001 l 1.05,0 q -0.1,1.200001 -0.8,1.875 -0.7,0.662501 -1.875,0.662501 -1.3375,0 -2.125,-0.925001 -0.775,-0.9375 -0.775,-2.525 0,-1.625 0.7875,-2.6 0.8,-0.974999 2.125,-0.974999 1.1375,0 1.8125,0.612499 0.6875,0.6125 0.775,1.775 z"
         style=""
         id="path5008" />
      <path
         d="m 207.22402,40.364063 -4.825,0 q 0.025,1.025 0.525,1.637499 0.5125,0.612501 1.4,0.612501 1.275,0 1.7125,-1.3125 l 1.05,0 q -0.2,1.074999 -0.9375,1.674999 -0.7375,0.600001 -1.8625,0.600001 -1.375,0 -2.175,-0.925001 -0.8,-0.9375 -0.8,-2.55 0,-1.612499 0.8125,-2.575 0.825,-0.974999 2.1875,-0.974999 2.9125,0 2.9125,3.8125 z m -4.8,-0.85 3.6875,0 q 0,-0.850001 -0.5125,-1.425001 -0.5125,-0.574999 -1.3,-0.574999 -0.7875,0 -1.3,0.549999 -0.5125,0.5375 -0.575,1.450001 z"
         style=""
         id="path5010" />
      <path
         d="m 211.50156,37.651562 q -1.05,0.025 -1.575,0.487501 -0.525,0.462499 -0.525,1.75 l 0,3.399999 -1.05,0 0,-6.549999 0.9625,0 0,1.1875 q 0.45,-0.737501 0.8625,-1.050001 0.425,-0.324999 0.925,-0.324999 0.1375,0 0.4,0.0375 l 0,1.0625 z"
         style=""
         id="path5012" />
      <path
         d="m 215.00195,36.739063 0,0.849999 -1.075,0 0,4.487501 q 0,0.35 0.1125,0.475 0.125,0.112499 0.4625,0.112499 0.3125,0 0.5,-0.05 l 0,0.875 q -0.4875,0.0875 -0.85,0.0875 -0.6125,0 -0.9375,-0.275 -0.325,-0.262501 -0.325,-0.762501 l 0,-4.95 -0.8875,0 0,-0.849999 0.8875,0 0,-1.800001 1.0375,0 0,1.800001 1.075,0 z"
         style=""
         id="path5014" />
      <path
         d="m 215.90566,38.676563 q 0.075,-2.125 2.625,-2.125 1.2125,0 1.8375,0.4625 0.625,0.449999 0.625,1.324999 l 0,3.85 q 0,0.512501 0.5625,0.512501 0.1125,0 0.225,-0.025 l 0,0.787499 q -0.4375,0.112501 -0.7125,0.112501 -0.5,0 -0.7625,-0.237501 -0.25,-0.224999 -0.3125,-0.724999 -1.05,0.9625 -2.225,0.9625 -0.9875,0 -1.575,-0.525 -0.575,-0.525001 -0.575,-1.4125 0,-0.287501 0.05,-0.525 0.0625,-0.237501 0.125,-0.4125 0.075,-0.1875 0.25,-0.3375 0.175,-0.1625 0.2875,-0.262501 0.125,-0.1 0.4,-0.1875 0.2875,-0.1 0.4375,-0.1375 0.15,-0.05 0.525,-0.1125 0.375,-0.0625 0.55,-0.0875 0.175,-0.025 0.625,-0.0875 0.6125,-0.075 0.85,-0.237501 0.2375,-0.1625 0.2375,-0.487499 l 0,-0.275 q 0,-0.475 -0.3875,-0.725 -0.375,-0.25 -1.075,-0.25 -0.725,0 -1.1,0.2875 -0.375,0.275 -0.4375,0.875 l -1.05,0 z m 2.0875,3.987499 q 0.8625,0 1.4125,-0.45 0.55,-0.4625 0.55,-0.9875 l 0,-1.174999 q -0.3125,0.15 -0.95,0.25 -0.625,0.1 -1.0875,0.174999 -0.4625,0.075 -0.8375,0.3625 -0.375,0.275001 -0.375,0.775001 0,0.5 0.3375,0.775 0.3375,0.274999 0.95,0.274999 z"
         style=""
         id="path5016" />
      <path
         d="m 223.90527,36.739063 0,6.549999 -1.0375,0 0,-6.549999 1.0375,0 z m 0,-2.5625 0,1.3125 -1.05,0 0,-1.3125 1.05,0 z"
         style=""
         id="path5018" />
      <path
         d="m 225.56348,36.739063 0.9625,0 0,1.099999 q 0.4375,-0.6875 0.9375,-0.9875 0.5125,-0.299999 1.2375,-0.299999 0.95,0 1.5125,0.487499 0.5625,0.4875 0.5625,1.3 l 0,4.95 -1.0375,0 0,-4.5375 q 0,-0.5875 -0.3625,-0.9375 -0.3625,-0.35 -0.9875,-0.35 -0.8,0 -1.2875,0.612501 -0.4875,0.6 -0.4875,1.6 l 0,3.612499 -1.05,0 0,-6.549999 z"
         style=""
         id="path5020" />
      <path
         d="m 240.52734,38.939062 -1.05,0 q -0.1,-0.6875 -0.5,-1.049999 -0.4,-0.375 -1.05,-0.375 -0.85,0 -1.3375,0.699999 -0.475,0.6875 -0.475,1.9125 0,1.1625 0.4875,1.825001 0.4875,0.6625 1.35,0.6625 1.3375,0 1.6,-1.575001 l 1.05,0 q -0.1,1.200001 -0.8,1.875 -0.7,0.662501 -1.875,0.662501 -1.3375,0 -2.125,-0.925001 -0.775,-0.9375 -0.775,-2.525 0,-1.625 0.7875,-2.6 0.8,-0.974999 2.125,-0.974999 1.1375,0 1.8125,0.612499 0.6875,0.6125 0.775,1.775 z"
         style=""
         id="path5022" />
      <path
         d="m 244.30059,36.551563 q 1.4125,0 2.1875,0.9375 0.7875,0.924999 0.7875,2.625 0,1.612499 -0.8,2.537499 -0.7875,0.925001 -2.1625,0.925001 -1.4,0 -2.1875,-0.925001 -0.775,-0.9375 -0.775,-2.5875 0,-1.65 0.7875,-2.574999 0.7875,-0.9375 2.1625,-0.9375 z m 0.0125,0.9625 q -0.875,0 -1.375,0.6875 -0.5,0.674999 -0.5,1.862499 0,1.1875 0.5,1.875 0.5,0.675001 1.375,0.675001 0.8625,0 1.3625,-0.675001 0.5125,-0.6875 0.5125,-1.8375 0,-1.212499 -0.5,-1.899999 -0.4875,-0.6875 -1.375,-0.6875 z"
         style=""
         id="path5024" />
      <path
         d="m 248.39062,36.739063 0.9625,0 0,1.099999 q 0.4375,-0.6875 0.9375,-0.9875 0.5125,-0.299999 1.2375,-0.299999 0.95,0 1.5125,0.487499 0.5625,0.4875 0.5625,1.3 l 0,4.95 -1.0375,0 0,-4.5375 q 0,-0.5875 -0.3625,-0.9375 -0.3625,-0.35 -0.9875,-0.35 -0.8,0 -1.2875,0.612501 -0.4875,0.6 -0.4875,1.6 l 0,3.612499 -1.05,0 0,-6.549999 z"
         style=""
         id="path5026" />
      <path
         d="m 260.59199,34.176563 0,9.112499 -0.925,0 0,-0.862499 q -0.425,0.612499 -0.925,0.875 -0.4875,0.275 -1.1625,0.275 -1.325,0 -2.0875,-0.950001 -0.7625,-0.9625 -0.7625,-2.625 0,-1.5625 0.7625,-2.5 0.775,-0.949999 2.05,-0.949999 1.35,0 2.0125,1.012499 l 0,-3.387499 1.0375,0 z m -2.875,3.349999 q -0.85,0 -1.375,0.7 -0.525,0.700001 -0.525,1.8375 0,1.15 0.525,1.85 0.525,0.6875 1.3875,0.6875 0.825,0 1.325,-0.6875 0.5,-0.6875 0.5,-1.825 0,-1.175 -0.5,-1.8625 -0.5,-0.7 -1.3375,-0.7 z"
         style=""
         id="path5028" />
      <path
         d="m 263.21191,36.739063 0,6.549999 -1.0375,0 0,-6.549999 1.0375,0 z m 0,-2.5625 0,1.3125 -1.05,0 0,-1.3125 1.05,0 z"
         style=""
         id="path5030" />
      <path
         d="m 267.37012,36.739063 0,0.849999 -1.075,0 0,4.487501 q 0,0.35 0.1125,0.475 0.125,0.112499 0.4625,0.112499 0.3125,0 0.5,-0.05 l 0,0.875 q -0.4875,0.0875 -0.85,0.0875 -0.6125,0 -0.9375,-0.275 -0.325,-0.262501 -0.325,-0.762501 l 0,-4.95 -0.8875,0 0,-0.849999 0.8875,0 0,-1.800001 1.0375,0 0,1.800001 1.075,0 z"
         style=""
         id="path5032" />
      <path
         d="m 269.48633,36.739063 0,6.549999 -1.0375,0 0,-6.549999 1.0375,0 z m 0,-2.5625 0,1.3125 -1.05,0 0,-1.3125 1.05,0 z"
         style=""
         id="path5034" />
      <path
         d="m 273.71953,36.551563 q 1.4125,0 2.1875,0.9375 0.7875,0.924999 0.7875,2.625 0,1.612499 -0.8,2.537499 -0.7875,0.925001 -2.1625,0.925001 -1.4,0 -2.1875,-0.925001 -0.775,-0.9375 -0.775,-2.5875 0,-1.65 0.7875,-2.574999 0.7875,-0.9375 2.1625,-0.9375 z m 0.0125,0.9625 q -0.875,0 -1.375,0.6875 -0.5,0.674999 -0.5,1.862499 0,1.1875 0.5,1.875 0.5,0.675001 1.375,0.675001 0.8625,0 1.3625,-0.675001 0.5125,-0.6875 0.5125,-1.8375 0,-1.212499 -0.5,-1.899999 -0.4875,-0.6875 -1.375,-0.6875 z"
         style=""
         id="path5036" />
      <path
         d="m 277.80957,36.739063 0.9625,0 0,1.099999 q 0.4375,-0.6875 0.9375,-0.9875 0.5125,-0.299999 1.2375,-0.299999 0.95,0 1.5125,0.487499 0.5625,0.4875 0.5625,1.3 l 0,4.95 -1.0375,0 0,-4.5375 q 0,-0.5875 -0.3625,-0.9375 -0.3625,-0.35 -0.9875,-0.35 -0.8,0 -1.2875,0.612501 -0.4875,0.6 -0.4875,1.6 l 0,3.612499 -1.05,0 0,-6.549999 z"
         style=""
         id="path5038" />
      <path
         d="m 285.29844,41.339062 q 0.075,0.587501 0.4,0.9375 0.3375,0.337501 1.2,0.337501 0.6875,0 1.1,-0.275001 0.425,-0.287499 0.425,-0.75 0,-0.3625 -0.2375,-0.574999 -0.2375,-0.2125 -0.775,-0.3375 l -0.975,-0.237501 q -1.1625,-0.275 -1.625,-0.6875 -0.45,-0.424999 -0.45,-1.199999 0,-0.9125 0.6875,-1.450001 0.6875,-0.549999 1.825,-0.549999 1.1375,0 1.75,0.525 0.6125,0.524999 0.625,1.487499 l -1.1,0 q -0.0375,-1.049999 -1.3125,-1.049999 -0.6375,0 -1.0125,0.274999 -0.375,0.262501 -0.375,0.7125 0,0.35 0.2875,0.575001 0.2875,0.212499 0.925,0.362499 l 1,0.237501 q 0.975,0.237499 1.4125,0.674999 0.4375,0.425 0.4375,1.15 0,0.950001 -0.7375,1.512501 -0.725,0.5625 -1.9625,0.5625 -2.5375,0 -2.6125,-2.237501 l 1.1,0 z"
         style=""
         id="path5040" />
      <path
         d="m 292.22578,41.989063 0,1.299999 -1.3,0 0,-1.299999 1.3,0 z"
         style=""
         id="path5042" />
      <path
         d="m 21.709375,66.451562 0,8.0875 -1.1625,0 0,-8.0875 -3,0 0,-1.024999 7.15,0 0,1.024999 -2.9875,0 z"
         style=""
         id="path5044" />
      <path
         d="m 29.994531,70.001563 q 0,-0.6875 -0.425,-0.987501 -0.4125,-0.3 -0.925,-0.3 -0.8,0 -1.2875,0.6125 -0.4875,0.600001 -0.4875,1.600001 l 0,3.612499 -1.0375,0 0,-9.112499 1.0375,0 0,3.462499 q 0.4625,-0.6 0.925,-0.837499 0.475,-0.25 1.175,-0.25 0.95,0 1.5,0.487499 0.5625,0.475 0.5625,1.3 l 0,4.95 -1.0375,0 0,-4.537499 z"
         style=""
         id="path5046" />
      <path
         d="m 33.646484,67.989063 0,6.549999 -1.0375,0 0,-6.549999 1.0375,0 z m 0,-2.5625 0,1.3125 -1.05,0 0,-1.3125 1.05,0 z"
         style=""
         id="path5048" />
      <path
         d="m 36.079687,72.589062 q 0.075,0.587501 0.4,0.9375 0.337501,0.337501 1.2,0.337501 0.6875,0 1.100001,-0.275001 0.424999,-0.287499 0.424999,-0.75 0,-0.3625 -0.237499,-0.575 -0.237501,-0.212499 -0.775,-0.337499 l -0.975,-0.2375 q -1.162501,-0.275001 -1.625,-0.6875 -0.450001,-0.425001 -0.450001,-1.2 0,-0.912501 0.6875,-1.450001 0.6875,-0.549999 1.825001,-0.549999 1.137499,0 1.75,0.524999 0.612499,0.525 0.625,1.487501 l -1.100001,0 q -0.0375,-1.050001 -1.3125,-1.050001 -0.6375,0 -1.0125,0.275 -0.375,0.262501 -0.375,0.712501 0,0.349999 0.2875,0.574999 0.2875,0.2125 0.925001,0.362501 l 1,0.2375 q 0.974999,0.237499 1.412499,0.674999 0.4375,0.425 0.4375,1.150001 0,0.949999 -0.7375,1.512499 -0.725,0.5625 -1.962499,0.5625 -2.537501,0 -2.612501,-2.2375 l 1.1,0 z"
         style=""
         id="path5050" />
      <path
         d="m 50.069531,65.426563 0,9.112499 -0.925,0 0,-0.862499 q -0.425,0.612499 -0.925,0.875 -0.4875,0.274999 -1.1625,0.274999 -1.325,0 -2.0875,-0.949999 -0.7625,-0.962501 -0.7625,-2.625 0,-1.5625 0.7625,-2.5 0.775,-0.95 2.05,-0.95 1.35,0 2.0125,1.0125 l 0,-3.3875 1.0375,0 z m -2.875,3.349999 q -0.85,0 -1.375,0.7 -0.525,0.700001 -0.525,1.837501 0,1.149999 0.525,1.849999 0.525,0.6875 1.3875,0.6875 0.825,0 1.325,-0.6875 0.5,-0.6875 0.5,-1.825 0,-1.175 -0.5,-1.8625 -0.5,-0.7 -1.3375,-0.7 z"
         style=""
         id="path5052" />
      <path
         d="m 57.101953,71.614063 -4.825,0 q 0.025,1.024999 0.525,1.6375 0.5125,0.6125 1.4,0.6125 1.275,0 1.7125,-1.3125 l 1.05,0 q -0.2,1.075 -0.9375,1.674999 -0.7375,0.6 -1.8625,0.6 -1.375,0 -2.175,-0.925 -0.8,-0.9375 -0.8,-2.55 0,-1.612499 0.8125,-2.575 0.825,-0.974999 2.1875,-0.974999 2.9125,0 2.9125,3.8125 z m -4.8,-0.850001 3.6875,0 q 0,-0.85 -0.5125,-1.425 -0.5125,-0.575 -1.3,-0.575 -0.7875,0 -1.3,0.550001 -0.5125,0.537499 -0.575,1.449999 z"
         style=""
         id="path5054" />
      <path
         d="m 59.004492,72.589062 q 0.075,0.587501 0.4,0.9375 0.3375,0.337501 1.2,0.337501 0.6875,0 1.1,-0.275001 0.425,-0.287499 0.425,-0.75 0,-0.3625 -0.2375,-0.575 -0.2375,-0.212499 -0.775,-0.337499 l -0.975,-0.2375 q -1.1625,-0.275001 -1.625,-0.6875 -0.45,-0.425001 -0.45,-1.2 0,-0.912501 0.6875,-1.450001 0.6875,-0.549999 1.825,-0.549999 1.1375,0 1.75,0.524999 0.6125,0.525 0.625,1.487501 l -1.1,0 q -0.0375,-1.050001 -1.3125,-1.050001 -0.6375,0 -1.0125,0.275 -0.375,0.262501 -0.375,0.712501 0,0.349999 0.2875,0.574999 0.2875,0.2125 0.925,0.362501 l 1,0.2375 q 0.975,0.237499 1.4125,0.674999 0.4375,0.425 0.4375,1.150001 0,0.949999 -0.7375,1.512499 -0.725,0.5625 -1.9625,0.5625 -2.5375,0 -2.6125,-2.2375 l 1.1,0 z"
         style=""
         id="path5056" />
      <path
         d="m 65.506836,67.989063 0,6.549999 -1.0375,0 0,-6.549999 1.0375,0 z m 0,-2.5625 0,1.3125 -1.05,0 0,-1.3125 1.05,0 z"
         style=""
         id="path5058" />
      <path
         d="m 69.490039,74.826562 q -1.15,0 -1.925,-0.9375 -0.775,-0.949999 -0.775,-2.512499 0,-1.600001 0.7625,-2.587501 0.775,-0.987499 2.025,-0.987499 1.225,0 2,1.1375 l -0.125,-0.95 1.0875,0 0,5.474999 q 0,0.9375 -0.1125,1.5625 -0.1125,0.6375 -0.4125,1.175 -0.3,0.537501 -0.9,0.800001 -0.5875,0.262499 -1.5,0.262499 -1.15,0 -1.8375,-0.524999 -0.6875,-0.525001 -0.775,-1.450001 l 1.0625,0 q 0.175,1.1 1.5875,1.1 1.05,0 1.4375,-0.6 0.3875,-0.5875 0.3875,-1.799999 l 0,-0.337501 q -0.4375,0.625 -0.9125,0.900001 -0.4625,0.274999 -1.075,0.274999 z m 0.2,-6.0625 q -0.8375,0 -1.325,0.6875 -0.4875,0.6875 -0.4875,1.862501 0,1.1875 0.4875,1.875 0.4875,0.675 1.3375,0.675 0.825,0 1.3,-0.662501 0.475,-0.675 0.475,-1.85 0,-1.224999 -0.475,-1.9 -0.4625,-0.6875 -1.3125,-0.6875 z"
         style=""
         id="path5060" />
      <path
         d="m 74.049805,67.989063 0.9625,0 0,1.099999 q 0.4375,-0.6875 0.9375,-0.9875 0.5125,-0.299999 1.2375,-0.299999 0.95,0 1.5125,0.487499 0.5625,0.4875 0.5625,1.3 l 0,4.95 -1.0375,0 0,-4.537499 q 0,-0.587501 -0.3625,-0.9375 -0.3625,-0.350001 -0.9875,-0.350001 -0.8,0 -1.2875,0.6125 -0.4875,0.600001 -0.4875,1.600001 l 0,3.612499 -1.05,0 0,-6.549999 z"
         style=""
         id="path5062" />
      <path
         d="m 83.801172,69.926563 q 0.075,-2.125 2.625,-2.125 1.2125,0 1.8375,0.462499 0.625,0.45 0.625,1.325 l 0,3.850001 q 0,0.512499 0.5625,0.512499 0.1125,0 0.225,-0.025 l 0,0.787499 q -0.4375,0.1125 -0.7125,0.1125 -0.5,0 -0.7625,-0.2375 -0.25,-0.224999 -0.3125,-0.724999 -1.05,0.962499 -2.225,0.962499 -0.9875,0 -1.575,-0.524999 -0.575,-0.525001 -0.575,-1.412501 0,-0.2875 0.05,-0.524999 0.0625,-0.2375 0.125,-0.412501 0.075,-0.1875 0.25,-0.337499 0.175,-0.162501 0.2875,-0.262501 0.125,-0.1 0.4,-0.1875 0.2875,-0.1 0.4375,-0.1375 0.15,-0.05 0.525,-0.1125 0.375,-0.0625 0.55,-0.0875 0.175,-0.025 0.625,-0.0875 0.6125,-0.075 0.85,-0.2375 0.2375,-0.162501 0.2375,-0.487501 l 0,-0.274999 q 0,-0.475001 -0.3875,-0.725001 -0.375,-0.25 -1.075,-0.25 -0.725,0 -1.1,0.287501 -0.375,0.274999 -0.4375,0.875 l -1.05,0 z m 2.0875,3.987499 q 0.8625,0 1.4125,-0.45 0.55,-0.462499 0.55,-0.9875 l 0,-1.174999 q -0.3125,0.149999 -0.95,0.25 -0.625,0.1 -1.0875,0.174999 -0.4625,0.075 -0.8375,0.3625 -0.375,0.275001 -0.375,0.775001 0,0.5 0.3375,0.774999 0.3375,0.275 0.95,0.275 z"
         style=""
         id="path5064" />
      <path
         d="m 90.675781,67.989063 0.9625,0 0,1.099999 q 0.4375,-0.6875 0.9375,-0.9875 0.5125,-0.299999 1.2375,-0.299999 0.95,0 1.5125,0.487499 0.5625,0.4875 0.5625,1.3 l 0,4.95 -1.0375,0 0,-4.537499 q 0,-0.587501 -0.3625,-0.9375 -0.3625,-0.350001 -0.9875,-0.350001 -0.8,0 -1.2875,0.6125 -0.4875,0.600001 -0.4875,1.600001 l 0,3.612499 -1.05,0 0,-6.549999 z"
         style=""
         id="path5066" />
      <path
         d="m 102.87715,65.426563 0,9.112499 -0.925,0 0,-0.862499 q -0.425,0.612499 -0.925,0.875 -0.4875,0.274999 -1.162502,0.274999 -1.325,0 -2.0875,-0.949999 -0.7625,-0.962501 -0.7625,-2.625 0,-1.5625 0.7625,-2.5 0.775,-0.95 2.05,-0.95 1.350002,0 2.012502,1.0125 l 0,-3.3875 1.0375,0 z m -2.875,3.349999 q -0.850002,0 -1.375002,0.7 -0.525,0.700001 -0.525,1.837501 0,1.149999 0.525,1.849999 0.525,0.6875 1.387502,0.6875 0.825,0 1.325,-0.6875 0.5,-0.6875 0.5,-1.825 0,-1.175 -0.5,-1.8625 -0.5,-0.7 -1.3375,-0.7 z"
         style=""
         id="path5068" />
      <path
         d="m 107.40957,69.926563 q 0.075,-2.125 2.625,-2.125 1.2125,0 1.8375,0.462499 0.625,0.45 0.625,1.325 l 0,3.850001 q 0,0.512499 0.5625,0.512499 0.1125,0 0.225,-0.025 l 0,0.787499 q -0.4375,0.1125 -0.7125,0.1125 -0.5,0 -0.7625,-0.2375 -0.25,-0.224999 -0.3125,-0.724999 -1.05,0.962499 -2.225,0.962499 -0.9875,0 -1.575,-0.524999 -0.575,-0.525001 -0.575,-1.412501 0,-0.2875 0.05,-0.524999 0.0625,-0.2375 0.125,-0.412501 0.075,-0.1875 0.25,-0.337499 0.175,-0.162501 0.2875,-0.262501 0.125,-0.1 0.4,-0.1875 0.2875,-0.1 0.4375,-0.1375 0.15,-0.05 0.525,-0.1125 0.375,-0.0625 0.55,-0.0875 0.175,-0.025 0.625,-0.0875 0.6125,-0.075 0.85,-0.2375 0.2375,-0.162501 0.2375,-0.487501 l 0,-0.274999 q 0,-0.475001 -0.3875,-0.725001 -0.375,-0.25 -1.075,-0.25 -0.725,0 -1.1,0.287501 -0.375,0.274999 -0.4375,0.875 l -1.05,0 z m 2.0875,3.987499 q 0.8625,0 1.4125,-0.45 0.55,-0.462499 0.55,-0.9875 l 0,-1.174999 q -0.3125,0.149999 -0.95,0.25 -0.625,0.1 -1.0875,0.174999 -0.4625,0.075 -0.8375,0.3625 -0.375,0.275001 -0.375,0.775001 0,0.5 0.3375,0.774999 0.3375,0.275 0.95,0.275 z"
         style=""
         id="path5070" />
      <path
         d="m 122.53418,70.189063 -1.05,0 q -0.1,-0.6875 -0.5,-1.050001 -0.4,-0.375 -1.05,-0.375 -0.85,0 -1.3375,0.7 -0.475,0.6875 -0.475,1.912501 0,1.162499 0.4875,1.824999 0.4875,0.662501 1.35,0.662501 1.3375,0 1.6,-1.575001 l 1.05,0 q -0.1,1.200001 -0.8,1.875 -0.7,0.6625 -1.875,0.6625 -1.3375,0 -2.125,-0.925 -0.775,-0.9375 -0.775,-2.524999 0,-1.625 0.7875,-2.600001 0.8,-0.974999 2.125,-0.974999 1.1375,0 1.8125,0.612499 0.6875,0.6125 0.775,1.775001 z"
         style=""
         id="path5072" />
      <path
         d="m 126.30742,67.801563 q 1.4125,0 2.1875,0.9375 0.7875,0.924999 0.7875,2.625 0,1.612499 -0.8,2.537499 -0.7875,0.925 -2.1625,0.925 -1.4,0 -2.1875,-0.925 -0.775,-0.9375 -0.775,-2.587499 0,-1.650001 0.7875,-2.575 0.7875,-0.9375 2.1625,-0.9375 z m 0.0125,0.962499 q -0.875,0 -1.375,0.6875 -0.5,0.675001 -0.5,1.862501 0,1.1875 0.5,1.875 0.5,0.675 1.375,0.675 0.8625,0 1.3625,-0.675 0.5125,-0.6875 0.5125,-1.837501 0,-1.2125 -0.5,-1.9 -0.4875,-0.6875 -1.375,-0.6875 z"
         style=""
         id="path5074" />
      <path
         d="m 130.39746,77.264062 0,-9.274999 0.9625,0 0,0.987499 q 0.7375,-1.174999 2.0875,-1.174999 1.3,0 2.05,0.962499 0.7625,0.9625 0.7625,2.612501 0,1.5625 -0.775,2.512499 -0.7625,0.9375 -2.025,0.9375 -1.2125,0 -2.0125,-0.975 l 0,3.4125 -1.05,0 z m 2.875,-8.4875 q -0.825,0 -1.325,0.7 -0.5,0.6875 -0.5,1.837501 0,1.149999 0.5,1.849999 0.5,0.6875 1.325,0.6875 0.85,0 1.375,-0.6875 0.525,-0.7 0.525,-1.8125 0,-1.174999 -0.525,-1.875 -0.5125,-0.7 -1.375,-0.7 z"
         style=""
         id="path5076" />
      <path
         d="m 141.35488,67.989063 1.125,0 -2.9125,7.924999 q -0.5125,1.35 -1.6875,1.35 -0.3875,0 -0.7,-0.1625 l 0,-0.9375 q 0.3375,0.075 0.55,0.075 0.325,0 0.5125,-0.150001 0.1875,-0.1375 0.325,-0.4875 l 0.4,-1.037499 -2.2125,-6.575 1.1125,0 1.675,5.099999 1.8125,-5.099999 z"
         style=""
         id="path5078" />
      <path
         d="m 149.06133,67.801563 q 1.4125,0 2.1875,0.9375 0.7875,0.924999 0.7875,2.625 0,1.612499 -0.8,2.537499 -0.7875,0.925 -2.1625,0.925 -1.4,0 -2.1875,-0.925 -0.775,-0.9375 -0.775,-2.587499 0,-1.650001 0.7875,-2.575 0.7875,-0.9375 2.1625,-0.9375 z m 0.0125,0.962499 q -0.875,0 -1.375,0.6875 -0.5,0.675001 -0.5,1.862501 0,1.1875 0.5,1.875 0.5,0.675 1.375,0.675 0.8625,0 1.3625,-0.675 0.5125,-0.6875 0.5125,-1.837501 0,-1.2125 -0.5,-1.9 -0.4875,-0.6875 -1.375,-0.6875 z"
         style=""
         id="path5080" />
      <path
         d="m 155.65137,67.989063 0,0.849999 -1.0875,0 0,5.7 -1.0375,0 0,-5.7 -0.875,0 0,-0.849999 0.875,0 0,-1.1125 q 0,-0.7 0.4,-1.087501 0.4125,-0.4 1.1375,-0.4 0.2875,0 0.5875,0.0625 l 0,0.862501 q -0.2375,-0.0125 -0.3625,-0.0125 -0.725,0 -0.725,0.662499 l 0,1.025001 1.0875,0 z"
         style=""
         id="path5082" />
      <path
         d="m 162.26758,67.989063 0,0.849999 -1.075,0 0,4.4875 q 0,0.350001 0.1125,0.475001 0.125,0.112499 0.4625,0.112499 0.3125,0 0.5,-0.05 l 0,0.875 q -0.4875,0.0875 -0.85,0.0875 -0.6125,0 -0.9375,-0.274999 -0.325,-0.262501 -0.325,-0.762501 l 0,-4.95 -0.8875,0 0,-0.849999 0.8875,0 0,-1.8 1.0375,0 0,1.8 1.075,0 z"
         style=""
         id="path5084" />
      <path
         d="m 167.42129,70.001563 q 0,-0.6875 -0.425,-0.987501 -0.4125,-0.3 -0.925,-0.3 -0.8,0 -1.2875,0.6125 -0.4875,0.600001 -0.4875,1.600001 l 0,3.612499 -1.0375,0 0,-9.112499 1.0375,0 0,3.462499 q 0.4625,-0.6 0.925,-0.837499 0.475,-0.25 1.175,-0.25 0.95,0 1.5,0.487499 0.5625,0.475 0.5625,1.3 l 0,4.95 -1.0375,0 0,-4.537499 z"
         style=""
         id="path5086" />
      <path
         d="m 175.48574,71.614063 -4.825,0 q 0.025,1.024999 0.525,1.6375 0.5125,0.6125 1.4,0.6125 1.275,0 1.7125,-1.3125 l 1.05,0 q -0.2,1.075 -0.9375,1.674999 -0.7375,0.6 -1.8625,0.6 -1.375,0 -2.175,-0.925 -0.8,-0.9375 -0.8,-2.55 0,-1.612499 0.8125,-2.575 0.825,-0.974999 2.1875,-0.974999 2.9125,0 2.9125,3.8125 z m -4.8,-0.850001 3.6875,0 q 0,-0.85 -0.5125,-1.425 -0.5125,-0.575 -1.3,-0.575 -0.7875,0 -1.3,0.550001 -0.5125,0.537499 -0.575,1.449999 z"
         style=""
         id="path5088" />
      <path
         d="m 180.78828,65.426563 0,9.112499 -1.05,0 0,-9.112499 1.05,0 z"
         style=""
         id="path5090" />
      <path
         d="m 183.54883,67.989063 0,6.549999 -1.0375,0 0,-6.549999 1.0375,0 z m 0,-2.5625 0,1.3125 -1.05,0 0,-1.3125 1.05,0 z"
         style=""
         id="path5092" />
      <path
         d="m 190.33203,70.189063 -1.05,0 q -0.1,-0.6875 -0.5,-1.050001 -0.4,-0.375 -1.05,-0.375 -0.85,0 -1.3375,0.7 -0.475,0.6875 -0.475,1.912501 0,1.162499 0.4875,1.824999 0.4875,0.662501 1.35,0.662501 1.3375,0 1.6,-1.575001 l 1.05,0 q -0.1,1.200001 -0.8,1.875 -0.7,0.6625 -1.875,0.6625 -1.3375,0 -2.125,-0.925 -0.775,-0.9375 -0.775,-2.524999 0,-1.625 0.7875,-2.600001 0.8,-0.974999 2.125,-0.974999 1.1375,0 1.8125,0.612499 0.6875,0.6125 0.775,1.775001 z"
         style=""
         id="path5094" />
      <path
         d="m 197.06777,71.614063 -4.825,0 q 0.025,1.024999 0.525,1.6375 0.5125,0.6125 1.4,0.6125 1.275,0 1.7125,-1.3125 l 1.05,0 q -0.2,1.075 -0.9375,1.674999 -0.7375,0.6 -1.8625,0.6 -1.375,0 -2.175,-0.925 -0.8,-0.9375 -0.8,-2.55 0,-1.612499 0.8125,-2.575 0.825,-0.974999 2.1875,-0.974999 2.9125,0 2.9125,3.8125 z m -4.8,-0.850001 3.6875,0 q 0,-0.85 -0.5125,-1.425 -0.5125,-0.575 -1.3,-0.575 -0.7875,0 -1.3,0.550001 -0.5125,0.537499 -0.575,1.449999 z"
         style=""
         id="path5096" />
      <path
         d="m 198.19531,67.989063 0.9625,0 0,1.099999 q 0.4375,-0.6875 0.9375,-0.9875 0.5125,-0.299999 1.2375,-0.299999 0.95,0 1.5125,0.487499 0.5625,0.4875 0.5625,1.3 l 0,4.95 -1.0375,0 0,-4.537499 q 0,-0.587501 -0.3625,-0.9375 -0.3625,-0.350001 -0.9875,-0.350001 -0.8,0 -1.2875,0.6125 -0.4875,0.600001 -0.4875,1.600001 l 0,3.612499 -1.05,0 0,-6.549999 z"
         style=""
         id="path5098" />
      <path
         d="m 205.68418,72.589062 q 0.075,0.587501 0.4,0.9375 0.3375,0.337501 1.2,0.337501 0.6875,0 1.1,-0.275001 0.425,-0.287499 0.425,-0.75 0,-0.3625 -0.2375,-0.575 -0.2375,-0.212499 -0.775,-0.337499 l -0.975,-0.2375 q -1.1625,-0.275001 -1.625,-0.6875 -0.45,-0.425001 -0.45,-1.2 0,-0.912501 0.6875,-1.450001 0.6875,-0.549999 1.825,-0.549999 1.1375,0 1.75,0.524999 0.6125,0.525 0.625,1.487501 l -1.1,0 q -0.0375,-1.050001 -1.3125,-1.050001 -0.6375,0 -1.0125,0.275 -0.375,0.262501 -0.375,0.712501 0,0.349999 0.2875,0.574999 0.2875,0.2125 0.925,0.362501 l 1,0.2375 q 0.975,0.237499 1.4125,0.674999 0.4375,0.425 0.4375,1.150001 0,0.949999 -0.7375,1.512499 -0.725,0.5625 -1.9625,0.5625 -2.5375,0 -2.6125,-2.2375 l 1.1,0 z"
         style=""
         id="path5100" />
      <path
         d="m 216.59902,71.614063 -4.825,0 q 0.025,1.024999 0.525,1.6375 0.5125,0.6125 1.4,0.6125 1.275,0 1.7125,-1.3125 l 1.05,0 q -0.2,1.075 -0.9375,1.674999 -0.7375,0.6 -1.8625,0.6 -1.375,0 -2.175,-0.925 -0.8,-0.9375 -0.8,-2.55 0,-1.612499 0.8125,-2.575 0.825,-0.974999 2.1875,-0.974999 2.9125,0 2.9125,3.8125 z m -4.8,-0.850001 3.6875,0 q 0,-0.85 -0.5125,-1.425 -0.5125,-0.575 -1.3,-0.575 -0.7875,0 -1.3,0.550001 -0.5125,0.537499 -0.575,1.449999 z"
         style=""
         id="path5102" />
      <path
         d="m 220.85156,67.989063 0.9625,0 0,0.924999 q 0.425,-0.5875 0.8875,-0.849999 0.475,-0.2625 1.125,-0.2625 1.2125,0 1.7625,1 0.4625,-0.55 0.9125,-0.775001 0.45,-0.224999 1.1,-0.224999 0.9125,0 1.4,0.474999 0.5,0.462501 0.5,1.350001 l 0,4.912499 -1.05,0 0,-4.5125 q 0,-0.625 -0.325,-0.962499 -0.3125,-0.350001 -0.8875,-0.350001 -0.6375,0 -1.0875,0.5 -0.45,0.5 -0.45,1.212501 l 0,4.112499 -1.05,0 0,-4.5125 q 0,-0.625 -0.325,-0.962499 -0.3125,-0.350001 -0.8875,-0.350001 -0.6375,0 -1.0875,0.5 -0.45,0.5 -0.45,1.212501 l 0,4.112499 -1.05,0 0,-6.549999 z"
         style=""
         id="path5104" />
      <path
         d="m 230.92031,69.926563 q 0.075,-2.125 2.625,-2.125 1.2125,0 1.8375,0.462499 0.625,0.45 0.625,1.325 l 0,3.850001 q 0,0.512499 0.5625,0.512499 0.1125,0 0.225,-0.025 l 0,0.787499 q -0.4375,0.1125 -0.7125,0.1125 -0.5,0 -0.7625,-0.2375 -0.25,-0.224999 -0.3125,-0.724999 -1.05,0.962499 -2.225,0.962499 -0.9875,0 -1.575,-0.524999 -0.575,-0.525001 -0.575,-1.412501 0,-0.2875 0.05,-0.524999 0.0625,-0.2375 0.125,-0.412501 0.075,-0.1875 0.25,-0.337499 0.175,-0.162501 0.2875,-0.262501 0.125,-0.1 0.4,-0.1875 0.2875,-0.1 0.4375,-0.1375 0.15,-0.05 0.525,-0.1125 0.375,-0.0625 0.55,-0.0875 0.175,-0.025 0.625,-0.0875 0.6125,-0.075 0.85,-0.2375 0.2375,-0.162501 0.2375,-0.487501 l 0,-0.274999 q 0,-0.475001 -0.3875,-0.725001 -0.375,-0.25 -1.075,-0.25 -0.725,0 -1.1,0.287501 -0.375,0.274999 -0.4375,0.875 l -1.05,0 z m 2.0875,3.987499 q 0.8625,0 1.4125,-0.45 0.55,-0.462499 0.55,-0.9875 l 0,-1.174999 q -0.3125,0.149999 -0.95,0.25 -0.625,0.1 -1.0875,0.174999 -0.4625,0.075 -0.8375,0.3625 -0.375,0.275001 -0.375,0.775001 0,0.5 0.3375,0.774999 0.3375,0.275 0.95,0.275 z"
         style=""
         id="path5106" />
      <path
         d="m 241.76992,67.989063 1.125,0 -2.9125,7.924999 q -0.5125,1.35 -1.6875,1.35 -0.3875,0 -0.7,-0.1625 l 0,-0.9375 q 0.3375,0.075 0.55,0.075 0.325,0 0.5125,-0.150001 0.1875,-0.1375 0.325,-0.4875 l 0.4,-1.037499 -2.2125,-6.575 1.1125,0 1.675,5.099999 1.8125,-5.099999 z"
         style=""
         id="path5108" />
      <path
         d="m 246.90137,65.426563 1.0375,0 0,3.45 q 0.7125,-1.075 2.025,-1.075 1.3,0 2.05,0.924999 0.75,0.925 0.75,2.512501 0,1.625 -0.775,2.612499 -0.775,0.975 -2.075,0.975 -1.3375,0 -2.075,-1.125 l 0,0.8375 -0.9375,0 0,-9.112499 z m 2.8625,3.349999 q -0.825,0 -1.325,0.7 -0.5,0.6875 -0.5,1.837501 0,1.149999 0.5,1.849999 0.5,0.6875 1.325,0.6875 0.85,0 1.375,-0.6875 0.5375,-0.7 0.5375,-1.8125 0,-1.174999 -0.525,-1.875 -0.5125,-0.7 -1.3875,-0.7 z"
         style=""
         id="path5110" />
      <path
         d="m 259.42129,71.614063 -4.825,0 q 0.025,1.024999 0.525,1.6375 0.5125,0.6125 1.4,0.6125 1.275,0 1.7125,-1.3125 l 1.05,0 q -0.2,1.075 -0.9375,1.674999 -0.7375,0.6 -1.8625,0.6 -1.375,0 -2.175,-0.925 -0.8,-0.9375 -0.8,-2.55 0,-1.612499 0.8125,-2.575 0.825,-0.974999 2.1875,-0.974999 2.9125,0 2.9125,3.8125 z m -4.8,-0.850001 3.6875,0 q 0,-0.85 -0.5125,-1.425 -0.5125,-0.575 -1.3,-0.575 -0.7875,0 -1.3,0.550001 -0.5125,0.537499 -0.575,1.449999 z"
         style=""
         id="path5112" />
      <path
         d="m 266.17383,67.989063 0,0.849999 -1.0875,0 0,5.7 -1.0375,0 0,-5.7 -0.875,0 0,-0.849999 0.875,0 0,-1.1125 q 0,-0.7 0.4,-1.087501 0.4125,-0.4 1.1375,-0.4 0.2875,0 0.5875,0.0625 l 0,0.862501 q -0.2375,-0.0125 -0.3625,-0.0125 -0.725,0 -0.725,0.662499 l 0,1.025001 1.0875,0 z"
         style=""
         id="path5114" />
      <path
         d="m 269.74004,67.801563 q 1.4125,0 2.1875,0.9375 0.7875,0.924999 0.7875,2.625 0,1.612499 -0.8,2.537499 -0.7875,0.925 -2.1625,0.925 -1.4,0 -2.1875,-0.925 -0.775,-0.9375 -0.775,-2.587499 0,-1.650001 0.7875,-2.575 0.7875,-0.9375 2.1625,-0.9375 z m 0.0125,0.962499 q -0.875,0 -1.375,0.6875 -0.5,0.675001 -0.5,1.862501 0,1.1875 0.5,1.875 0.5,0.675 1.375,0.675 0.8625,0 1.3625,-0.675 0.5125,-0.6875 0.5125,-1.837501 0,-1.2125 -0.5,-1.9 -0.4875,-0.6875 -1.375,-0.6875 z"
         style=""
         id="path5116" />
      <path
         d="m 279.04258,74.539062 -0.9375,0 0,-0.912499 q -0.4625,0.649999 -0.9625,0.925 -0.5,0.274999 -1.225,0.274999 -0.95,0 -1.525,-0.4875 -0.5625,-0.4875 -0.5625,-1.3 l 0,-5.049999 1.0375,0 0,4.6375 q 0,0.587499 0.3625,0.9375 0.3625,0.349999 0.9875,0.349999 0.8125,0 1.3,-0.599999 0.4875,-0.612501 0.4875,-1.612501 l 0,-3.712499 1.0375,0 0,6.549999 z"
         style=""
         id="path5118" />
      <path
         d="m 280.54395,67.989063 0.9625,0 0,1.099999 q 0.4375,-0.6875 0.9375,-0.9875 0.5125,-0.299999 1.2375,-0.299999 0.95,0 1.5125,0.487499 0.5625,0.4875 0.5625,1.3 l 0,4.95 -1.0375,0 0,-4.537499 q 0,-0.587501 -0.3625,-0.9375 -0.3625,-0.350001 -0.9875,-0.350001 -0.8,0 -1.2875,0.6125 -0.4875,0.600001 -0.4875,1.600001 l 0,3.612499 -1.05,0 0,-6.549999 z"
         style=""
         id="path5120" />
      <path
         d="m 292.74531,65.426563 0,9.112499 -0.925,0 0,-0.862499 q -0.425,0.612499 -0.925,0.875 -0.4875,0.274999 -1.1625,0.274999 -1.325,0 -2.0875,-0.949999 -0.7625,-0.962501 -0.7625,-2.625 0,-1.5625 0.7625,-2.5 0.775,-0.95 2.05,-0.95 1.35,0 2.0125,1.0125 l 0,-3.3875 1.0375,0 z m -2.875,3.349999 q -0.85,0 -1.375,0.7 -0.525,0.700001 -0.525,1.837501 0,1.149999 0.525,1.849999 0.525,0.6875 1.3875,0.6875 0.825,0 1.325,-0.6875 0.5,-0.6875 0.5,-1.825 0,-1.175 -0.5,-1.8625 -0.5,-0.7 -1.3375,-0.7 z"
         style=""
         id="path5122" />
      <path
         d="m 297.27773,69.926563 q 0.075,-2.125 2.625,-2.125 1.2125,0 1.8375,0.462499 0.625,0.45 0.625,1.325 l 0,3.850001 q 0,0.512499 0.5625,0.512499 0.1125,0 0.225,-0.025 l 0,0.787499 q -0.4375,0.1125 -0.7125,0.1125 -0.5,0 -0.7625,-0.2375 -0.25,-0.224999 -0.3125,-0.724999 -1.05,0.962499 -2.225,0.962499 -0.9875,0 -1.575,-0.524999 -0.575,-0.525001 -0.575,-1.412501 0,-0.2875 0.05,-0.524999 0.0625,-0.2375 0.125,-0.412501 0.075,-0.1875 0.25,-0.337499 0.175,-0.162501 0.2875,-0.262501 0.125,-0.1 0.4,-0.1875 0.2875,-0.1 0.4375,-0.1375 0.15,-0.05 0.525,-0.1125 0.375,-0.0625 0.55,-0.0875 0.175,-0.025 0.625,-0.0875 0.6125,-0.075 0.85,-0.2375 0.2375,-0.162501 0.2375,-0.487501 l 0,-0.274999 q 0,-0.475001 -0.3875,-0.725001 -0.375,-0.25 -1.075,-0.25 -0.725,0 -1.1,0.287501 -0.375,0.274999 -0.4375,0.875 l -1.05,0 z m 2.0875,3.987499 q 0.8625,0 1.4125,-0.45 0.55,-0.462499 0.55,-0.9875 l 0,-1.174999 q -0.3125,0.149999 -0.95,0.25 -0.625,0.1 -1.0875,0.174999 -0.4625,0.075 -0.8375,0.3625 -0.375,0.275001 -0.375,0.775001 0,0.5 0.3375,0.774999 0.3375,0.275 0.95,0.275 z"
         style=""
         id="path5124" />
      <path
         d="m 306.65234,67.989063 0,0.849999 -1.075,0 0,4.4875 q 0,0.350001 0.1125,0.475001 0.125,0.112499 0.4625,0.112499 0.3125,0 0.5,-0.05 l 0,0.875 q -0.4875,0.0875 -0.85,0.0875 -0.6125,0 -0.9375,-0.274999 -0.325,-0.262501 -0.325,-0.762501 l 0,-4.95 -0.8875,0 0,-0.849999 0.8875,0 0,-1.8 1.0375,0 0,1.8 1.075,0 z"
         style=""
         id="path5126" />
      <path
         d="m 309.19355,73.239063 0,1.299999 -1.3,0 0,-1.299999 1.3,0 z m 0,-5.25 0,1.299999 -1.3,0 0,-1.299999 1.3,0 z"
         style=""
         id="path5128" />
      <path
         d="m 24.146875,90.164062 -1.1875,0 -1.325,-5.1375 -1.2625,5.1375 -1.175,0 -1.9,-6.549999 1.15,0 1.3375,5.099999 1.25,-5.099999 1.275,0 1.2875,5.099999 1.3,-5.099999 1.175,0 -1.925,6.549999 z"
         style=""
         id="path5130" />
      <path
         d="m 33.180078,90.164062 -1.1875,0 -1.325,-5.1375 -1.2625,5.1375 -1.175,0 -1.9,-6.549999 1.15,0 1.3375,5.099999 1.25,-5.099999 1.275,0 1.2875,5.099999 1.3,-5.099999 1.175,0 -1.925,6.549999 z"
         style=""
         id="path5132" />
      <path
         d="m 42.213281,90.164062 -1.1875,0 -1.325,-5.1375 -1.2625,5.1375 -1.175,0 -1.9,-6.549999 1.15,0 1.3375,5.099999 1.25,-5.099999 1.275,0 1.2875,5.099999 1.3,-5.099999 1.175,0 -1.925,6.549999 z"
         style=""
         id="path5134" />
      <path
         d="m 46.571484,88.864063 0,1.299999 -1.3,0 0,-1.299999 1.3,0 z"
         style=""
         id="path5136" />
      <path
         d="m 50.471484,90.451562 q -1.15,0 -1.925,-0.9375 -0.775,-0.949999 -0.775,-2.512499 0,-1.600001 0.7625,-2.587501 0.775,-0.987499 2.025,-0.987499 1.225,0 2,1.1375 l -0.125,-0.95 1.0875,0 0,5.474999 q 0,0.9375 -0.1125,1.5625 -0.1125,0.6375 -0.4125,1.175 -0.3,0.537501 -0.9,0.800001 -0.5875,0.262499 -1.5,0.262499 -1.15,0 -1.8375,-0.524999 -0.6875,-0.525001 -0.775,-1.450001 l 1.0625,0 q 0.175,1.1 1.5875,1.1 1.05,0 1.4375,-0.6 0.3875,-0.5875 0.3875,-1.799999 l 0,-0.337501 q -0.4375,0.625 -0.9125,0.900001 -0.4625,0.274999 -1.075,0.274999 z m 0.2,-6.0625 q -0.8375,0 -1.325,0.6875 -0.4875,0.6875 -0.4875,1.862501 0,1.1875 0.4875,1.875 0.4875,0.675 1.3375,0.675 0.825,0 1.3,-0.662501 0.475,-0.675 0.475,-1.85 0,-1.224999 -0.475,-1.9 -0.4625,-0.6875 -1.3125,-0.6875 z"
         style=""
         id="path5138" />
      <path
         d="m 56.15625,83.614063 0,6.549999 -1.0375,0 0,-6.549999 1.0375,0 z m 0,-2.5625 0,1.3125 -1.05,0 0,-1.3125 1.05,0 z"
         style=""
         id="path5140" />
      <path
         d="m 60.314453,83.614063 0,0.849999 -1.075,0 0,4.4875 q 0,0.350001 0.1125,0.475001 0.125,0.112499 0.4625,0.112499 0.3125,0 0.5,-0.05 l 0,0.875 q -0.4875,0.0875 -0.85,0.0875 -0.6125,0 -0.9375,-0.274999 -0.325,-0.262501 -0.325,-0.762501 l 0,-4.95 -0.8875,0 0,-0.849999 0.8875,0 0,-1.8 1.0375,0 0,1.8 1.075,0 z"
         style=""
         id="path5142" />
      <path
         d="m 65.468164,85.626563 q 0,-0.6875 -0.425,-0.987501 -0.4125,-0.3 -0.925,-0.3 -0.8,0 -1.2875,0.6125 -0.4875,0.600001 -0.4875,1.600001 l 0,3.612499 -1.0375,0 0,-9.112499 1.0375,0 0,3.462499 q 0.4625,-0.6 0.925,-0.837499 0.475,-0.25 1.175,-0.25 0.95,0 1.5,0.487499 0.5625,0.475 0.5625,1.3 l 0,4.95 -1.0375,0 0,-4.537499 z"
         style=""
         id="path5144" />
      <path
         d="m 73.207617,90.164062 -0.9375,0 0,-0.912499 q -0.4625,0.649999 -0.9625,0.925 -0.5,0.274999 -1.225,0.274999 -0.95,0 -1.525,-0.4875 -0.5625,-0.4875 -0.5625,-1.3 l 0,-5.049999 1.0375,0 0,4.6375 q 0,0.587499 0.3625,0.9375 0.3625,0.349999 0.9875,0.349999 0.8125,0 1.3,-0.599999 0.4875,-0.612501 0.4875,-1.612501 l 0,-3.712499 1.0375,0 0,6.549999 z"
         style=""
         id="path5146" />
      <path
         d="m 74.708984,81.051563 1.0375,0 0,3.45 q 0.7125,-1.075 2.025,-1.075 1.3,0 2.05,0.924999 0.75,0.925 0.75,2.512501 0,1.625 -0.775,2.612499 -0.775,0.975 -2.075,0.975 -1.3375,0 -2.075,-1.125 l 0,0.8375 -0.9375,0 0,-9.112499 z m 2.8625,3.349999 q -0.825,0 -1.325,0.7 -0.5,0.6875 -0.5,1.837501 0,1.149999 0.5,1.849999 0.5,0.6875 1.325,0.6875 0.85,0 1.375,-0.6875 0.5375,-0.7 0.5375,-1.8125 0,-1.174999 -0.525,-1.875 -0.5125,-0.7 -1.3875,-0.7 z"
         style=""
         id="path5148" />
      <path
         d="m 83.241406,88.864063 0,1.299999 -1.3,0 0,-1.299999 1.3,0 z"
         style=""
         id="path5150" />
      <path
         d="m 89.941406,85.814063 -1.05,0 q -0.1,-0.6875 -0.5,-1.050001 -0.4,-0.375 -1.05,-0.375 -0.85,0 -1.3375,0.7 -0.475,0.6875 -0.475,1.912501 0,1.162499 0.4875,1.824999 0.4875,0.662501 1.35,0.662501 1.3375,0 1.6,-1.575001 l 1.05,0 q -0.1,1.200001 -0.8,1.875 -0.7,0.6625 -1.875,0.6625 -1.3375,0 -2.125,-0.925 -0.775,-0.9375 -0.775,-2.524999 0,-1.625 0.7875,-2.600001 0.8,-0.974999 2.125,-0.974999 1.1375,0 1.8125,0.612499 0.6875,0.6125 0.775,1.775001 z"
         style=""
         id="path5152" />
      <path
         d="m 93.714648,83.426563 q 1.4125,0 2.1875,0.9375 0.7875,0.924999 0.7875,2.625 0,1.612499 -0.8,2.537499 -0.7875,0.925 -2.1625,0.925 -1.4,0 -2.1875,-0.925 -0.775,-0.9375 -0.775,-2.587499 0,-1.650001 0.7875,-2.575 0.7875,-0.9375 2.1625,-0.9375 z m 0.0125,0.962499 q -0.875,0 -1.375,0.6875 -0.5,0.675001 -0.5,1.862501 0,1.1875 0.5,1.875 0.5,0.675 1.375,0.675 0.8625,0 1.3625,-0.675 0.5125,-0.6875 0.5125,-1.837501 0,-1.2125 -0.5,-1.9 -0.4875,-0.6875 -1.375,-0.6875 z"
         style=""
         id="path5154" />
      <path
         d="m 97.804687,83.614063 0.962501,0 0,0.924999 q 0.425,-0.5875 0.887499,-0.849999 0.475003,-0.2625 1.125003,-0.2625 1.2125,0 1.7625,1 0.4625,-0.55 0.9125,-0.775001 0.45,-0.224999 1.1,-0.224999 0.9125,0 1.4,0.474999 0.5,0.462501 0.5,1.350001 l 0,4.912499 -1.05,0 0,-4.5125 q 0,-0.625 -0.325,-0.962499 -0.3125,-0.350001 -0.8875,-0.350001 -0.6375,0 -1.0875,0.5 -0.45,0.5 -0.45,1.212501 l 0,4.112499 -1.05,0 0,-4.5125 q 0,-0.625 -0.325,-0.962499 -0.3125,-0.350001 -0.8875,-0.350001 -0.637502,0 -1.087503,0.5 -0.45,0.5 -0.45,1.212501 l 0,4.112499 -1.05,0 0,-6.549999 z"
         style=""
         id="path5156" />
      <path
         d="m 110.07344,81.051563 0.6875,0 -2.9625,9.362499 -0.6875,0 2.9625,-9.362499 z"
         style=""
         id="path5158" />
      <path
         d="m 111.42773,83.614063 0.9625,0 0,0.924999 q 0.425,-0.5875 0.8875,-0.849999 0.475,-0.2625 1.125,-0.2625 1.2125,0 1.7625,1 0.4625,-0.55 0.9125,-0.775001 0.45,-0.224999 1.1,-0.224999 0.9125,0 1.4,0.474999 0.5,0.462501 0.5,1.350001 l 0,4.912499 -1.05,0 0,-4.5125 q 0,-0.625 -0.325,-0.962499 -0.3125,-0.350001 -0.8875,-0.350001 -0.6375,0 -1.0875,0.5 -0.45,0.5 -0.45,1.212501 l 0,4.112499 -1.05,0 0,-4.5125 q 0,-0.625 -0.325,-0.962499 -0.3125,-0.350001 -0.8875,-0.350001 -0.6375,0 -1.0875,0.5 -0.45,0.5 -0.45,1.212501 l 0,4.112499 -1.05,0 0,-6.549999 z"
         style=""
         id="path5160" />
      <path
         d="m 124.73398,84.526562 q -1.05,0.025 -1.575,0.4875 -0.525,0.4625 -0.525,1.75 l 0,3.4 -1.05,0 0,-6.549999 0.9625,0 0,1.1875 q 0.45,-0.7375 0.8625,-1.05 0.425,-0.325 0.925,-0.325 0.1375,0 0.4,0.0375 l 0,1.0625 z"
         style=""
         id="path5162" />
      <path
         d="m 126.50938,88.214062 q 0.075,0.587501 0.39999,0.9375 0.33751,0.337501 1.2,0.337501 0.6875,0 1.1,-0.275001 0.425,-0.287499 0.425,-0.75 0,-0.3625 -0.2375,-0.575 -0.2375,-0.212499 -0.775,-0.337499 l -0.975,-0.2375 q -1.16249,-0.275001 -1.625,-0.6875 -0.44999,-0.425001 -0.44999,-1.2 0,-0.912501 0.6875,-1.450001 0.6875,-0.549999 1.82499,-0.549999 1.1375,0 1.75,0.524999 0.6125,0.525 0.625,1.487501 l -1.1,0 q -0.0375,-1.050001 -1.3125,-1.050001 -0.6375,0 -1.0125,0.275 -0.375,0.262501 -0.375,0.712501 0,0.349999 0.28751,0.574999 0.2875,0.2125 0.925,0.362501 l 0.99999,0.2375 q 0.975,0.237499 1.4125,0.674999 0.4375,0.425 0.4375,1.150001 0,0.949999 -0.7375,1.512499 -0.725,0.5625 -1.9625,0.5625 -2.53749,0 -2.6125,-2.2375 l 1.10001,0 z"
         style=""
         id="path5164" />
      <path
         d="m 136.04922,85.626563 q 0,-0.6875 -0.425,-0.987501 -0.4125,-0.3 -0.925,-0.3 -0.8,0 -1.2875,0.6125 -0.4875,0.600001 -0.4875,1.600001 l 0,3.612499 -1.0375,0 0,-9.112499 1.0375,0 0,3.462499 q 0.4625,-0.6 0.925,-0.837499 0.475,-0.25 1.175,-0.25 0.95,0 1.5,0.487499 0.5625,0.475 0.5625,1.3 l 0,4.95 -1.0375,0 0,-4.537499 z"
         style=""
         id="path5166" />
      <path
         d="m 139.62617,81.051563 0,9.112499 -1.05,0 0,-9.112499 1.05,0 z"
         style=""
         id="path5168" />
      <path
         d="m 142.31172,81.051563 0,9.112499 -1.05,0 0,-9.112499 1.05,0 z"
         style=""
         id="path5170" />
      <path
         d="m 146.43477,83.851562 -1.9625,0 0,-0.787499 q 1.275,-0.162501 1.6625,-0.45 0.3875,-0.287501 0.675,-1.3125 l 0.725,0 0,8.862499 -1.1,0 0,-6.3125 z"
         style=""
         id="path5172" />
      <path
         d="m 150.69277,85.876563 q 0,-1.112501 0.1875,-1.962501 0.1875,-0.849999 0.475,-1.325 0.2875,-0.4875 0.6875,-0.787499 0.4,-0.3 0.7625,-0.400001 0.375,-0.1 0.7875,-0.1 2.9,0 2.9,4.649999 0,2.1875 -0.75,3.350001 -0.7375,1.149999 -2.15,1.149999 -1.425,0 -2.1625,-1.1625 -0.7375,-1.174999 -0.7375,-3.412499 z m 4.675,-0.025 q 0,-3.575 -1.775,-3.575 -1.775,0 -1.775,3.6125 0,3.65 1.75,3.65 0.925,0 1.3625,-0.9 0.4375,-0.899999 0.4375,-2.7875 z"
         style=""
         id="path5174" />
      <path
         d="m 157.65078,85.876563 q 0,-1.112501 0.1875,-1.962501 0.1875,-0.849999 0.475,-1.325 0.2875,-0.4875 0.6875,-0.787499 0.4,-0.3 0.7625,-0.400001 0.375,-0.1 0.7875,-0.1 2.9,0 2.9,4.649999 0,2.1875 -0.75,3.350001 -0.7375,1.149999 -2.15,1.149999 -1.425,0 -2.1625,-1.1625 -0.7375,-1.174999 -0.7375,-3.412499 z m 4.675,-0.025 q 0,-3.575 -1.775,-3.575 -1.775,0 -1.775,3.6125 0,3.65 1.75,3.65 0.925,0 1.3625,-0.9 0.4375,-0.899999 0.4375,-2.7875 z"
         style=""
         id="path5176" />
      <path
         d="m 167.30879,83.851562 -1.9625,0 0,-0.787499 q 1.275,-0.162501 1.6625,-0.45 0.3875,-0.287501 0.675,-1.3125 l 0.725,0 0,8.862499 -1.1,0 0,-6.3125 z"
         style=""
         id="path5178" />
      <path
         d="m 173.8918,81.051563 0.6875,0 -2.9625,9.362499 -0.6875,0 2.9625,-9.362499 z"
         style=""
         id="path5180" />
      <path
         d="m 176.29609,81.051563 0,9.112499 -1.05,0 0,-9.112499 1.05,0 z"
         style=""
         id="path5182" />
      <path
         d="m 177.84414,85.551563 q 0.075,-2.125 2.625,-2.125 1.2125,0 1.8375,0.462499 0.625,0.45 0.625,1.325 l 0,3.850001 q 0,0.512499 0.5625,0.512499 0.1125,0 0.225,-0.025 l 0,0.787499 q -0.4375,0.1125 -0.7125,0.1125 -0.5,0 -0.7625,-0.2375 -0.25,-0.224999 -0.3125,-0.724999 -1.05,0.962499 -2.225,0.962499 -0.9875,0 -1.575,-0.524999 -0.575,-0.525001 -0.575,-1.412501 0,-0.2875 0.05,-0.524999 0.0625,-0.2375 0.125,-0.412501 0.075,-0.1875 0.25,-0.337499 0.175,-0.162501 0.2875,-0.262501 0.125,-0.1 0.4,-0.1875 0.2875,-0.1 0.4375,-0.1375 0.15,-0.05 0.525,-0.1125 0.375,-0.0625 0.55,-0.0875 0.175,-0.025 0.625,-0.0875 0.6125,-0.075 0.85,-0.2375 0.2375,-0.162501 0.2375,-0.487501 l 0,-0.274999 q 0,-0.475001 -0.3875,-0.725001 -0.375,-0.25 -1.075,-0.25 -0.725,0 -1.1,0.287501 -0.375,0.274999 -0.4375,0.875 l -1.05,0 z m 2.0875,3.987499 q 0.8625,0 1.4125,-0.45 0.55,-0.462499 0.55,-0.9875 l 0,-1.174999 q -0.3125,0.149999 -0.95,0.25 -0.625,0.1 -1.0875,0.174999 -0.4625,0.075 -0.8375,0.3625 -0.375,0.275001 -0.375,0.775001 0,0.5 0.3375,0.774999 0.3375,0.275 0.95,0.275 z"
         style=""
         id="path5184" />
      <path
         d="m 185.49375,88.214062 q 0.075,0.587501 0.4,0.9375 0.3375,0.337501 1.2,0.337501 0.6875,0 1.1,-0.275001 0.425,-0.287499 0.425,-0.75 0,-0.3625 -0.2375,-0.575 -0.2375,-0.212499 -0.775,-0.337499 l -0.975,-0.2375 q -1.1625,-0.275001 -1.625,-0.6875 -0.45,-0.425001 -0.45,-1.2 0,-0.912501 0.6875,-1.450001 0.6875,-0.549999 1.825,-0.549999 1.1375,0 1.75,0.524999 0.6125,0.525 0.625,1.487501 l -1.1,0 q -0.0375,-1.050001 -1.3125,-1.050001 -0.6375,0 -1.0125,0.275 -0.375,0.262501 -0.375,0.712501 0,0.349999 0.2875,0.574999 0.2875,0.2125 0.925,0.362501 l 1,0.2375 q 0.975,0.237499 1.4125,0.674999 0.4375,0.425 0.4375,1.150001 0,0.949999 -0.7375,1.512499 -0.725,0.5625 -1.9625,0.5625 -2.5375,0 -2.6125,-2.2375 l 1.1,0 z"
         style=""
         id="path5186" />
      <path
         d="m 196.40859,87.239063 -4.825,0 q 0.025,1.024999 0.525,1.6375 0.5125,0.6125 1.4,0.6125 1.275,0 1.7125,-1.3125 l 1.05,0 q -0.2,1.075 -0.9375,1.674999 -0.7375,0.6 -1.8625,0.6 -1.375,0 -2.175,-0.925 -0.8,-0.9375 -0.8,-2.55 0,-1.612499 0.8125,-2.575 0.825,-0.974999 2.1875,-0.974999 2.9125,0 2.9125,3.8125 z m -4.8,-0.850001 3.6875,0 q 0,-0.85 -0.5125,-1.425 -0.5125,-0.575 -1.3,-0.575 -0.7875,0 -1.3,0.550001 -0.5125,0.537499 -0.575,1.449999 z"
         style=""
         id="path5188" />
      <path
         d="m 200.68613,84.526562 q -1.05,0.025 -1.575,0.4875 -0.525,0.4625 -0.525,1.75 l 0,3.4 -1.05,0 0,-6.549999 0.9625,0 0,1.1875 q 0.45,-0.7375 0.8625,-1.05 0.425,-0.325 0.925,-0.325 0.1375,0 0.4,0.0375 l 0,1.0625 z"
         style=""
         id="path5190" />
      <path
         d="m 206.81152,85.814063 -1.05,0 q -0.1,-0.6875 -0.5,-1.050001 -0.4,-0.375 -1.05,-0.375 -0.85,0 -1.3375,0.7 -0.475,0.6875 -0.475,1.912501 0,1.162499 0.4875,1.824999 0.4875,0.662501 1.35,0.662501 1.3375,0 1.6,-1.575001 l 1.05,0 q -0.1,1.200001 -0.8,1.875 -0.7,0.6625 -1.875,0.6625 -1.3375,0 -2.125,-0.925 -0.775,-0.9375 -0.775,-2.524999 0,-1.625 0.7875,-2.600001 0.8,-0.974999 2.125,-0.974999 1.1375,0 1.8125,0.612499 0.6875,0.6125 0.775,1.775001 z"
         style=""
         id="path5192" />
      <path
         d="m 213.22227,90.164062 -0.9375,0 0,-0.912499 q -0.4625,0.649999 -0.9625,0.925 -0.5,0.274999 -1.225,0.274999 -0.95,0 -1.525,-0.4875 -0.5625,-0.4875 -0.5625,-1.3 l 0,-5.049999 1.0375,0 0,4.6375 q 0,0.587499 0.3625,0.9375 0.3625,0.349999 0.9875,0.349999 0.8125,0 1.3,-0.599999 0.4875,-0.612501 0.4875,-1.612501 l 0,-3.712499 1.0375,0 0,6.549999 z"
         style=""
         id="path5194" />
      <path
         d="m 217.22363,83.614063 0,0.849999 -1.075,0 0,4.4875 q 0,0.350001 0.1125,0.475001 0.125,0.112499 0.4625,0.112499 0.3125,0 0.5,-0.05 l 0,0.875 q -0.4875,0.0875 -0.85,0.0875 -0.6125,0 -0.9375,-0.274999 -0.325,-0.262501 -0.325,-0.762501 l 0,-4.95 -0.8875,0 0,-0.849999 0.8875,0 0,-1.8 1.0375,0 0,1.8 1.075,0 z"
         style=""
         id="path5196" />
      <path
         d="m 220.71484,83.614063 0,0.849999 -1.075,0 0,4.4875 q 0,0.350001 0.1125,0.475001 0.125,0.112499 0.4625,0.112499 0.3125,0 0.5,-0.05 l 0,0.875 q -0.4875,0.0875 -0.85,0.0875 -0.6125,0 -0.9375,-0.274999 -0.325,-0.262501 -0.325,-0.762501 l 0,-4.95 -0.8875,0 0,-0.849999 0.8875,0 0,-1.8 1.0375,0 0,1.8 1.075,0 z"
         style=""
         id="path5198" />
      <path
         d="m 222.83105,83.614063 0,6.549999 -1.0375,0 0,-6.549999 1.0375,0 z m 0,-2.5625 0,1.3125 -1.05,0 0,-1.3125 1.05,0 z"
         style=""
         id="path5200" />
      <path
         d="m 224.48926,83.614063 0.9625,0 0,1.099999 q 0.4375,-0.6875 0.9375,-0.9875 0.5125,-0.299999 1.2375,-0.299999 0.95,0 1.5125,0.487499 0.5625,0.4875 0.5625,1.3 l 0,4.95 -1.0375,0 0,-4.537499 q 0,-0.587501 -0.3625,-0.9375 -0.3625,-0.350001 -0.9875,-0.350001 -0.8,0 -1.2875,0.6125 -0.4875,0.600001 -0.4875,1.600001 l 0,3.612499 -1.05,0 0,-6.549999 z"
         style=""
         id="path5202" />
      <path
         d="m 233.52812,90.451562 q -1.15,0 -1.925,-0.9375 -0.775,-0.949999 -0.775,-2.512499 0,-1.600001 0.7625,-2.587501 0.775,-0.987499 2.025,-0.987499 1.225,0 2,1.1375 l -0.125,-0.95 1.0875,0 0,5.474999 q 0,0.9375 -0.1125,1.5625 -0.1125,0.6375 -0.4125,1.175 -0.3,0.537501 -0.9,0.800001 -0.5875,0.262499 -1.5,0.262499 -1.15,0 -1.8375,-0.524999 -0.6875,-0.525001 -0.775,-1.450001 l 1.0625,0 q 0.175,1.1 1.5875,1.1 1.05,0 1.4375,-0.6 0.3875,-0.5875 0.3875,-1.799999 l 0,-0.337501 q -0.4375,0.625 -0.9125,0.900001 -0.4625,0.274999 -1.075,0.274999 z m 0.2,-6.0625 q -0.8375,0 -1.325,0.6875 -0.4875,0.6875 -0.4875,1.862501 0,1.1875 0.4875,1.875 0.4875,0.675 1.3375,0.675 0.825,0 1.3,-0.662501 0.475,-0.675 0.475,-1.85 0,-1.224999 -0.475,-1.9 -0.4625,-0.6875 -1.3125,-0.6875 z"
         style=""
         id="path5204" />
    </g>
  </g>
</svg>
