<?xml version="1.0" encoding="UTF-8" standalone="no"?>
<!-- Created with Inkscape (http://www.inkscape.org/) -->

<svg
   xmlns:dc="http://purl.org/dc/elements/1.1/"
   xmlns:cc="http://creativecommons.org/ns#"
   xmlns:rdf="http://www.w3.org/1999/02/22-rdf-syntax-ns#"
   xmlns:svg="http://www.w3.org/2000/svg"
   xmlns="http://www.w3.org/2000/svg"
   xmlns:sodipodi="http://sodipodi.sourceforge.net/DTD/sodipodi-0.dtd"
   xmlns:inkscape="http://www.inkscape.org/namespaces/inkscape"
   width="150mm"
   height="30mm"
   viewBox="0 0 531.49606 106.29921"
   id="svg2"
   version="1.1"
   inkscape:version="0.91 r13725"
   sodipodi:docname="swatch.svg">
  <defs
     id="defs4" />
  <sodipodi:namedview
     id="base"
     pagecolor="#ffffff"
     bordercolor="#666666"
     borderopacity="1.0"
     inkscape:pageopacity="0.0"
     inkscape:pageshadow="2"
     inkscape:zoom="1.4"
     inkscape:cx="299.75817"
     inkscape:cy="34.761004"
     inkscape:document-units="mm"
     inkscape:current-layer="layer1"
     showgrid="false"
     showguides="true"
     inkscape:guide-bbox="true"
     inkscape:window-width="1280"
     inkscape:window-height="774"
     inkscape:window-x="1080"
     inkscape:window-y="1128"
     inkscape:window-maximized="1">
    <sodipodi:guide
       position="106.5711,155.05842"
       orientation="1,0"
       id="guide4180" />
    <sodipodi:guide
       position="212.63712,63.639611"
       orientation="1,0"
       id="guide4182" />
    <sodipodi:guide
       position="319.20822,44.951788"
       orientation="1,0"
       id="guide4184" />
    <sodipodi:guide
       position="425.27424,74.246212"
       orientation="1,0"
       id="guide4186" />
  </sodipodi:namedview>
  <metadata
     id="metadata7">
    <rdf:RDF>
      <cc:Work
         rdf:about="">
        <dc:format>image/svg+xml</dc:format>
        <dc:type
           rdf:resource="http://purl.org/dc/dcmitype/StillImage" />
        <dc:title></dc:title>
      </cc:Work>
    </rdf:RDF>
  </metadata>
  <g
     inkscape:label="Layer 1"
     inkscape:groupmode="layer"
     id="layer1"
     transform="translate(0,-946.06299)">
    <rect
       style="fill:#ffffff;fill-opacity:1;stroke:#ff0000;stroke-width:2.5;stroke-miterlimit:4;stroke-dasharray:none;stroke-opacity:1"
       id="rect4136"
       width="529.54407"
       height="104.34723"
       x="0.97599781"
       y="947.039" />
    <g
       transform="translate(22.142857,962.49156)"
       style="font-style:normal;font-weight:normal;font-size:40px;line-height:125%;font-family:sans-serif;letter-spacing:0px;word-spacing:0px;fill:#000000;fill-opacity:1;stroke:none;stroke-width:1px;stroke-linecap:butt;stroke-linejoin:miter;stroke-opacity:1"
       id="flowRoot4138">
      <path
         d="m 24.246094,42.848482 6.445312,0 0,-22.246094 -7.011719,1.40625 0,-3.59375 6.972657,-1.40625 3.945312,0 0,25.839844 6.445313,0 0,3.320313 -16.796875,0 0,-3.320313 z"
         style=""
         id="path4201" />
    </g>
    <g
       transform="translate(124.14286,962.49156)"
       style="font-style:normal;font-weight:normal;font-size:40px;line-height:125%;font-family:sans-serif;letter-spacing:0px;word-spacing:0px;fill:#000000;fill-opacity:1;stroke:none;stroke-width:1px;stroke-linecap:butt;stroke-linejoin:miter;stroke-opacity:1"
       id="flowRoot4146">
      <path
         d="m 26.960937,42.848482 13.769532,0 0,3.320313 -18.515625,0 0,-3.320313 q 2.246093,-2.324219 6.113281,-6.230469 3.886719,-3.925781 4.882812,-5.058593 1.894532,-2.128907 2.636719,-3.59375 0.761719,-1.484375 0.761719,-2.910157 0,-2.324218 -1.640625,-3.789062 -1.621094,-1.464844 -4.238281,-1.464844 -1.855469,0 -3.925782,0.644531 -2.050781,0.644532 -4.394531,1.953125 l 0,-3.984375 q 2.382813,-0.957031 4.453125,-1.445312 2.070313,-0.488281 3.789063,-0.488281 4.53125,0 7.226562,2.265625 2.695313,2.265625 2.695313,6.054687 0,1.796875 -0.683594,3.417969 -0.664063,1.601562 -2.441406,3.789062 -0.488282,0.566407 -3.105469,3.28125 -2.617188,2.695313 -7.382813,7.558594 z"
         style=""
         id="path4204" />
    </g>
    <g
       transform="translate(236.14286,962.49156)"
       style="font-style:normal;font-weight:normal;font-size:40px;line-height:125%;font-family:sans-serif;letter-spacing:0px;word-spacing:0px;fill:#000000;fill-opacity:1;stroke:none;stroke-width:1px;stroke-linecap:butt;stroke-linejoin:miter;stroke-opacity:1"
       id="flowRoot4154">
      <path
         d="m 35.515625,30.446138 q 2.832031,0.605469 4.414062,2.519532 1.601563,1.914062 1.601563,4.726562 0,4.316406 -2.96875,6.679688 -2.96875,2.363281 -8.4375,2.363281 -1.835938,0 -3.789063,-0.371094 -1.933593,-0.351562 -4.003906,-1.074219 l 0,-3.808593 q 1.640625,0.957031 3.59375,1.445312 1.953125,0.488281 4.082031,0.488281 3.710938,0 5.644532,-1.464843 1.953125,-1.464844 1.953125,-4.257813 0,-2.578125 -1.816407,-4.023437 -1.796875,-1.464844 -5.019531,-1.464844 l -3.398437,0 0,-3.242188 3.554687,0 q 2.910156,0 4.453125,-1.152343 1.542969,-1.171875 1.542969,-3.359375 0,-2.246094 -1.601563,-3.4375 -1.582031,-1.210938 -4.550781,-1.210938 -1.621094,0 -3.476562,0.351563 -1.855469,0.351562 -4.082032,1.09375 l 0,-3.515625 q 2.246094,-0.625 4.199219,-0.9375 1.972656,-0.3125 3.710938,-0.3125 4.492187,0 7.109375,2.050781 2.617187,2.03125 2.617187,5.507812 0,2.421875 -1.386719,4.101563 -1.386718,1.660156 -3.945312,2.304687 z"
         style=""
         id="path4207" />
    </g>
    <g
       transform="translate(340.14286,962.49156)"
       style="font-style:normal;font-weight:normal;font-size:40px;line-height:125%;font-family:sans-serif;letter-spacing:0px;word-spacing:0px;fill:#000000;fill-opacity:1;stroke:none;stroke-width:1px;stroke-linecap:butt;stroke-linejoin:miter;stroke-opacity:1"
       id="flowRoot4162">
      <path
         d="m 34.402344,20.446138 -9.960938,15.566407 9.960938,0 0,-15.566407 z m -1.035157,-3.4375 4.960938,0 0,19.003907 4.160156,0 0,3.28125 -4.160156,0 0,6.875 -3.925781,0 0,-6.875 -13.164063,0 0,-3.808594 12.128906,-18.476563 z"
         style=""
         id="path4210" />
    </g>
    <g
       transform="translate(444.14286,962.49156)"
       style="font-style:normal;font-weight:normal;font-size:40px;line-height:125%;font-family:sans-serif;letter-spacing:0px;word-spacing:0px;fill:#000000;fill-opacity:1;stroke:none;stroke-width:1px;stroke-linecap:butt;stroke-linejoin:miter;stroke-opacity:1"
       id="flowRoot4170">
      <path
         d="m 23.601562,17.008638 15.488282,0 0,3.320313 -11.875,0 0,7.148437 q 0.859375,-0.292968 1.71875,-0.429687 0.859375,-0.15625 1.71875,-0.15625 4.882812,0 7.734375,2.675781 2.851562,2.675781 2.851562,7.246094 0,4.707031 -2.929687,7.324219 -2.929688,2.597656 -8.261719,2.597656 -1.835938,0 -3.75,-0.3125 -1.894531,-0.3125 -3.925781,-0.9375 l 0,-3.964844 q 1.757812,0.957031 3.632812,1.425781 1.875,0.46875 3.964844,0.46875 3.378906,0 5.351562,-1.777343 1.972657,-1.777344 1.972657,-4.824219 0,-3.046875 -1.972657,-4.824219 -1.972656,-1.777344 -5.351562,-1.777344 -1.582031,0 -3.164063,0.351563 -1.5625,0.351562 -3.203125,1.09375 l 0,-14.648438 z"
         style=""
         id="path4213" />
    </g>
    <path
       style="fill:none;fill-rule:evenodd;stroke:#000000;stroke-width:1px;stroke-linecap:butt;stroke-linejoin:miter;stroke-opacity:1"
       d="m 107.14286,947.3622 c 0,103.5714 -0.57177,103.5714 -0.57177,103.5714 l 0,0"
       id="path4188"
       inkscape:connector-curvature="0" />
    <path
       inkscape:connector-curvature="0"
       id="path4190"
       d="m 213.14286,947.3622 c 0,103.5714 -0.57177,103.5714 -0.57177,103.5714 l 0,0"
       style="fill:none;fill-rule:evenodd;stroke:#000000;stroke-width:1px;stroke-linecap:butt;stroke-linejoin:miter;stroke-opacity:1" />
    <path
       style="fill:none;fill-rule:evenodd;stroke:#000000;stroke-width:1px;stroke-linecap:butt;stroke-linejoin:miter;stroke-opacity:1"
       d="m 319.14286,947.3622 c 0,103.5714 -0.57177,103.5714 -0.57177,103.5714 l 0,0"
       id="path4192"
       inkscape:connector-curvature="0" />
    <path
       inkscape:connector-curvature="0"
       id="path4194"
       d="m 425.14286,947.3622 c 0,103.5714 -0.57177,103.5714 -0.57177,103.5714 l 0,0"
       style="fill:none;fill-rule:evenodd;stroke:#000000;stroke-width:1px;stroke-linecap:butt;stroke-linejoin:miter;stroke-opacity:1" />
  </g>
</svg>
