<?xml version="1.0" encoding="UTF-8" standalone="no"?>
<!-- Created with Inkscape (http://www.inkscape.org/) -->

<svg
   xmlns:dc="http://purl.org/dc/elements/1.1/"
   xmlns:cc="http://creativecommons.org/ns#"
   xmlns:rdf="http://www.w3.org/1999/02/22-rdf-syntax-ns#"
   xmlns:svg="http://www.w3.org/2000/svg"
   xmlns="http://www.w3.org/2000/svg"
   xmlns:sodipodi="http://sodipodi.sourceforge.net/DTD/sodipodi-0.dtd"
   xmlns:inkscape="http://www.inkscape.org/namespaces/inkscape"
   width="800mm"
   height="400mm"
   viewBox="0 0 2834.6457 1417.3228"
   id="svg2"
   version="1.1"
   inkscape:version="0.91 r13725"
   sodipodi:docname="sword.svg">
  <defs
     id="defs4" />
  <sodipodi:namedview
     id="base"
     pagecolor="#ffffff"
     bordercolor="#666666"
     borderopacity="1.0"
     inkscape:pageopacity="0.0"
     inkscape:pageshadow="2"
     inkscape:zoom="0.35"
     inkscape:cx="1224.0774"
     inkscape:cy="732.08204"
     inkscape:document-units="mm"
     inkscape:current-layer="layer1"
     showgrid="false"
     inkscape:window-width="1920"
     inkscape:window-height="1054"
     inkscape:window-x="1280"
     inkscape:window-y="0"
     inkscape:window-maximized="1" />
  <metadata
     id="metadata7">
    <rdf:RDF>
      <cc:Work
         rdf:about="">
        <dc:format>image/svg+xml</dc:format>
        <dc:type
           rdf:resource="http://purl.org/dc/dcmitype/StillImage" />
        <dc:title></dc:title>
      </cc:Work>
    </rdf:RDF>
  </metadata>
  <g
     inkscape:label="Layer 1"
     inkscape:groupmode="layer"
     id="layer1"
     transform="translate(0,364.96063)">
    <g
       transform="matrix(1.25,0,0,-1.25,-158.70027,1336.2968)"
       inkscape:label="sword"
       id="g4201"
       style="stroke:#ff0000;stroke-width:1;stroke-miterlimit:4;stroke-dasharray:none">
      <path
         inkscape:connector-curvature="0"
         id="path4203"
         style="fill:none;stroke:#ff0000;stroke-width:1;stroke-linecap:butt;stroke-linejoin:miter;stroke-miterlimit:4;stroke-dasharray:none;stroke-opacity:1"
         d="m 653.3748,1268.4523 c -4.7237,3.5816 -8.9711,22.9621 -13.722,31.0111 -30.5507,51.7782 -17.9436,-13.8254 -17.9405,-21.2675 -35.1479,0 -18.6168,-3.7426 -4.9767,-38.3437 -5.4947,-15.7989 -23.7532,-29.3511 -25.469,-42.0319 l 14.398,-6.9012 c -1.0846,-14.7489 -14.6988,-26.7534 -19.3734,-39.1663 l 3.7715,-13.7653 c -5.2285,-10.6237 -12.1728,-13.4198 -19.1863,-18.733 -7.2119,-5.4601 -13.6083,-0.01 -19.7978,-18.8598 2.9056,-8.8489 14.1132,-19.2569 19.4857,-19.4839 l 1.2988,-32.5041 c -12.9654,-7.2666 -25.9021,5.086 -37.8088,5.762 -25.6904,1.4528 -54.068,9.7005 -77.9646,9.6917 -42.8216,-0.017 -91.9256,-4.5856 -133.651,-24.9727 -6.264,-3.058 -12.3296,-1.5304 -19.1962,-3.4206 -12.4104,-3.4117 -10.4038,26.6386 -32.4105,4.341 -8.1973,18.995 -17.0204,38.9075 -32.6911,38.7493 -8.2044,-0.081 -30.3781,0.4145 -36.6911,-7.1543 -13.8067,-16.5325 -8.0175,-16.7655 -13.9896,-25.6057 -11.1084,-16.4375 -35.9302,-15.1803 -17.4861,-37.6965 -3.4735,-1.8813 -29.0865,-26.5059 -30.5146,-29.4863 1.6483,-5.0227 26.5362,-29.0633 30.4455,-29.2274 -12.6374,-35.0555 0.9609,-14.0499 17.9149,-39.6757 3.9598,-5.9865 6.1963,-30.3551 23.4063,-31.1261 31.3937,-1.4009 34.4474,-8.1065 49.8968,17.4503 3.8634,6.3919 7.6765,15.3358 9.8598,21.6876 3.465,-7.4307 6.4281,-9.9793 13.3582,-9.6888 9.811,0.4113 7.4778,5.506 12.2347,12.085 15.0349,0.4144 18.9331,0.1842 32.9411,-7.1085 28.9355,-15.0596 112.5402,-26.1808 138.6981,-21.9722 19.8997,3.1989 53.4364,4.5479 70.3732,10.2612 12.5855,4.2431 18.7231,8.1238 32.3745,7.7471 l 0.0289,-32.7717 c -4.8317,-2.0797 -17.2919,-12.088 -19.9129,-19.4437 5.8026,-22.8152 31.923,-22.7202 36.9817,-33.6115 3.7701,-8.1153 -0.6027,-8.1958 -1.2657,-15.9429 -1.2787,-14.9213 16.052,-17.5019 19.0857,-42.9982 l -14.8037,-5.7217 c 1.3938,-10.3331 9.0675,-16.7683 13.125,-21.9897 4.8328,-6.2224 9.6211,-11.7397 12.744,-21.21 -23.7832,-36.6897 -19.1259,-35.8699 4.7551,-39.2672 -0.2358,-23.0338 -14.572,-42.8142 7.9685,-30.0501 4.4331,2.5084 6.1101,3.8863 9.8541,9.5477 6.0253,9.1105 8.7409,29.639 15.0698,30.7522 0.2041,-0.0431 45.9037,-128.4599 111.4914,-57.3616 52.0342,56.3978 153.1177,267.7359 206.6463,123.7016 28.4247,-76.4776 12.1728,16.7656 5.9403,33.8043 -69.6915,190.5075 -182.7995,-80.551 -239.2322,-42.3309 0.7293,8.2936 9.8642,11.1099 11.9715,35.9445 7.816,92.0752 -43.598,103.0036 -42.9205,62.7468 27.6438,-14.8033 18.2166,-70.5886 -13.1797,-58.3395 -19.044,7.4304 -22.7851,54.0935 -12.3037,74.0063 42.3065,80.3438 989.5878,-79.2997 1142.9124,-32.9357 35.0543,10.6007 70.4667,18.6701 105.4964,30.1394 69.2728,22.6802 141.2569,34.8888 210.2664,59.2835 19.9732,7.0622 208.1693,55.0661 209.7558,61.3142 1.1608,7.8678 -181.9984,57.1518 -198.7336,61.1705 -66.8061,16.0407 -134.3112,42.1095 -201.0682,58.1933 -32.6276,7.8591 -68.1265,16.8316 -100.3816,28.1832 -286.0852,100.6849 -805.1687,-78.3879 -1153.9908,-35.8152 -23.4351,2.8621 -19.9556,37.8374 -17.0963,73.241 7.7026,7.1 23.3963,14.7549 32.8062,12.0334 9.9232,-2.871 21.4489,-48.3863 -4.0606,-58.4204 -6.389,-37.3252 50.7138,-34.2876 42.4922,59.7697 -2.1677,24.7799 -6.562,24.6937 -14.0012,37.7654 69.5174,0 178.8729,-215.0374 240.1109,-46.6832 46.0378,126.5266 -12.4676,23.5919 -21.1782,13.1292 -93.1209,-111.8322 -170.5952,252.2537 -271.0012,149.8626 -22.3563,-22.8007 -21.5019,-48.5733 -31.9603,-60.2904 z" />
      <path
         inkscape:connector-curvature="0"
         id="path4205"
         style="fill:none;stroke:#ff0000;stroke-width:1;stroke-linecap:butt;stroke-linejoin:miter;stroke-miterlimit:4;stroke-dasharray:none;stroke-opacity:1"
         d="m 1833.7686,942.925 c 0.8991,1.1384 10.9871,4.6358 13.7454,5.7685 10.2992,4.2296 25.1459,10.2464 35.8583,14.2501 1.7623,0.6588 5.4457,2.5353 7.6054,2.5934 4.2732,-0.8342 11.8859,-10.3771 13.5482,-12.477 1.0428,-1.3178 1.0063,-2.26 1.9201,-3.5991 1.1883,-1.7408 2.3641,-11.3635 0.489,-12.4345 -1.3198,-0.7537 -18.2262,-0.6159 -21.1753,-0.5352 -3.2106,0.0882 -6.5793,0.3303 -9.9601,0.4493 -5.7005,0.2002 -12.7517,1.0883 -18.3079,1.7249 -5.5216,0.6327 -19.8555,2.8916 -23.7231,4.2596 z m -792.5726,-6.548 c -3.0396,-0.1392 -6.3244,-0.0408 -9.3872,-0.0244 -16.204,0.0871 -7.1989,14.3816 -3.3951,18.5899 l 4.8404,5.5843 c 0.2671,0.2786 0.6775,0.6216 0.9899,0.9164 l 2.1776,1.7002 c 0.4938,0.4309 2.9894,2.3046 4.0453,2.3437 0.9785,0.0363 11.1651,-3.8449 12.9421,-4.6805 5.1818,-2.437 10.6685,-3.8608 16.382,-6.3533 6.0361,-2.6331 10.7569,-4.0544 17.6335,-7.0212 1.2875,-0.5556 2.5106,-0.756 3.8931,-1.3637 1.1169,-0.4913 6.461,-2.4781 6.7859,-2.9812 -2.365,-0.9471 -5.5367,-1.3332 -8.625,-1.927 -1.3638,-0.2625 -3.3015,-0.5437 -4.8841,-0.8328 -13.6661,-2.4979 -28.6149,-3.2749 -43.3984,-3.9504 z m 638.7596,30.3613 c 5.6001,-1.0783 42.4261,-16.6691 52.8693,-20.5307 1.3186,-0.4876 7.001,-2.6859 7.4361,-3.1714 -4.8552,-1.6322 -16.8469,-3.2996 -22.9992,-4.205 -2.2178,-0.3262 -4.1797,-0.4286 -6.3995,-0.7409 -9.5372,-1.3417 -20.658,-1.2201 -30.4889,-1.5543 -4.5553,-0.155 -19.4703,0.5491 -23.9301,0.8677 -8.541,0.6109 -18.3999,1.7609 -26.3131,3.1692 -2.088,0.3716 -3.3477,0.7693 -5.1778,1.1463 -1.5605,0.3217 -5.1497,0.644 -4.7367,1.4777 l 46.5477,18.4969 c 2.0801,1.0426 11.1283,4.5981 13.1922,5.0445 z m -213.9877,0.226 c 1.5358,-0.3062 12.7236,-4.9601 15.0812,-5.8139 5.0924,-1.8439 10.3691,-4.0708 15.2586,-5.9842 2.4398,-0.955 4.9059,-1.9899 7.3239,-2.9526 2.5826,-1.0281 5.1278,-1.9216 7.7178,-2.9582 l 11.2167,-4.5091 c 1.0792,-0.4414 3.1782,-1.0293 3.9096,-1.4973 -2.5223,-1.3974 -19.2855,-4.1164 -22.5941,-4.3378 -2.0747,-0.1386 -2.1308,-0.1616 -4.0601,-0.402 -2.1535,-0.2681 -5.1528,-0.5729 -7.3389,-0.7951 -3.037,-0.3087 -5.4703,-0.3532 -8.2698,-0.6477 l -17.8222,-0.6491 c -12.0807,-0.0233 -22.3892,0.7452 -33.9376,1.9295 -5.1502,0.5284 -24.1968,3.2712 -27.0805,4.7228 0.3385,0.3884 30.9532,12.6071 37.6798,15.0182 2.7207,0.9754 4.8039,2.151 7.473,3.0368 3.3917,1.1254 14.3019,5.6818 15.4426,5.8397 z m -213.9548,-0.3294 c 1.3218,-0.3121 6.2884,-2.1912 7.8123,-2.8112 5.3492,-2.1764 9.0887,-3.4166 14.813,-5.8439 l 7.6368,-2.9922 c 2.2357,-0.9556 5.0763,-1.9607 7.4305,-2.9118 1.2917,-0.5215 2.7643,-0.9606 3.8695,-1.3955 1.1237,-0.4422 2.2836,-1.0148 3.585,-1.5083 2.7026,-1.0253 14.1667,-5.0952 14.7413,-6.1449 -1.4488,-0.6616 -8.5116,-1.9315 -10.8952,-2.3502 -7.4262,-1.3054 -11.6062,-1.781 -19.2365,-2.6501 -1.4607,-0.1664 -2.3037,-0.1131 -3.6346,-0.2308 -1.4363,-0.1267 -1.6979,-0.3362 -3.4432,-0.415 -3.3429,-0.1508 -4.2761,-0.1941 -7.5453,-0.4441 -1.7407,-0.1333 -6.2872,-0.1996 -8.1771,-0.1965 -3.5623,0.005 -7.1983,-0.5995 -16.024,-0.2511 -4.7381,0.1868 -10.2625,0.6596 -14.9405,0.9031 -10.7802,0.5607 -17.3682,2.0072 -25.9881,3.3709 -15.2608,2.4149 -12.346,1.7113 -2.3193,5.6943 l 34.3163,13.5657 c 3.1436,1.2249 14.9198,6.2998 17.9991,6.6116 z m 331.4146,-37.1248 c 2.0248,0.4382 3.511,1.0766 5.4564,1.7416 4.1601,1.4221 11.2572,4.4623 15.9154,6.2141 2.6719,1.0052 4.2647,2.4712 8.1034,1.4675 17.2128,-4.5009 43.7672,-7.0044 64.588,-7.3072 13.3239,-0.1938 14.0496,0.3283 25.6813,0.9066 9.921,0.4935 2.9095,0.0785 11.3201,0.913 3.212,0.3189 7.5634,0.8734 10.7649,1.2841 17.1601,2.2011 37.9939,7.9367 50.4728,13.0088 9.0845,3.6929 18.6157,7.2873 27.7232,10.9817 9.0272,3.6617 19.1103,7.2017 27.8889,10.9065 3.3078,1.3961 26.1598,10.5061 28.4392,10.7632 3.56,-0.9666 23.1567,-9.0454 24.5656,-10.4185 -1.1138,-0.7305 -25.0209,-9.7316 -29.026,-11.3884 -9.316,-3.8537 -19.3949,-7.6712 -29.0264,-11.4336 -18.4683,-7.2144 -39.2426,-16.5829 -62.5221,-21.253 -13.3807,-2.6844 -26.9864,-5.2801 -41.8187,-6.4676 -3.7414,-0.2996 -8.0666,-0.6304 -11.7071,-1.0349 -4.4739,-0.4969 -8.0189,-0.451 -12.4495,-0.7619 -7.8899,-0.5539 -20.2974,-0.3277 -28.578,-0.2693 -7.9027,0.0558 -17.5346,0.8061 -25.3715,1.3878 -14.9902,1.112 -52.0325,6.5991 -60.4199,10.7595 z m -582.6113,47.7859 c 0.6177,0.8997 0.7651,0.8903 2.0515,1.6228 1.2336,0.7027 0.7993,0.9479 2.984,1.112 l 7.4007,-3.2933 13.3294,-5.4121 c 1.0635,-0.3504 1.5142,-0.442 2.3813,-0.853 3.2021,-1.5179 2.8554,-0.686 -2.7207,-4.7837 -1.9768,-1.4528 -4.5314,-4.1381 -6.4689,-5.8805 -0.5661,-0.5091 -1.1871,-1.6685 -1.5432,-2.2451 -3.0143,-4.8852 -8.4747,-14.7415 -5.7736,-19.58 0.2883,-0.5167 0.5165,-1.9009 0.5397,-2.5038 0.05,-1.2708 0.4757,-1.4695 1.0633,-2.5878 7.2139,-1.0403 11.4965,-0.5428 18.3246,-0.9788 7.3771,-0.4708 11.5512,0.1823 18.7801,0.2262 4.1247,0.025 5.7478,0.2934 9.3713,0.4315 7.9126,0.3013 16.8917,1.6954 24.414,2.5954 7.0769,0.847 21.4072,3.7281 27.1698,5.5323 3.6589,1.1458 8.4971,2.2984 11.6679,3.511 3.4356,1.3145 7.0555,2.6272 10.5463,3.9478 6.9475,2.6289 13.9816,5.3595 20.6229,8.0992 6.6286,2.7346 14.1463,5.2705 20.7805,8.0376 6.6064,2.7559 14.038,5.3462 20.5149,8.1323 3.0515,1.3128 7.2199,2.6901 10.4233,3.9977 3.6292,1.4814 6.4244,2.6263 10.2591,4.0485 1.7074,-0.2585 4.9462,-1.764 6.2468,-2.4001 0.5034,-0.2461 9.8654,-3.4194 12.8213,-4.9935 0.7453,-0.3969 1.9395,-0.8578 2.9645,-1.258 1.2098,-0.4726 2.3635,-0.7345 3.3684,-1.3298 -0.9618,-1.1463 -31.3013,-12.7485 -35.9005,-14.5349 -11.9421,-4.6392 -24.7385,-9.491 -36.2503,-14.2597 -26.4954,-10.9757 -51.2319,-18.0941 -88.8667,-22.1216 -21.2233,-2.2714 -43.6938,-2.8706 -65.5234,-1.7197 -27.5184,1.4505 -34.8035,1.7912 -38.7059,13.2967 -2.6198,7.7239 -2.2936,12.7389 -0.4831,20.2045 0.4794,1.9763 2.0047,3.9039 3.0393,5.8649 3.5201,6.6719 7.7066,9.8804 14.567,15.7244 1.8842,1.6052 4.5403,2.8082 6.6044,4.3506 z m 637.1958,0.4059 c 1.6353,0.6185 6.0633,2.0843 7.1215,2.6955 3.3154,-0.5451 10.224,-3.7868 13.2548,-4.9683 1.9066,-0.743 12.054,-4.3934 12.7088,-4.9649 0.1072,-0.9981 -37.4006,-14.7198 -43.558,-17.1525 -4.8353,-1.9105 -9.5953,-3.9024 -14.4567,-5.8203 -9.6769,-3.8174 -19.8323,-7.606 -29.3318,-11.4752 -9.8577,-4.015 -21.2249,-7.0351 -33.2427,-9.9267 -27.2129,-6.5477 -62.7038,-9.4246 -94.3313,-8.7072 -9.2336,0.2095 -16.8996,0.7172 -25.93,1.3527 -8.0985,0.5698 -14.9714,1.6251 -22.748,2.5538 -7.6306,0.9116 -33.5149,5.7571 -38.0571,8.0322 0.8646,0.5871 4.8628,1.8091 6.3808,2.3715 l 19.1852,7.5611 c 3.0061,-0.0145 9.8543,-1.5537 12.8256,-2.1815 10.4618,-2.2111 31.9025,-4.9289 43.3032,-4.9371 2.7898,-0.002 5.8263,-0.1046 8.6649,-0.1528 3.1731,-0.0536 4.1488,-0.4757 8.2134,-0.2937 5.366,0.2404 11.8131,0.1854 16.8605,0.6639 2.8383,0.269 10.5814,0.4918 15.7215,1.1917 11.9443,1.6265 27.701,3.6765 37.9139,6.7926 3.4152,1.042 7.2647,1.8553 10.9469,3.0022 10.3025,3.2091 19.2061,7.0889 28.461,10.6778 2.8675,1.1118 6.7237,2.4852 9.2565,3.6417 15.1376,6.9117 34.2411,13.5485 50.8371,20.0435 z m -409.9453,-59.8326 c -0.6843,0.5621 0.7069,-0.1981 -0.2778,0.3226 -1.7785,0.032 -3.5762,0.1514 -5.4984,0.193 l -10.4029,0.8357 c -2.0256,0.2463 -3.0472,0.1962 -5.2837,0.5199 -3.2069,0.464 -9.0822,0.8668 -14.0749,1.7643 -1.8275,0.3282 -3.0852,0.4107 -4.8285,0.7046 l -20.8939,4.0842 c -3.5476,0.8084 -8.4589,1.607 -11.7485,3.0274 4.0961,1.692 9.0485,3.1655 13.3345,4.9745 l 13.0833,5.065 c 1.7804,-0.1335 14.1908,-2.6192 16.4058,-3.1198 5.4858,-1.2399 12.149,-1.7445 18.013,-2.6261 7.4027,-1.1131 10.1333,-0.8237 15.3904,-1.1426 2.0931,-0.1267 3.1054,-0.3161 5.4139,-0.3419 3.3557,-0.0371 8.246,-0.064 11.4372,-0.3169 5.3714,-0.4257 6.4627,0.125 11.2383,0.1826 8.1005,0.0978 13.7276,0.5011 21.5594,1.118 12.2551,0.9646 24.9996,3.0149 35.9405,5.3608 5.3167,1.1399 9.9624,2.5096 14.9224,3.856 8.7222,2.3681 23.3867,8.4172 31.6259,11.7207 14.2654,5.7195 28.9052,11.1096 43.1348,16.907 3.3732,1.3742 22.5187,9.2177 25.2099,9.5116 4.5578,-1.8873 24.6561,-9.4178 25.3741,-10.0125 -0.8161,-0.646 -40.5871,-16.109 -45.3195,-17.9238 -1.8635,-0.7149 -4.1193,-1.3671 -5.8357,-2.0837 l -17.0909,-6.8882 c -7.6904,-2.9358 -15.1098,-6.1172 -22.8861,-8.9938 -29.9282,-11.0715 -74.7717,-17.6244 -116.0904,-17.2465 -3.8134,0.0349 -7.6821,-0.005 -11.474,0.0887 -3.7111,0.0916 -6.5098,0.4694 -10.3782,0.4592 z m -19.9137,66.0305 c -1.3499,-0.9762 -12.5493,-5.2511 -15.2884,-6.2472 -5.4646,-1.9874 -19.815,-8.0793 -23.8564,-9.2622 -3.5308,-1.0333 -22.1224,-8.983 -24.0888,-9.182 -2.048,-0.2072 -14.0567,4.9751 -16.1033,5.7849 -5.2708,2.0849 -10.5849,4.159 -15.8817,6.234 l -31.1624,12.583 c -0.4683,0.934 12.4243,5.4842 14.7515,6.4142 5.2078,2.0812 10.6209,4.1584 15.8859,6.2297 5.1968,2.0446 10.7561,3.9906 16.0495,6.0095 2.3182,0.8838 14.54,6.0253 16.4713,6.0596 1.1211,0.02 1.8028,-0.4465 4.1879,-1.3774 1.1259,-0.4393 3.0515,-1.0162 4.1153,-1.4627 0.6239,-0.2616 1.1325,-0.697 1.5307,-0.8637 0.5653,-0.2361 2.7947,-0.5913 6.293,-2.2198 l 3.7301,-1.6103 c 1.292,-0.5106 2.8148,-0.9236 4.1935,-1.4332 l 15.6377,-6.344 c 3.1067,-1.5338 21.4319,-7.5481 23.5346,-9.3124 z m 515.7513,0 c 1.1931,1.0528 26.9838,10.8899 31.2489,12.5703 2.4502,0.9652 5.5091,2.2085 8.0115,3.0262 1.9922,0.6512 6.2822,2.3525 8.0328,3.1414 2.4234,1.0922 5.474,1.9865 7.8424,3.0592 l 8.1153,3.1521 c 2.3493,-0.3731 27.5884,-10.6892 31.7758,-12.3044 3.814,-1.4712 30.6629,-11.8635 31.3548,-12.6541 -2.315,-1.4009 -9.6587,-3.6936 -11.6812,-4.6505 -0.5392,-0.2551 -0.9497,-0.5137 -1.4982,-0.7257 l -25.7981,-10.0947 c -8.0903,-2.8177 -15.7354,-6.3046 -24.1531,-9.3167 -2.7559,0.762 -5.633,1.9908 -8.1275,2.9792 l -39.3027,15.4936 c -3.1223,1.2192 -14.0329,5.2731 -15.8207,6.3241 z m -151.1487,-24.7702 c -0.9303,-0.0369 -28.8312,11.0687 -31.7265,12.1527 l -15.6002,6.1608 c -2.7521,1.2671 -14.4955,5.3175 -15.4715,6.4531 0.2821,0.864 5.438,2.6702 7.2437,3.3627 1.6588,0.6364 2.4327,0.7245 3.924,1.529 l 23.5298,9.2313 c 3.1663,1.5857 4.775,1.7096 7.9764,3.0141 1.224,0.4989 2.5804,1.2101 3.6927,1.6211 2.5229,0.9326 6.1016,2.0415 8.0243,2.9954 1.2408,0.6157 6.8729,2.9117 8.4073,3.0912 1.275,0.034 6.8372,-2.2453 8.5161,-2.8744 2.6924,-1.0085 5.1693,-2.1098 7.886,-3.0617 3.7752,-1.3226 18.9298,-7.8298 23.3785,-9.2812 4.4742,-1.4598 13.4555,-5.4243 19.533,-7.6986 1.61,-0.6026 3.3335,-1.1009 3.5929,-1.9584 -0.8374,-0.6548 -10.4738,-4.5414 -12.4249,-5.2138 l -32.2701,-12.6023 c -3.805,-1.5729 -14.8703,-6.2515 -18.2115,-6.921 z m -276.8817,24.7702 c 1.3805,1.5078 10.376,4.3413 13.2585,5.565 5.4944,2.3321 12.2814,4.7738 17.9156,7.06 2.4777,1.0054 4.9509,2.2714 7.6371,3.1371 l 8.28,3.0784 c 2.5134,1.0503 5.3019,2.0387 7.8324,3.077 10.2166,4.1925 6.7048,3.6706 16.2833,-0.027 l 23.7002,-9.3192 c 4.5337,-1.7969 30.3199,-11.3678 31.2021,-12.5714 -0.1817,-0.9567 -33.9424,-13.513 -41.0222,-16.3312 l -6.4998,-2.3179 c -2.6136,-0.949 -13.9898,-5.832 -16.1053,-6.1407 l -15.8823,6.0849 c -1.3065,0.4813 -2.5557,1.0479 -3.7236,1.6188 -0.6071,0.2968 -5.4314,1.8335 -7.842,3.0717 l -27.5156,10.7172 c -1.8352,0.7523 -6.4968,2.4588 -7.5184,3.2972 z m 481.8819,-28.5043 -2.9401,-1.3056 c -4.1987,-1.7431 -20.3026,-8.0507 -23.5313,-8.3622 -3.4149,0.9391 -8.0155,3.2473 -11.2498,4.435 -3.8957,1.431 -7.492,3.1377 -11.2558,4.4873 -7.8245,2.8057 -15.49,5.9754 -23.063,8.9209 -7.3607,2.8627 -15.6478,5.9706 -22.6474,8.9249 -7.2425,3.0563 -15.4803,5.9641 -22.9689,8.9501 -15.1035,6.0222 -30.4642,11.8749 -45.6973,17.8412 -7.605,2.9784 -15.0925,6.1269 -22.7489,9.0417 -2.0123,0.7659 -3.5917,1.41 -5.4932,2.2159 -5.9057,2.5032 -6.9571,0.9836 8.4951,7.1895 2.2587,0.9068 9.5738,3.4857 12.1221,4.1451 1.5372,0.3977 1.834,0.3756 3.0158,-0.086 10.5474,-4.1213 20.8015,-8.3732 31.4855,-12.4359 15.3885,-5.8515 30.1729,-12.0662 45.6358,-17.871 14.5798,-5.4728 31.5154,-12.8744 45.4414,-17.9336 7.8945,-2.8681 15.1415,-6.0529 22.8708,-8.9966 3.602,-1.372 21.3259,-7.9852 22.5292,-9.1602 z m 18.2197,57.1768 c 1.9068,1.0876 24.2727,9.5652 26.206,9.644 1.1222,0.046 16.7811,-6.2963 18.572,-7.0617 5.737,-2.4499 12.46,-4.9141 18.4782,-7.3179 12.0946,-4.8305 24.715,-9.6823 37.0304,-14.4416 13.3798,-5.1704 23.4765,-9.4607 34.0333,-15.6147 14.5752,-8.4968 26.2092,-22.8498 26.318,-33.067 0.026,-2.4383 0.1193,-4.8773 -0.03,-7.3171 -0.1179,-1.9176 -1.446,-4.4642 -2.09,-6.4431 -1.1242,-3.454 -2.8117,-8.102 -10.6036,-10.2467 -8.3712,-2.304 -35.3999,-3.3264 -46.6523,-3.3726 -5.4156,-0.0222 -13.0518,-0.129 -18.2715,0.1471 -21.7681,1.1508 -37.9392,2.3641 -58.1468,6.2949 -6.111,1.1888 -18.6546,3.6938 -23.1197,5.5451 l 15.8695,5.9959 c 2.2907,0.7384 5.0184,2.0511 7.5166,3.0222 1.8561,0.7218 2.3505,1.1645 5.055,0.6631 1.7244,-0.3198 3.2182,-0.8068 4.9269,-1.154 12.9785,-2.6368 20.9929,-3.5436 34.507,-4.8189 3.2925,-0.3107 10.2544,-0.8444 13.5017,-0.8977 5.1078,-0.0839 9.1406,-0.3113 14.0542,-0.4896 2.7394,-0.0992 10.7476,0.4195 14.4904,0.468 14.8281,0.1911 9.5704,2.1903 11.9245,7.6263 2.7346,6.3134 -3.0923,14.5645 -8.064,20.6159 -2.3445,2.8539 -11.5112,9.5456 -16.0299,11.8357 -1.1268,0.5709 -2.4894,1.0596 -3.5311,1.6657 -5.8958,3.429 -3.2159,1.7881 -10.605,4.9192 -2.3218,0.9839 -5.3529,2.1629 -7.8724,3.0719 l -15.6356,6.1614 c -7.0835,3.0991 -61.0832,23.3082 -61.8315,24.5662 z m -428.6591,-0.014 c 2.8834,0.9077 6.5355,2.6286 9.335,3.668 1.0675,0.396 2.4364,0.7277 3.5901,1.1827 3.0835,1.2152 10.408,4.1944 13.9847,4.7137 3.2088,-0.7265 17.7205,-6.7076 21.2845,-8.1612 13.275,-5.4142 29.6745,-11.3021 42.2592,-16.5997 6.7402,-2.8372 14.6344,-5.4698 21.1394,-8.3858 l 21.0452,-8.236 c 9.8502,-3.2601 30.5054,-12.3007 42.4911,-16.6816 3.6366,-1.3289 6.9211,-2.9078 10.3884,-4.1746 2.9801,-1.0891 8.7812,-3.0149 10.6642,-4.326 -1.618,-1.2024 -21.4095,-8.8883 -24.7116,-9.5283 -2.6138,-0.5072 -4.8994,0.9164 -6.7442,1.6341 l -18.5564,7.2865 c -16.2519,6.4125 -32.5794,12.7967 -48.8503,19.1959 -8.9099,3.5042 -96.9083,37.7932 -97.3193,38.4123 z m -187.0773,9.5854 c 3.047,-0.7881 8.0104,-2.9475 10.777,-4.0524 27.7577,-11.0855 56.7808,-22.2061 84.7914,-33.253 l 15.7785,-6.2705 c 1.6228,-0.5757 3.9557,-1.4528 5.4535,-2.071 3.4016,-1.4046 7.0589,-2.9171 10.6345,-4.242 1.9298,-0.7149 2.9667,-1.4457 5.0125,-2.0645 6.7862,-2.0532 20.7397,-8.485 26.629,-10.4409 2.5962,-0.8623 8.736,-3.2726 10.3923,-4.3537 -1.7889,-1.0709 -16.948,-6.8958 -20.6546,-7.9316 -3.2995,-0.9219 -4.6741,-2.2819 -8.0575,-0.9224 -8.8869,3.5711 -18.3719,7.4798 -27.589,10.8785 -4.7917,1.7668 -9.0292,3.6825 -13.7985,5.4303 -4.432,1.6243 -9.6194,3.6902 -13.7991,5.4247 -8.8809,3.6862 -18.6335,7.1668 -27.7333,10.804 -18.2449,7.2921 -36.7174,14.5394 -55.1171,21.7613 l -27.8212,10.8022 c -3.2763,1.0701 0.7441,1.8111 3.1104,2.7561 7.1782,2.8676 13.6075,5.6047 21.9912,7.7449 z m 711.1613,-19.7697 c -1.7666,0.089 -8.1808,2.7595 -9.7021,3.4418 -3.0002,1.3465 -6.5311,2.3772 -9.3368,3.6088 l -36.8972,14.4989 c -3.668,1.3456 0.995,1.7487 7.9691,3.1252 13.265,2.6175 29.7652,3.818 44.3262,4.3115 2.9902,0.1012 15.5863,0.125 18.0992,-0.1613 2.5231,-0.2874 2.0202,-1.9159 2.075,-2.7541 0.2154,-3.2927 0.1508,-6.8987 -1.7014,-10.1497 -0.6267,-1.099 -0.7815,-2.0923 -1.4975,-3.1712 -0.5834,-0.8781 -1.3859,-2.0077 -1.8664,-2.8627 -0.8943,-1.5925 -8.4994,-9.2225 -11.4681,-9.8872 z m -699.4562,22.6057 c 2.054,0.6999 3.7837,0.9885 6.1954,1.4406 6.696,1.2552 21.3253,3.6059 27.9051,4.0243 1.5542,0.099 3.2261,0.017 4.7254,0.1857 6.317,0.7115 14.3696,0.8337 21.2105,0.8368 13.4047,0.01 34.8474,-1.4474 47.3201,-3.8645 2.6547,-0.5145 9.7226,-1.6438 12.5652,-2.5662 -0.1627,-0.9156 -1.787,-1.2024 -3.475,-1.758 -1.188,-0.3909 -2.5685,-1.0279 -3.6397,-1.4749 -6.8879,-2.8755 -15.0783,-5.8028 -22.161,-8.9603 l -15.213,-5.8394 c -2.8661,-1.1361 -12.8256,-5.2642 -15.4862,-5.6931 -3.0946,0.597 -5.6973,1.8 -8.2003,2.8191 -7.371,3.0013 -19.6892,7.482 -26.1349,10.3028 -1.2492,0.5465 -2.5883,0.7877 -3.905,1.3666 l -7.314,2.9712 c -2.5256,0.9757 -4.816,2.0021 -7.5288,2.8914 -1.7719,0.5808 -6.4865,2.5268 -6.8638,3.3179 z m -100.7379,1.6648 c 0.9947,-0.2027 2.0993,-0.5788 3.2576,-0.7948 1.3178,-0.2455 2.266,-0.3303 3.5365,-0.6514 0.029,-0.8459 -3.7718,-1.9174 -6.4432,-3.0691 -2.2204,-0.9573 -4.9059,-1.8156 -7.247,-2.8213 -4.3152,-1.8539 -9.7577,-3.8393 -14.3822,-5.6821 -5.6469,-2.2501 -16.6411,-6.2555 -21.6924,-8.4773 -8.5558,-3.7629 -8.1847,-2.9497 -12.0342,0.069 -1.5381,1.2059 -4.0167,3.087 -4.7894,4.4178 -12.1312,20.9084 -11.1886,31.4657 59.7943,17.0093 z m 589.1428,-25.3995 c -3.0203,0.3418 -14.4666,5.3288 -17.5289,6.5369 -11.027,4.3501 -23.6432,9.0664 -34.3304,13.3983 -10.652,4.3177 -12.1847,3.2774 1.9177,5.989 15.6024,3.0002 28.6299,3.2468 30.0844,3.4501 5.2639,0.7358 22.0889,0.9034 27.7106,0.7611 6.2592,-0.1579 23.4366,-1.4828 28.5914,-2.2218 4.3619,-0.6254 8.0297,-0.9854 12.3123,-1.8108 2.4108,-0.4646 9.4606,-1.673 11.0851,-2.3114 -0.6327,-0.9513 -12.0271,-5.1845 -14.5788,-6.1024 -2.5535,-0.9181 -4.9689,-2.1501 -7.5391,-3.0226 -3.8191,-1.2963 -17.4174,-7.0115 -22.5249,-8.822 -3.06,-1.0848 -12.5867,-5.2557 -15.1994,-5.8444 z m -274.8821,23.7914 c 1.3003,0.4947 10.1308,2.0852 12.8035,2.5277 4.7047,0.7784 9.4306,1.271 14.1367,2.0452 7.4608,1.2268 21.2071,1.3552 24.6875,1.6642 9.4754,0.8407 32.646,-0.4859 42.482,-1.6537 2.3097,-0.2744 12.3089,-1.4497 14.3736,-1.9429 3.5011,-0.8365 9.4629,-1.707 12.3758,-2.56 -0.074,-0.7452 -24.533,-10.0261 -29.7507,-12.1011 -3.9728,-1.5797 -27.9409,-11.4865 -30.6077,-11.9282 -2.3593,0.3578 -13.2035,4.896 -15.5806,5.8448 -4.9439,1.9735 -10.2974,3.9308 -15.3573,5.9525 -2.423,0.9683 -5.2877,2.0333 -7.5146,3.0353 -2.4149,1.0871 -5.0627,1.9358 -7.6332,2.9976 -2.3587,0.9746 -14.3917,5.1718 -14.415,6.1186 z m 413.8064,2.1271 c -13.8878,-3.361 -38.9285,-14.2018 -52.8642,-19.5596 -5.7628,-2.2158 -11.6087,-4.4237 -17.289,-6.66 -5.6143,-2.2099 -11.0699,-4.6876 -16.9759,-6.7668 -3.4313,-1.2079 -15.8156,-6.6326 -18.0394,-6.4662 -1.5519,0.1163 -16.6501,6.6249 -18.4487,7.2032 -1.6466,0.5292 -5.1063,1.6287 -5.9865,2.4324 1.4582,1.8637 30.8248,12.3551 36.4785,14.8821 7.9353,3.5467 19.2271,7.4404 27.8898,10.9151 2.8312,1.1356 6.0545,2.5841 8.9306,3.6221 1.7178,0.6203 3.3338,1.0951 4.8747,1.8054 1.5667,0.7223 2.4369,1.2334 4.3364,1.8652 3.2843,1.0916 6.4712,2.3465 9.6293,3.5053 6.6589,2.4429 13.7747,4.2353 21.104,6.2896 9.8574,2.7626 25.9455,5.4445 37.6886,7.0548 5.1173,0.7019 9.0031,1.0222 14.0723,1.5792 18.8637,2.073 32.5015,1.669 51.2336,1.6756 6.0064,0 10.461,-0.4655 16.3205,-0.7971 27.3614,-1.5489 29.643,-3.6162 33.3749,-15.8517 2.5024,-8.2048 0.7843,-18.303 -5.1052,-26.2729 -3.7299,-5.0462 -14.9948,-15.8255 -24.3947,-19.4179 -2.2553,0.5094 -5.5588,2.291 -7.6391,3.0736 l -15.2717,5.9735 c -4.375,1.6138 -2.8088,1.317 0.3739,3.7851 4.2784,4.0048 8.6993,7.7508 11.8659,11.8837 3.3176,4.3276 7.069,17.9767 1.7376,22.3225 -13.9144,4.9261 -83.5092,-4.6094 -97.8962,-8.0762 z m -318.672,-39.7675 c -3.6173,0.923 -11.9517,4.4524 -15.3677,5.851 -11.8761,4.8617 -12.5346,3.7996 -6.4851,6.0673 10.1194,3.7933 20.1373,7.905 30.0327,11.821 10.0576,3.9804 20.1824,7.9458 30.3033,11.901 10.0051,3.9101 19.8847,8.039 30.6048,11.6263 40.2854,13.4802 87.245,17.9059 138.7443,15.0094 8.46,-0.4759 8.166,-0.786 12.4999,-1.0703 10.0763,-0.6613 23.9502,-2.865 33.4029,-4.5899 6.5441,-1.1939 13.0669,-2.9625 19.4493,-4.3446 5.4343,-1.177 1.0273,-1.8604 -1.8425,-2.8344 -5.9386,-2.0154 -9.9351,-3.6281 -15.3059,-5.8051 -9.9131,-4.0184 -5.7544,-2.3825 -17.411,-0.2299 -3.422,0.6319 -6.9911,1.1988 -10.5157,1.7402 -6.4834,0.9961 -29.0718,3.4793 -36.3404,3.6017 -13.2262,0.2228 -16.5801,0.09 -29.0614,-0.3577 -13.1567,-0.4717 -5.0867,-0.2752 -12.5495,-0.8838 -7.8914,-0.6438 -15.4888,-1.6946 -22.9972,-2.8285 -6.9829,-1.0544 -13.1672,-2.8417 -19.7518,-4.1935 -4.8977,-1.0055 -12.947,-3.5745 -17.3611,-5.0222 -2.768,-0.9079 -4.9819,-2.0335 -7.5155,-3.0316 -2.3131,-0.9114 -5.4099,-1.965 -7.4752,-2.8846 l -14.9162,-5.9677 c -2.4761,-0.9539 -5.3456,-1.9205 -7.901,-2.8968 -2.4024,-0.9178 -4.822,-2.0148 -7.2683,-2.967 -5.0222,-1.9545 -9.8448,-3.9864 -14.8774,-5.9831 -5.0046,-1.9851 -10.076,-3.9126 -15.006,-5.9289 -3.5745,-1.4618 -11.3437,-4.6882 -15.0883,-5.7983 z m -213.8845,0.036 c -3.8497,0.9865 -12.9022,4.788 -16.7505,6.2884 -10.434,4.0674 -11.2501,3.5838 -2.3051,6.6997 5.4348,1.8932 11.0976,4.3254 16.319,6.3788 l 48.3667,19.0624 c 12.896,5.076 18.7949,7.8318 33.9395,12.0935 29.196,8.2156 61.3693,12.596 97.6133,12.5645 5.309,0 11.0631,0.084 16.318,-0.1083 4.2114,-0.1539 10.6979,-0.2772 14.5411,-0.6454 8.5649,-0.8206 17.2718,-1.4423 25.6317,-2.5725 7.8324,-1.0587 38.6414,-6.2713 42.2363,-8.7145 -0.309,-0.1142 -0.8266,-0.2602 -0.9927,-0.3195 l -2.6493,-0.89 c -1.5284,-0.4502 -2.0942,-0.8238 -3.6334,-1.3312 -1.9463,-0.642 -5.294,-1.9542 -7.0909,-2.7408 l -1.7966,-0.7401 c -0.7192,-0.2444 -1.0607,-0.3864 -1.6957,-0.6384 -1.1574,-0.4592 -2.3389,-0.919 -3.5201,-1.3711 -4.7738,-1.8275 -4.7539,-2.3916 -7.3125,-1.7187 -4.2313,1.1126 -13.93,3.1122 -18.7089,3.71 -3.4901,0.4368 -6.8539,1.0114 -10.2907,1.4389 -3.3701,0.4189 -7.6711,0.6605 -11.0877,1.0375 -4.1187,0.4544 -21.1014,1.3305 -24.5829,1.305 -9.0326,-0.067 -17.0702,-0.045 -26.0098,-0.8005 -7.3021,-0.6171 -15.1212,-1.0519 -22.3614,-2.2606 -6.609,-1.1032 -12.363,-2.1617 -18.7914,-3.4138 -13.8875,-2.7051 -20.7712,-5.5391 -31.7829,-9.5675 -9.5281,-3.4857 -18.6188,-7.3099 -27.8711,-10.9179 l -21.1227,-8.227 c -2.3907,-1.0179 -4.6338,-1.7081 -6.8967,-2.6305 -4.1774,-1.7022 -10.5171,-3.8016 -14.0133,-5.4936 -3.7392,-1.8093 -10.4077,-3.6139 -13.6993,-5.4768 z m -49.6684,62.915 c 34.99,1.1233 67.5664,-1.6013 98.136,-8.3415 9.999,-2.2045 15.9319,-2.7978 8.8552,-5.1137 -4.7313,-1.5486 -11.0821,-4.0697 -15.2476,-5.8828 -8.8069,-3.8333 -7.8542,-2.2124 -17.9422,-0.2868 -5.3849,1.0281 -15.2033,2.7739 -20.7827,3.3942 -34.2749,3.8094 -67.8643,2.4981 -99.5556,-3.862 -26.4297,-5.3039 -43.4948,-13.9073 -64.4755,-21.8228 -9.9317,-3.7471 -20.5625,-7.9254 -30.0736,-11.8363 -4.7066,-1.9352 -10.161,-3.9881 -15.0638,-5.8833 -7.509,-2.9027 -6.8545,-4.6123 -14.9602,-0.9916 -9.9952,4.4652 -21.954,6.8721 -14.4615,9.8705 l 37.4539,14.6682 c 17.7035,6.6903 43.0759,17.7979 61.1198,23.1202 25.7284,7.5886 54.938,11.9381 86.9978,12.9677 z m -101.0996,-94.9513 c -2.8789,-1.347 -23.2917,-9.3438 -26.1028,-9.5043 -2.674,-0.1525 -10.5605,3.6269 -12.8415,4.5034 -4.178,1.605 -8.2188,3.4223 -12.4232,4.9975 -8.6113,3.227 -16.9939,6.6203 -25.4401,9.9292 -11.2317,4.3996 -41.9181,15.9488 -49.3679,20.304 -7.6141,4.451 -12.9866,7.2975 -19.0666,12.2403 -15.5895,12.6737 -19.5194,28.4884 -12.0958,42.2833 1.5988,2.9715 2.0141,4.5589 7.8299,6.7575 3.9572,1.4958 13.4546,2.2271 18.8172,2.4962 7.2661,0.3645 15.2603,1.0357 22.4246,1.0955 7.5365,0.063 17.5771,0.2039 24.9194,-0.1139 21.8072,-0.9431 39.2873,-2.7315 59.2053,-6.4018 6.2444,-1.1506 10.5565,-2.4202 16.2167,-3.6175 9.578,-2.0257 4.0411,-2.49 -1.9602,-4.7254 -4.3052,-1.6038 -8.6088,-3.2122 -12.7267,-4.8915 -1.7793,-0.7254 -4.7307,-2.3635 -7.4222,-1.9196 -1.0259,0.1692 -1.4148,0.3946 -2.0146,0.5479 -0.3353,0.085 -1.2078,0.2427 -1.8717,0.3895 l -13.053,2.3499 c -2.9602,0.5287 -5.9698,0.9151 -9.0969,1.3193 -3.2057,0.4141 -6.2589,0.7305 -9.5429,1.1985 -2.9027,0.4136 -23.5627,1.6381 -26.9538,1.6444 -2.0659,0 -4.1454,-0.01 -6.2135,-0.01 -4.3736,0 -19.2217,-0.4155 -22.8481,-0.824 -6.5228,-4.8642 -1.5426,-19.2753 3.3945,-25.0194 7.1101,-8.2721 19.4748,-16.4877 35.7707,-22.5462 7.0704,-2.6286 13.9022,-5.476 20.8502,-8.1698 l 61.613,-24.3164 z m 222.819,86.574 c -11.7859,2.6646 -21.5186,5.319 -34.2337,7.5025 -12.6434,2.1713 -27.4677,3.9589 -41.0927,4.7976 -39.477,2.4305 -76.9289,0.6798 -112.7121,-6.2359 -4.5674,-0.8827 -13.0918,-2.6555 -17.0793,-3.7794 -13.9328,-3.9274 -8.7392,-1.4638 -33.5327,3.3378 -13.4603,2.6067 -24.1628,4.2644 -38.8341,5.6522 -16.3071,1.5424 -32.0145,2.1943 -48.8007,2.016 -11.3221,-0.1201 -36.0039,-1.1315 -46.1018,-2.8417 -13.9538,-2.3632 -17.5246,-7.4534 -20.412,-12.8168 -2.7765,-5.1577 -3.7091,-14.4638 -2.1915,-19.6804 1.6705,-5.7436 3.8433,-12.1343 9.08,-17.5553 4.5167,-4.6757 10.472,-9.8812 17.0427,-14.1633 3.6927,-2.4066 9.8317,-3.3474 4.5661,-6.1903 -29.0815,-15.7014 -39.5669,-40.1624 -24.9316,-58.799 5.0451,-6.4242 14.9443,-7.7162 30.0042,-9.1372 29.5183,-2.7853 65.8726,-1.8261 94.5842,1.94 15.9052,2.0866 30.804,4.8782 44.8395,8.4714 10.5528,2.7014 3.382,1.3379 24.7198,-3.1122 6.0877,-1.2696 12.212,-2.0957 18.0689,-3.295 6.349,-1.3002 13.4314,-1.7141 19.832,-2.7281 3.2063,-0.5076 7.6428,-0.5281 10.5307,-1.0462 2.3959,-0.4303 9.0871,-0.6891 11.8611,-0.7594 3.9373,-0.1001 4.0623,-0.493 11.9364,-0.5318 5.6338,-0.0278 2.1563,-0.3796 12.3565,-0.4227 4.1748,-0.0175 9.0686,-0.0822 13.1828,0.0171 8.0886,0.1944 15.9383,0.8577 23.9646,1.0275 3.4986,0.0743 7.4421,0.8034 11.0764,0.9924 11.975,0.6231 35.9666,4.9626 47.0945,7.5407 2.782,0.6444 5.3938,1.3899 8.0397,2.0146 9.2097,2.1745 4.9677,2.3125 12.285,0.5378 1.5622,-0.379 2.3358,-0.7203 4.178,-1.105 l 12.9569,-2.7297 c 5.8688,-1.7229 16.3519,-3.0737 23.2325,-4.1372 12.8338,-1.984 29.8859,-3.2071 43.6036,-3.7803 9.2288,-0.3858 16.6813,-0.3883 25.9197,-0.3798 6.2643,0.006 12.2179,0.2911 18.4431,0.587 7.6921,0.3657 19.6344,1.5126 27.1715,2.4449 6.3289,0.7829 13.1264,1.9043 19.3181,2.8854 6.0032,0.951 12.3058,2.3119 18.0828,3.4778 2.9401,0.5933 14.6352,3.9903 16.6218,3.8957 0.6346,-0.0304 14.4255,-3.5419 16.2379,-3.9955 3.1244,-0.782 5.5846,-1.1163 8.7517,-1.7546 2.9109,-0.5868 6.0713,-1.2382 9.021,-1.7694 5.8195,-1.0474 13.2834,-2.0191 19.4641,-2.7329 7.1087,-0.8212 14.3566,-1.6472 21.7534,-2.0106 7.8947,-0.3878 15.8425,-1.0173 23.8388,-1.0338 13.7931,-0.0283 24.3073,0.007 37.7314,0.9442 10.6248,0.7421 12.2935,1.0466 21.6377,1.9837 16.7961,1.6844 31.3693,4.6381 45.9564,8.225 2.1135,0.5199 6.0806,1.7068 8.1065,2.0421 2.696,0.4467 5.9437,-1.0933 8.2845,-1.5987 5.6886,-1.2286 11.2847,-2.8559 17.07,-3.8367 15.5985,-2.645 20.3632,-4.0567 38.9662,-5.6291 10.5618,-0.8929 18.4376,-1.5395 29.3028,-1.688 2.3859,-0.0326 3.2431,-0.2568 5.3428,-0.394 3.1867,-0.2084 9.9773,-0.034 13.5742,-0.044 12.4404,-0.0334 34.2743,1.1169 45.887,2.8803 16.0135,2.4316 18.1423,7.4041 20.9509,12.7188 3.0455,5.7634 4.6337,13.4566 2.5954,19.2747 l -1.9256,7.0609 c -0.3838,0.7837 -0.849,1.466 -1.1894,2.2884 -1.0211,2.4664 -3.5859,5.966 -5.5673,8.3721 l -7.4962,7.4236 c -2.8809,2.2658 -6.1163,4.6355 -9.5102,6.787 -10.4916,6.6496 -10.1546,2.2757 5.3983,13.0485 10.2838,7.1234 16.2856,15.707 19.4859,23.7968 0.6341,1.6019 -0.017,3.4988 0.8521,4.8921 1.9049,3.0523 0.8665,11.9752 -1.0967,14.6933 -0.6926,0.9584 -0.4553,1.3836 -0.7291,2.3086 l -3.6703,6.5103 c -5.3442,6.0886 -14.7932,7.9367 -30.1606,9.0958 -3.6258,0.2736 -7.5428,0.5227 -11.0892,0.813 -4.1902,0.343 -7.7023,0.1349 -12.0282,0.4915 -5.5163,0.455 -20.1634,0.271 -26.3957,0.2004 -7.6963,-0.087 -16.575,-0.6491 -24.2141,-1.0947 -15.8111,-0.9221 -44.7216,-5.5528 -57.636,-8.7627 -2.7692,-0.688 -5.4111,-1.2405 -8.1573,-1.99 -10.3697,-2.8301 -2.9021,-1.2078 -24.4794,3.0498 -6.3734,1.2575 -11.3664,2.2533 -18.0578,3.3211 -3.9252,0.6262 -15.8406,2.5906 -19.243,2.8709 -3.3905,0.2795 -7.509,0.8805 -10.4788,1.0622 -3.9912,0.2438 -7.6014,0.6117 -11.4262,0.8648 -8.0623,0.5335 -17.2593,0.6866 -25.4308,0.6854 -4.3985,-8e-4 -8.7905,0.036 -13.1867,0 -2.0991,-0.016 -4.3056,0 -6.3888,-0.1057 -2.0653,-0.1032 -3.3395,-0.3351 -5.5318,-0.3702 -17.6785,-0.2843 -46.8652,-3.8064 -62.0274,-7.1938 -5.4967,-1.228 -11.1288,-2.5566 -16.5614,-3.8395 -9.5397,-2.2527 -4.9686,-2.7998 -15.7754,0.2817 -11.9146,3.3971 -31.263,6.5413 -45.4754,8.3396 -3.1903,0.4036 -7.3009,0.5394 -10.8138,0.9884 -2.7987,0.3572 -3.348,0.1996 -5.8343,0.3742 -2.2028,0.1548 -2.0846,0.4663 -5.1713,0.5304 -4.4532,0.093 -4.606,0.4909 -12.4245,0.5269 -3.3182,0.015 -3.0024,0.4575 -11.9106,0.4643 -4.5255,0 -9.0879,0.031 -13.606,0.021 -8.7786,-0.02 -16.0019,-0.2509 -24.5775,-0.9541 -7.6332,-0.6262 -13.1576,-0.76 -21.6151,-1.9202 -17.3658,-2.3825 -21.0704,-3.0464 -37.1817,-6.4032 -5.6619,-1.1798 -11.329,-2.9945 -16.8163,-4.0261 z" />
      <g
         id="g4207"
         style="stroke:#ff0000;stroke-width:1;stroke-miterlimit:4;stroke-dasharray:none">
        <path
           inkscape:connector-curvature="0"
           id="path4209"
           style="fill:none;stroke:#ff0000;stroke-width:1;stroke-linecap:butt;stroke-linejoin:miter;stroke-miterlimit:4;stroke-dasharray:none;stroke-opacity:1"
           d="m 638.5584,1141.4463 c -0.94,8.3826 -3.8308,14.6923 -9.7481,14.7578 -6.1736,-0.5607 -9.337,-16.4946 -5.4672,-25.1312 1.7453,-3.8984 5.0783,-5.7988 7.1983,-8.1124 6.6062,-7.1949 11.848,-16.1671 12.9376,-32.4275 0.366,-5.4445 -0.0289,-9.8584 -0.4564,-15.8899 -0.6859,-9.7197 -3.6615,-15.9256 -5.648,-23.1891 -1.2759,-4.6593 -0.6202,-9.2648 -0.9127,-14.2688 0.5907,-1.9766 1.6611,-3.1002 2.8267,-4.0524 2.9945,10.9491 3.4015,24.5132 8.3812,31.7789 3.7476,5.4701 7.7573,9.713 14.5777,8.9193 0.1667,1.7041 0.2424,3.6586 0.2733,5.5119 -0.6781,1.7195 -2.6221,1.6645 -4.1001,1.2972 -1.9162,-0.4697 -4.2264,-1.0443 -6.0128,-2.4296 -2.4968,-1.9361 -4.2582,-5.1486 -6.105,-6.6495 -1.01,2.116 0.6018,6.717 1.1846,10.0528 0.5593,3.1932 0.61,7.4423 0.7299,10.2169 0.0899,2.1002 -0.1808,4.701 -0.4558,6.6489 -1.7614,12.4418 -6.1835,21.49 -11.6629,25.9416 -0.282,0.2279 -0.7528,0.4663 -1.1338,0.8495 -0.4998,0.5017 -2.2558,0.7719 -2.7547,0.8419 -0.7591,0.1123 -1.5619,0.2375 -2.0339,1.0672 -0.0108,0.9386 0.5754,0.6784 0.9122,0.324 6.6095,1.793 12.9285,-4.3236 17.3101,-8.7582 1.3929,-0.024 2.5197,-3.1918 3.2794,-4.2122 0.6122,6.8351 -0.0763,14.3606 -1.821,20.9154 -1.798,6.7541 -3.9249,13.3081 -6.7419,18.3229 -3.4688,6.1718 -8.25,13.6839 -14.3048,14.5921 -3.2596,0.4927 -5.9389,-0.4458 -8.0167,-2.4312 -3.6447,-3.4798 -8.7043,-10.461 -7.5639,-20.7539 0.246,-2.2138 1.5466,-4.161 1.2764,-7.1339 -3.0603,1.3753 -5.6183,8.8798 -5.5488,15.8241 0.0638,6.3604 1.8913,11.0426 3.6366,14.8223 4.4291,8.5661 14.6049,9.9205 21.4098,6.8108 -2.7896,24.5753 7.728,42.9673 20.6815,47.0257 3.3982,1.0644 8.8427,-0.7016 10.9338,-2.7595 3.5941,3.251 7.928,9.1156 12.9376,9.0816 3.502,-0.025 7.7732,-2.0925 9.8394,-5.5148 -0.2588,-0.6231 -1.1914,-0.043 -1.3675,-0.8073 -6.2563,2.6614 -14.3447,-1.0157 -18.7679,-6.812 1.3201,-3.2683 3.1079,-7.5404 3.2797,-12.6476 0.2101,-6.2498 -1.3056,-12.3338 -2.6427,-16.7048 -0.0709,0.8413 -0.5287,0.2123 -0.7277,0.9731 1.431,9.2118 -0.6553,17.5669 -4.1006,21.2448 -1.2761,-1.8998 -2.0962,-4.7582 -3.0974,-7.2978 -2.399,-6.0902 -4.6545,-13.0855 -5.9233,-21.4066 3.4132,0.8285 7.4189,-5.0114 7.0163,-11.6728 -0.1834,-3.0345 -1.2427,-4.9564 -2.552,-6.8083 -0.1168,0.5482 -0.6179,0.4093 -0.7282,0.9723 1.4355,3.1192 1.3564,7.3681 -0.6378,9.0788 -1.478,1.2702 -4.242,0.2534 -4.8283,-2.1093 -0.4441,-1.7881 -0.3767,-4.6312 -0.2735,-7.2969 0.3849,-9.9247 1.8349,-20.8015 4.2823,-27.8923 2.759,-11.6615 2.8091,-31.432 1.4573,-44.7503 1.7042,-0.01 3.293,-0.031 4.6474,-0.646 0.4686,11.5092 -0.2597,24.2691 -1.6404,35.1822 0.8067,0.035 0.6242,-0.8788 1.093,-0.8102 5.008,-8.5059 4.7157,-25.3604 5.4669,-38.9154 2.3536,-2.9993 4.8991,-5.2214 6.9248,-9.2409 1.781,-3.5405 3.9172,-8.2713 4.5544,-13.1369 0.4473,-3.4002 0.6562,-8.9912 0.6381,-12.483 -0.01,-1.7696 -0.4346,-5.0692 -1.0919,-1.3008 -1.44,8.2457 -3.3846,16.1567 -6.5614,21.8917 -1.5545,2.8106 -3.3627,4.409 -5.0108,7.1376 -0.2747,-3.0625 -0.0136,-6.1903 -0.4547,-8.4353 6.6507,-5.5828 11.4622,-19.3504 10.2949,-35.674 -0.6902,-9.6398 -2.8939,-18.3541 -5.8317,-24.8077 7.0634,6.8905 13.5042,16.2893 21.5938,21.8903 0.6159,-0.5409 1.1043,-2.2298 1.6381,-3.4059 -1.1098,-3.3746 -3.4673,-4.7843 -5.4643,-6.9706 -4.5576,-4.9896 -9.2835,-11.7837 -14.0313,-18.485 -3.4696,-4.8938 -6.5157,-9.705 -9.4748,-15.7286 -0.9496,-1.9304 -2.404,-4.2716 -2.8258,-5.84 -0.324,-1.2064 1.3209,-4.7231 2.1869,-6.3215 3.1153,-5.7385 6.1467,-10.8088 9.294,-16.2187 3.9977,-6.8704 8.8137,-12.5915 12.7544,-18.8048 1.1829,-1.8657 7.3219,-8.93 7.6539,-10.7022 -1.0522,-5.0207 -5.169,-0.8458 -7.0155,0.6469 -6.4862,5.239 -12.3372,14.7245 -17.9493,21.7287 4.3257,-9.1075 8.841,-25.0949 8.2911,-41.671 -1.434,-12.3151 -5.0871,-20.6765 -10.4771,-25.9472 0.4844,-2.7054 0.6709,-6.2487 1.9136,-7.1354 1.6019,0.1117 2.3032,2.4327 3.1884,4.0541 2.0654,3.784 4.2747,7.3763 5.9216,12.3245 1.605,4.82 2.7298,9.8541 4.0995,15.4029 0.9037,-5.2895 -0.5148,-12.6887 -1.548,-17.9978 -1.9775,-10.1525 -7.2885,-17.3605 -11.7536,-22.3752 -0.0918,-13.3495 -2.6155,-26.9229 -6.0126,-37.1347 -0.9617,10.7444 1.6767,23.682 0.912,34.8638 -1.9316,0.2722 -3.4385,-0.5286 -5.1954,-0.9731 0.4385,-6.2697 0.248,-25.0191 -0.1233,-31.3668 -0.4527,-7.7122 -3.1564,-21.1385 -3.8846,-24.2523 -1.5729,-6.7278 -3.9024,-17.4297 -1.1846,-23.997 1.3394,-3.2369 5.22,-3.8716 6.1974,0.6474 0.3257,3.0643 -0.9079,4.5011 -0.7305,6.6478 0.8011,-0.0442 1.9511,-1.8513 1.9125,-1.783 3.8518,-6.853 -0.8934,-18.3603 -6.0131,-14.108 0.3402,-6.1736 2.9588,-18.7747 8.2006,-30.6448 3.1819,1.6617 6.7111,9.3441 5.5508,15.8105 -0.1318,0.7368 -1.0683,5.3816 -0.9949,5.5939 0.5907,-0.0218 1.3751,-0.9229 1.724,-1.9037 1.7377,-5.3243 4.0343,-11.357 1.4545,-20.1923 -0.5012,-1.7181 -1.2348,-4.3059 -1.9936,-6.1192 1.0026,-1.8615 2.2495,-2.3615 4.0084,-4.053 0.9771,-0.6817 5.2266,-3.7528 9.2741,-4.9955 1.1081,-0.339 3.648,-0.8251 3.7545,-1.4952 -0.3483,-2.2147 -2.7575,-2.8233 -4.3735,-2.9166 -6.2652,-0.3512 -12.4427,5.3617 -16.0348,10.3788 -7.0832,-7.5328 -16.7122,-4.1389 -22.1403,3.7284 -2.1778,3.1592 -4.5774,6.6549 -6.0142,10.2158 -1.7209,4.2712 -3.5952,8.8608 -4.0074,15.4063 -0.3038,4.8251 0.2688,8.4271 0.8192,12.3256 -4.8727,-3.3704 -12.3573,-3.5649 -16.6736,0.3217 -5.5471,4.8033 -6.7383,19.2107 -7.0152,31.7829 0.6763,1.5531 0.9286,3.8574 2.461,3.8914 0.1012,-7.844 1.6895,-17.589 4.8291,-20.916 1.7884,-1.9009 4.0819,-3.7982 6.8315,-4.5434 0.9357,-0.0663 1.2464,0.1837 1.7626,0.2291 12.85,1.1678 19.0352,17.395 24.0222,33.4975 1.8785,6.0701 3.2964,13 3.6437,20.1079 -2.871,-3.3214 -6.8565,-9.1233 -10.9318,-11.8361 -2.8469,-1.8944 -4.8986,-3.0835 -8.6559,-3.2445 -1.2271,-0.0513 -3.8543,0.4467 -3.4623,2.918 0.2464,1.5545 1.5359,1.3665 2.2783,1.1355 3.8684,2.0285 6.6821,5.5809 9.5657,10.2152 1.0191,1.6382 2.1235,4.4618 2.8253,7.297 2.2417,9.0683 4.4252,19.3793 3.0972,31.4566 0.0275,0.938 0.3432,0.959 0.6378,0.4876 3.9322,-4.7308 7.0594,-7.8727 13.2106,-8.2695 -0.6948,2.5446 -0.8343,6.084 -2.0036,7.7819 -5.0516,-0.318 -10.3444,4.64 -13.2114,10.0548 -2.8831,5.4485 -5.9616,12.2459 -6.7428,20.4327 -0.2928,3.0897 -0.4331,6.7396 -0.8198,9.7293 -1.6316,-1.1528 -2.9469,-2.8621 -4.5547,-4.0549 2.9781,-10.5974 5.9281,-23.5996 8.8376,-35.3475 3.3741,-24.1909 -5.9377,-39.818 -15.2164,-48.6454 -6.1639,-2.22 -8.6468,-24.1455 -3.3698,-31.4603 0.517,-0.6894 2.5492,-1.2512 3.7278,-1.3943 3.1987,-0.3932 6.541,2.2748 7.7519,7.2337 0.612,2.5075 0.0908,6.0565 1.4579,7.7831 1.0222,-4.2381 -0.0385,-11.7706 -1.7317,-14.9185 -2.3111,-2.8023 -5.5976,-4.6301 -8.655,-6.0009 -4.3532,-1.9505 -7.3159,1.5267 -9.5664,5.3518 -4.4348,7.5433 -3.456,23.6611 -0.1822,32.2676 -10.6217,3.526 -15.5007,12.5839 -20.956,29.9974 -1.8082,5.9079 -1.9256,11.1036 -1.7311,17.03 0.4938,-1.5353 0.6097,-1.0931 0.7188,-2.043 7.0745,-18.5065 15.7216,-25.6966 16.6828,-27.3075 3.6975,-2.4143 9.0034,-5.3221 13.3038,-2.9189 0.7064,0.3926 1.4494,2.0758 2.276,3.2415 3.7607,5.2976 7.3661,16.7133 5.7407,27.5649 -1.9196,-5.3198 -4.417,-9.7067 -7.7448,-13.1338 -1.8116,-1.8669 -4.775,-3.9302 -7.1972,-3.7292 -5.6168,0.4697 -10.8323,7.5733 -11.4809,16.3763 -0.3676,5.0187 -0.0635,10.777 1.4579,14.5925 1.258,3.1597 4.7622,5.1114 7.653,4.5436 -0.9842,-1.9757 -2.8075,-2.4624 -3.7341,-4.5436 -1.8187,-7.9926 1.1109,-15.6875 5.0111,-15.4004 -0.0204,-0.2344 -0.2719,-0.0587 -0.2724,-0.3234 0.5176,0.3197 1.3351,-0.1205 1.0927,0.1604 0.8144,0.2906 2.4242,0.5205 3.1884,1.7822 4.4654,7.3644 7.4376,21.3998 5.3748,35.0248 -7.6825,-1.3149 -15.6773,6.3672 -16.4903,17.6755 -0.4031,5.6018 0.4408,12.6113 2.0055,17.0277 0.0907,-0.1063 1.9299,3.223 2.952,4.6508 2.4818,3.4693 5.6645,5.6925 9.074,7.5104 1.1268,-0.5346 2.3964,0.087 2.1864,-2.9211 -0.7631,-1.9193 -2.1203,-1.9318 -3.2811,-2.757 -3.4744,-2.4695 -6.1379,-6.8822 -6.0129,-14.5922 0.1463,-2.0078 0.0289,-3.5923 2.0963,-8.5941 3.0923,-3.3488 6.9482,-2.031 9.0192,2.92 0.1968,0.4677 0.1871,1.1223 0.3651,1.62 3.5535,9.9502 8.358,20.5906 12.7557,30.1626 2.0565,4.4754 4.4328,8.4617 7.2875,11.5115 -7.0381,8.2267 -11.7538,20.5909 -16.9466,32.1049 -2.1991,6.1974 -4.3707,13.8342 -6.2861,21.0819 -4.5269,-1.8695 -10.8587,-8.0918 -9.2021,-17.6757 0.8512,-4.9182 3.5787,-9.529 6.0123,-12.0025 1.3186,-1.3385 3.3959,-1.6832 4.8464,-2.8114 0.3809,-0.2948 0.9816,-0.6863 1.2585,-1.5644 -1.2285,-1.4361 -2.8091,-0.0275 -4.0087,0.1598 -4.0028,0.6361 -7.4047,2.1544 -9.9298,6.6495 -2.4032,4.2787 -4.7061,10.7419 -4.9212,17.0283 -0.5667,16.6385 6.8678,24.1396 16.1266,22.5369 0.5833,11.8638 1.618,28.2773 -3.5524,35.5116 -2.052,2.8712 -7.5379,6.2971 -10.205,1.7852 -2.3304,-3.9438 -1.1455,-13.5873 1.1849,-16.8647 0.5933,-0.8328 1.4816,-0.9473 1.7311,-2.4338 0.0417,-0.6645 0.0669,-0.3113 0,-0.97 -6.0106,-0.4289 -10.3051,12.9798 -8.7347,22.0702 0.6114,5.8402 4.5661,9.773 5.5446,10.8448 7.9188,8.6842 17.7823,-0.7291 20.3187,-13.1321 0.6656,6.5044 0.9315,14.2932 -0.5462,20.2661 -1.4715,5.9445 -4.1426,12.8826 -8.2905,13.4603 -3.9546,0.5471 -7.6099,-1.0024 -10.5687,-2.1087 -3.0611,-1.1449 -5.5341,-4.2163 -7.6496,-7.1011 -1.6418,-2.2379 -4.1465,-6.2515 -5.381,-9.7994 -2.6268,-8.9005 -2.9423,-9.913 -4.3727,-15.5315 -1.0857,-2.8854 -1.3706,-4.8612 -1.2753,1.1364 0.6165,8.2545 2.3054,15.0964 4.1,21.4041 3.6686,12.888 8.7242,22.248 18.4958,24.4842 -4.1604,9.3561 -3.5317,24.45 1.2192,33.338 1.8519,3.4642 4.7044,5.7433 7.6269,6.3647 2.0511,0.439 3.831,-0.11 5.7313,-1.7578 2.7199,-3.0864 6.2881,-8.9521 6.3774,-16.7032 0.0125,-1.0672 0.1537,-2.806 -0.5473,-3.0821 z" />
        <path
           inkscape:connector-curvature="0"
           id="path4211"
           style="fill:none;stroke:#ff0000;stroke-width:1;stroke-linecap:butt;stroke-linejoin:miter;stroke-miterlimit:4;stroke-dasharray:none;stroke-opacity:1"
           d="m 658.8493,1065.1524 c 6.1515,0 11.1379,-10.6858 11.1379,-23.8671 0,-13.1817 -4.9864,-23.8672 -11.1379,-23.8672 -6.1514,0 -11.1379,10.6855 -11.1379,23.8672 0,13.1813 4.9865,23.8671 11.1379,23.8671 z" />
        <path
           inkscape:connector-curvature="0"
           id="path4213"
           style="fill:none;stroke:#ff0000;stroke-width:1;stroke-linecap:butt;stroke-linejoin:miter;stroke-miterlimit:4;stroke-dasharray:none;stroke-opacity:1"
           d="m 657.7415,942.0474 c 6.1512,0 11.1379,-10.6857 11.1379,-23.8674 0,-13.1814 -4.9867,-23.8671 -11.1379,-23.8671 -6.1514,0 -11.1381,10.6857 -11.1381,23.8671 0,13.1817 4.9867,23.8674 11.1381,23.8674 z" />
      </g>
    </g>
  </g>
</svg>
