<?xml version="1.0" encoding="UTF-8" standalone="no"?>
<!-- Created with Inkscape (http://www.inkscape.org/) -->

<svg
   xmlns:dc="http://purl.org/dc/elements/1.1/"
   xmlns:cc="http://creativecommons.org/ns#"
   xmlns:rdf="http://www.w3.org/1999/02/22-rdf-syntax-ns#"
   xmlns:svg="http://www.w3.org/2000/svg"
   xmlns="http://www.w3.org/2000/svg"
   xmlns:sodipodi="http://sodipodi.sourceforge.net/DTD/sodipodi-0.dtd"
   xmlns:inkscape="http://www.inkscape.org/namespaces/inkscape"
   width="800mm"
   height="400mm"
   viewBox="0 0 2834.6457 1417.3228"
   id="svg2"
   version="1.1"
   inkscape:version="0.91 r13725"
   sodipodi:docname="sword_no-text.svg">
  <defs
     id="defs4" />
  <sodipodi:namedview
     id="base"
     pagecolor="#ffffff"
     bordercolor="#666666"
     borderopacity="1.0"
     inkscape:pageopacity="0.0"
     inkscape:pageshadow="2"
     inkscape:zoom="0.7"
     inkscape:cx="1253.8576"
     inkscape:cy="1082.4255"
     inkscape:document-units="mm"
     inkscape:current-layer="g4201"
     showgrid="false"
     inkscape:window-width="1920"
     inkscape:window-height="1054"
     inkscape:window-x="1280"
     inkscape:window-y="0"
     inkscape:window-maximized="1" />
  <metadata
     id="metadata7">
    <rdf:RDF>
      <cc:Work
         rdf:about="">
        <dc:format>image/svg+xml</dc:format>
        <dc:type
           rdf:resource="http://purl.org/dc/dcmitype/StillImage" />
        <dc:title></dc:title>
      </cc:Work>
    </rdf:RDF>
  </metadata>
  <g
     inkscape:label="Layer 1"
     inkscape:groupmode="layer"
     id="layer1"
     transform="translate(0,364.96063)">
    <g
       transform="matrix(1.25,0,0,-1.25,-158.70027,1336.2968)"
       inkscape:label="sword"
       id="g4201"
       style="stroke:#ff0000;stroke-width:1;stroke-miterlimit:4;stroke-dasharray:none">
      <path
         inkscape:connector-curvature="0"
         id="path4203"
         style="fill:none;stroke:#ff0000;stroke-width:1;stroke-linecap:butt;stroke-linejoin:miter;stroke-miterlimit:4;stroke-dasharray:none;stroke-opacity:1"
         d="m 653.3748,1268.4523 c -4.7237,3.5816 -8.9711,22.9621 -13.722,31.0111 -30.5507,51.7782 -17.9436,-13.8254 -17.9405,-21.2675 -35.1479,0 -18.6168,-3.7426 -4.9767,-38.3437 -5.4947,-15.7989 -23.7532,-29.3511 -25.469,-42.0319 l 14.398,-6.9012 c -1.0846,-14.7489 -14.6988,-26.7534 -19.3734,-39.1663 l 3.7715,-13.7653 c -5.2285,-10.6237 -12.1728,-13.4198 -19.1863,-18.733 -7.2119,-5.4601 -13.6083,-0.01 -19.7978,-18.8598 2.9056,-8.8489 14.1132,-19.2569 19.4857,-19.4839 l 1.2988,-32.5041 c -12.9654,-7.2666 -25.9021,5.086 -37.8088,5.762 -25.6904,1.4528 -54.068,9.7005 -77.9646,9.6917 -42.8216,-0.017 -91.9256,-4.5856 -133.651,-24.9727 -6.264,-3.058 -12.3296,-1.5304 -19.1962,-3.4206 -12.4104,-3.4117 -10.4038,26.6386 -32.4105,4.341 -8.1973,18.995 -17.0204,38.9075 -32.6911,38.7493 -8.2044,-0.081 -30.3781,0.4145 -36.6911,-7.1543 -13.8067,-16.5325 -8.0175,-16.7655 -13.9896,-25.6057 -11.1084,-16.4375 -35.9302,-15.1803 -17.4861,-37.6965 -3.4735,-1.8813 -29.0865,-26.5059 -30.5146,-29.4863 1.6483,-5.0227 26.5362,-29.0633 30.4455,-29.2274 -12.6374,-35.0555 0.9609,-14.0499 17.9149,-39.6757 3.9598,-5.9865 6.1963,-30.3551 23.4063,-31.1261 31.3937,-1.4009 34.4474,-8.1065 49.8968,17.4503 3.8634,6.3919 7.6765,15.3358 9.8598,21.6876 3.465,-7.4307 6.4281,-9.9793 13.3582,-9.6888 9.811,0.4113 7.4778,5.506 12.2347,12.085 15.0349,0.4144 18.9331,0.1842 32.9411,-7.1085 28.9355,-15.0596 112.5402,-26.1808 138.6981,-21.9722 19.8997,3.1989 53.4364,4.5479 70.3732,10.2612 12.5855,4.2431 18.7231,8.1238 32.3745,7.7471 l 0.0289,-32.7717 c -4.8317,-2.0797 -17.2919,-12.088 -19.9129,-19.4437 5.8026,-22.8152 31.923,-22.7202 36.9817,-33.6115 3.7701,-8.1153 -0.6027,-8.1958 -1.2657,-15.9429 -1.2787,-14.9213 16.052,-17.5019 19.0857,-42.9982 l -14.8037,-5.7217 c 1.3938,-10.3331 9.0675,-16.7683 13.125,-21.9897 4.8328,-6.2224 9.6211,-11.7397 12.744,-21.21 -23.7832,-36.6897 -19.1259,-35.8699 4.7551,-39.2672 -0.2358,-23.0338 -14.572,-42.8142 7.9685,-30.0501 4.4331,2.5084 6.1101,3.8863 9.8541,9.5477 6.0253,9.1105 8.7409,29.639 15.0698,30.7522 0.2041,-0.0431 45.9037,-128.4599 111.4914,-57.3616 52.0342,56.3978 153.1177,267.7359 206.6463,123.7016 28.4247,-76.4776 12.1728,16.7656 5.9403,33.8043 -69.6915,190.5075 -182.7995,-80.551 -239.2322,-42.3309 0.7293,8.2936 9.8642,11.1099 11.9715,35.9445 7.816,92.0752 -43.598,103.0036 -42.9205,62.7468 27.6438,-14.8033 18.2166,-70.5886 -13.1797,-58.3395 -19.044,7.4304 -22.7851,54.0935 -12.3037,74.0063 42.3065,80.3438 989.5878,-79.2997 1142.9124,-32.9357 35.0543,10.6007 70.4667,18.6701 105.4964,30.1394 69.2728,22.6802 141.2569,34.8888 210.2664,59.2835 19.9732,7.0622 208.1693,55.0661 209.7558,61.3142 1.1608,7.8678 -181.9984,57.1518 -198.7336,61.1705 -66.8061,16.0407 -134.3112,42.1095 -201.0682,58.1933 -32.6276,7.8591 -68.1265,16.8316 -100.3816,28.1832 -286.0852,100.6849 -805.1687,-78.3879 -1153.9908,-35.8152 -23.4351,2.8621 -19.9556,37.8374 -17.0963,73.241 7.7026,7.1 23.3963,14.7549 32.8062,12.0334 9.9232,-2.871 21.4489,-48.3863 -4.0606,-58.4204 -6.389,-37.3252 50.7138,-34.2876 42.4922,59.7697 -2.1677,24.7799 -6.562,24.6937 -14.0012,37.7654 69.5174,0 178.8729,-215.0374 240.1109,-46.6832 46.0378,126.5266 -12.4676,23.5919 -21.1782,13.1292 -93.1209,-111.8322 -170.5952,252.2537 -271.0012,149.8626 -22.3563,-22.8007 -21.5019,-48.5733 -31.9603,-60.2904 z" />
      <g
         id="g4207"
         style="stroke:#0000ff;stroke-width:1;stroke-miterlimit:4;stroke-dasharray:none">
        <path
           inkscape:connector-curvature="0"
           id="path4209"
           style="fill:none;stroke:#0000ff;stroke-width:1;stroke-linecap:butt;stroke-linejoin:miter;stroke-miterlimit:4;stroke-dasharray:none;stroke-opacity:1"
           d="m 638.5584,1141.4463 c -0.94,8.3826 -3.8308,14.6923 -9.7481,14.7578 -6.1736,-0.5607 -9.337,-16.4946 -5.4672,-25.1312 1.7453,-3.8984 5.0783,-5.7988 7.1983,-8.1124 6.6062,-7.1949 11.848,-16.1671 12.9376,-32.4275 0.366,-5.4445 -0.0289,-9.8584 -0.4564,-15.8899 -0.6859,-9.7197 -3.6615,-15.9256 -5.648,-23.1891 -1.2759,-4.6593 -0.6202,-9.2648 -0.9127,-14.2688 0.5907,-1.9766 1.6611,-3.1002 2.8267,-4.0524 2.9945,10.9491 3.4015,24.5132 8.3812,31.7789 3.7476,5.4701 7.7573,9.713 14.5777,8.9193 0.1667,1.7041 0.2424,3.6586 0.2733,5.5119 -0.6781,1.7195 -2.6221,1.6645 -4.1001,1.2972 -1.9162,-0.4697 -4.2264,-1.0443 -6.0128,-2.4296 -2.4968,-1.9361 -4.2582,-5.1486 -6.105,-6.6495 -1.01,2.116 0.6018,6.717 1.1846,10.0528 0.5593,3.1932 0.61,7.4423 0.7299,10.2169 0.0899,2.1002 -0.1808,4.701 -0.4558,6.6489 -1.7614,12.4418 -6.1835,21.49 -11.6629,25.9416 -0.282,0.2279 -0.7528,0.4663 -1.1338,0.8495 -0.4998,0.5017 -2.2558,0.7719 -2.7547,0.8419 -0.7591,0.1123 -1.5619,0.2375 -2.0339,1.0672 -0.0108,0.9386 0.5754,0.6784 0.9122,0.324 6.6095,1.793 12.9285,-4.3236 17.3101,-8.7582 1.3929,-0.024 2.5197,-3.1918 3.2794,-4.2122 0.6122,6.8351 -0.0763,14.3606 -1.821,20.9154 -1.798,6.7541 -3.9249,13.3081 -6.7419,18.3229 -3.4688,6.1718 -8.25,13.6839 -14.3048,14.5921 -3.2596,0.4927 -5.9389,-0.4458 -8.0167,-2.4312 -3.6447,-3.4798 -8.7043,-10.461 -7.5639,-20.7539 0.246,-2.2138 1.5466,-4.161 1.2764,-7.1339 -3.0603,1.3753 -5.6183,8.8798 -5.5488,15.8241 0.0638,6.3604 1.8913,11.0426 3.6366,14.8223 4.4291,8.5661 14.6049,9.9205 21.4098,6.8108 -2.7896,24.5753 7.728,42.9673 20.6815,47.0257 3.3982,1.0644 8.8427,-0.7016 10.9338,-2.7595 3.5941,3.251 7.928,9.1156 12.9376,9.0816 3.502,-0.025 7.7732,-2.0925 9.8394,-5.5148 -0.2588,-0.6231 -1.1914,-0.043 -1.3675,-0.8073 -6.2563,2.6614 -14.3447,-1.0157 -18.7679,-6.812 1.3201,-3.2683 3.1079,-7.5404 3.2797,-12.6476 0.2101,-6.2498 -1.3056,-12.3338 -2.6427,-16.7048 -0.0709,0.8413 -0.5287,0.2123 -0.7277,0.9731 1.431,9.2118 -0.6553,17.5669 -4.1006,21.2448 -1.2761,-1.8998 -2.0962,-4.7582 -3.0974,-7.2978 -2.399,-6.0902 -4.6545,-13.0855 -5.9233,-21.4066 3.4132,0.8285 7.4189,-5.0114 7.0163,-11.6728 -0.1834,-3.0345 -1.2427,-4.9564 -2.552,-6.8083 -0.1168,0.5482 -0.6179,0.4093 -0.7282,0.9723 1.4355,3.1192 1.3564,7.3681 -0.6378,9.0788 -1.478,1.2702 -4.242,0.2534 -4.8283,-2.1093 -0.4441,-1.7881 -0.3767,-4.6312 -0.2735,-7.2969 0.3849,-9.9247 1.8349,-20.8015 4.2823,-27.8923 2.759,-11.6615 2.8091,-31.432 1.4573,-44.7503 1.7042,-0.01 3.293,-0.031 4.6474,-0.646 0.4686,11.5092 -0.2597,24.2691 -1.6404,35.1822 0.8067,0.035 0.6242,-0.8788 1.093,-0.8102 5.008,-8.5059 4.7157,-25.3604 5.4669,-38.9154 2.3536,-2.9993 4.8991,-5.2214 6.9248,-9.2409 1.781,-3.5405 3.9172,-8.2713 4.5544,-13.1369 0.4473,-3.4002 0.6562,-8.9912 0.6381,-12.483 -0.01,-1.7696 -0.4346,-5.0692 -1.0919,-1.3008 -1.44,8.2457 -3.3846,16.1567 -6.5614,21.8917 -1.5545,2.8106 -3.3627,4.409 -5.0108,7.1376 -0.2747,-3.0625 -0.0136,-6.1903 -0.4547,-8.4353 6.6507,-5.5828 11.4622,-19.3504 10.2949,-35.674 -0.6902,-9.6398 -2.8939,-18.3541 -5.8317,-24.8077 7.0634,6.8905 13.5042,16.2893 21.5938,21.8903 0.6159,-0.5409 1.1043,-2.2298 1.6381,-3.4059 -1.1098,-3.3746 -3.4673,-4.7843 -5.4643,-6.9706 -4.5576,-4.9896 -9.2835,-11.7837 -14.0313,-18.485 -3.4696,-4.8938 -6.5157,-9.705 -9.4748,-15.7286 -0.9496,-1.9304 -2.404,-4.2716 -2.8258,-5.84 -0.324,-1.2064 1.3209,-4.7231 2.1869,-6.3215 3.1153,-5.7385 6.1467,-10.8088 9.294,-16.2187 3.9977,-6.8704 8.8137,-12.5915 12.7544,-18.8048 1.1829,-1.8657 7.3219,-8.93 7.6539,-10.7022 -1.0522,-5.0207 -5.169,-0.8458 -7.0155,0.6469 -6.4862,5.239 -12.3372,14.7245 -17.9493,21.7287 4.3257,-9.1075 8.841,-25.0949 8.2911,-41.671 -1.434,-12.3151 -5.0871,-20.6765 -10.4771,-25.9472 0.4844,-2.7054 0.6709,-6.2487 1.9136,-7.1354 1.6019,0.1117 2.3032,2.4327 3.1884,4.0541 2.0654,3.784 4.2747,7.3763 5.9216,12.3245 1.605,4.82 2.7298,9.8541 4.0995,15.4029 0.9037,-5.2895 -0.5148,-12.6887 -1.548,-17.9978 -1.9775,-10.1525 -7.2885,-17.3605 -11.7536,-22.3752 -0.0918,-13.3495 -2.6155,-26.9229 -6.0126,-37.1347 -0.9617,10.7444 1.6767,23.682 0.912,34.8638 -1.9316,0.2722 -3.4385,-0.5286 -5.1954,-0.9731 0.4385,-6.2697 0.248,-25.0191 -0.1233,-31.3668 -0.4527,-7.7122 -3.1564,-21.1385 -3.8846,-24.2523 -1.5729,-6.7278 -3.9024,-17.4297 -1.1846,-23.997 1.3394,-3.2369 5.22,-3.8716 6.1974,0.6474 0.3257,3.0643 -0.9079,4.5011 -0.7305,6.6478 0.8011,-0.0442 1.9511,-1.8513 1.9125,-1.783 3.8518,-6.853 -0.8934,-18.3603 -6.0131,-14.108 0.3402,-6.1736 2.9588,-18.7747 8.2006,-30.6448 3.1819,1.6617 6.7111,9.3441 5.5508,15.8105 -0.1318,0.7368 -1.0683,5.3816 -0.9949,5.5939 0.5907,-0.0218 1.3751,-0.9229 1.724,-1.9037 1.7377,-5.3243 4.0343,-11.357 1.4545,-20.1923 -0.5012,-1.7181 -1.2348,-4.3059 -1.9936,-6.1192 1.0026,-1.8615 2.2495,-2.3615 4.0084,-4.053 0.9771,-0.6817 5.2266,-3.7528 9.2741,-4.9955 1.1081,-0.339 3.648,-0.8251 3.7545,-1.4952 -0.3483,-2.2147 -2.7575,-2.8233 -4.3735,-2.9166 -6.2652,-0.3512 -12.4427,5.3617 -16.0348,10.3788 -7.0832,-7.5328 -16.7122,-4.1389 -22.1403,3.7284 -2.1778,3.1592 -4.5774,6.6549 -6.0142,10.2158 -1.7209,4.2712 -3.5952,8.8608 -4.0074,15.4063 -0.3038,4.8251 0.2688,8.4271 0.8192,12.3256 -4.8727,-3.3704 -12.3573,-3.5649 -16.6736,0.3217 -5.5471,4.8033 -6.7383,19.2107 -7.0152,31.7829 0.6763,1.5531 0.9286,3.8574 2.461,3.8914 0.1012,-7.844 1.6895,-17.589 4.8291,-20.916 1.7884,-1.9009 4.0819,-3.7982 6.8315,-4.5434 0.9357,-0.0663 1.2464,0.1837 1.7626,0.2291 12.85,1.1678 19.0352,17.395 24.0222,33.4975 1.8785,6.0701 3.2964,13 3.6437,20.1079 -2.871,-3.3214 -6.8565,-9.1233 -10.9318,-11.8361 -2.8469,-1.8944 -4.8986,-3.0835 -8.6559,-3.2445 -1.2271,-0.0513 -3.8543,0.4467 -3.4623,2.918 0.2464,1.5545 1.5359,1.3665 2.2783,1.1355 3.8684,2.0285 6.6821,5.5809 9.5657,10.2152 1.0191,1.6382 2.1235,4.4618 2.8253,7.297 2.2417,9.0683 4.4252,19.3793 3.0972,31.4566 0.0275,0.938 0.3432,0.959 0.6378,0.4876 3.9322,-4.7308 7.0594,-7.8727 13.2106,-8.2695 -0.6948,2.5446 -0.8343,6.084 -2.0036,7.7819 -5.0516,-0.318 -10.3444,4.64 -13.2114,10.0548 -2.8831,5.4485 -5.9616,12.2459 -6.7428,20.4327 -0.2928,3.0897 -0.4331,6.7396 -0.8198,9.7293 -1.6316,-1.1528 -2.9469,-2.8621 -4.5547,-4.0549 2.9781,-10.5974 5.9281,-23.5996 8.8376,-35.3475 3.3741,-24.1909 -5.9377,-39.818 -15.2164,-48.6454 -6.1639,-2.22 -8.6468,-24.1455 -3.3698,-31.4603 0.517,-0.6894 2.5492,-1.2512 3.7278,-1.3943 3.1987,-0.3932 6.541,2.2748 7.7519,7.2337 0.612,2.5075 0.0908,6.0565 1.4579,7.7831 1.0222,-4.2381 -0.0385,-11.7706 -1.7317,-14.9185 -2.3111,-2.8023 -5.5976,-4.6301 -8.655,-6.0009 -4.3532,-1.9505 -7.3159,1.5267 -9.5664,5.3518 -4.4348,7.5433 -3.456,23.6611 -0.1822,32.2676 -10.6217,3.526 -15.5007,12.5839 -20.956,29.9974 -1.8082,5.9079 -1.9256,11.1036 -1.7311,17.03 0.4938,-1.5353 0.6097,-1.0931 0.7188,-2.043 7.0745,-18.5065 15.7216,-25.6966 16.6828,-27.3075 3.6975,-2.4143 9.0034,-5.3221 13.3038,-2.9189 0.7064,0.3926 1.4494,2.0758 2.276,3.2415 3.7607,5.2976 7.3661,16.7133 5.7407,27.5649 -1.9196,-5.3198 -4.417,-9.7067 -7.7448,-13.1338 -1.8116,-1.8669 -4.775,-3.9302 -7.1972,-3.7292 -5.6168,0.4697 -10.8323,7.5733 -11.4809,16.3763 -0.3676,5.0187 -0.0635,10.777 1.4579,14.5925 1.258,3.1597 4.7622,5.1114 7.653,4.5436 -0.9842,-1.9757 -2.8075,-2.4624 -3.7341,-4.5436 -1.8187,-7.9926 1.1109,-15.6875 5.0111,-15.4004 -0.0204,-0.2344 -0.2719,-0.0587 -0.2724,-0.3234 0.5176,0.3197 1.3351,-0.1205 1.0927,0.1604 0.8144,0.2906 2.4242,0.5205 3.1884,1.7822 4.4654,7.3644 7.4376,21.3998 5.3748,35.0248 -7.6825,-1.3149 -15.6773,6.3672 -16.4903,17.6755 -0.4031,5.6018 0.4408,12.6113 2.0055,17.0277 0.0907,-0.1063 1.9299,3.223 2.952,4.6508 2.4818,3.4693 5.6645,5.6925 9.074,7.5104 1.1268,-0.5346 2.3964,0.087 2.1864,-2.9211 -0.7631,-1.9193 -2.1203,-1.9318 -3.2811,-2.757 -3.4744,-2.4695 -6.1379,-6.8822 -6.0129,-14.5922 0.1463,-2.0078 0.0289,-3.5923 2.0963,-8.5941 3.0923,-3.3488 6.9482,-2.031 9.0192,2.92 0.1968,0.4677 0.1871,1.1223 0.3651,1.62 3.5535,9.9502 8.358,20.5906 12.7557,30.1626 2.0565,4.4754 4.4328,8.4617 7.2875,11.5115 -7.0381,8.2267 -11.7538,20.5909 -16.9466,32.1049 -2.1991,6.1974 -4.3707,13.8342 -6.2861,21.0819 -4.5269,-1.8695 -10.8587,-8.0918 -9.2021,-17.6757 0.8512,-4.9182 3.5787,-9.529 6.0123,-12.0025 1.3186,-1.3385 3.3959,-1.6832 4.8464,-2.8114 0.3809,-0.2948 0.9816,-0.6863 1.2585,-1.5644 -1.2285,-1.4361 -2.8091,-0.0275 -4.0087,0.1598 -4.0028,0.6361 -7.4047,2.1544 -9.9298,6.6495 -2.4032,4.2787 -4.7061,10.7419 -4.9212,17.0283 -0.5667,16.6385 6.8678,24.1396 16.1266,22.5369 0.5833,11.8638 1.618,28.2773 -3.5524,35.5116 -2.052,2.8712 -7.5379,6.2971 -10.205,1.7852 -2.3304,-3.9438 -1.1455,-13.5873 1.1849,-16.8647 0.5933,-0.8328 1.4816,-0.9473 1.7311,-2.4338 0.0417,-0.6645 0.0669,-0.3113 0,-0.97 -6.0106,-0.4289 -10.3051,12.9798 -8.7347,22.0702 0.6114,5.8402 4.5661,9.773 5.5446,10.8448 7.9188,8.6842 17.7823,-0.7291 20.3187,-13.1321 0.6656,6.5044 0.9315,14.2932 -0.5462,20.2661 -1.4715,5.9445 -4.1426,12.8826 -8.2905,13.4603 -3.9546,0.5471 -7.6099,-1.0024 -10.5687,-2.1087 -3.0611,-1.1449 -5.5341,-4.2163 -7.6496,-7.1011 -1.6418,-2.2379 -4.1465,-6.2515 -5.381,-9.7994 -2.6268,-8.9005 -2.9423,-9.913 -4.3727,-15.5315 -1.0857,-2.8854 -1.3706,-4.8612 -1.2753,1.1364 0.6165,8.2545 2.3054,15.0964 4.1,21.4041 3.6686,12.888 8.7242,22.248 18.4958,24.4842 -4.1604,9.3561 -3.5317,24.45 1.2192,33.338 1.8519,3.4642 4.7044,5.7433 7.6269,6.3647 2.0511,0.439 3.831,-0.11 5.7313,-1.7578 2.7199,-3.0864 6.2881,-8.9521 6.3774,-16.7032 0.0125,-1.0672 0.1537,-2.806 -0.5473,-3.0821 z" />
        <path
           inkscape:connector-curvature="0"
           id="path4211"
           style="fill:none;stroke:#0000ff;stroke-width:1;stroke-linecap:butt;stroke-linejoin:miter;stroke-miterlimit:4;stroke-dasharray:none;stroke-opacity:1"
           d="m 658.8493,1065.1524 c 6.1515,0 11.1379,-10.6858 11.1379,-23.8671 0,-13.1817 -4.9864,-23.8672 -11.1379,-23.8672 -6.1514,0 -11.1379,10.6855 -11.1379,23.8672 0,13.1813 4.9865,23.8671 11.1379,23.8671 z" />
        <path
           inkscape:connector-curvature="0"
           id="path4213"
           style="fill:none;stroke:#0000ff;stroke-width:1;stroke-linecap:butt;stroke-linejoin:miter;stroke-miterlimit:4;stroke-dasharray:none;stroke-opacity:1"
           d="m 657.7415,942.0474 c 6.1512,0 11.1379,-10.6857 11.1379,-23.8674 0,-13.1814 -4.9867,-23.8671 -11.1379,-23.8671 -6.1514,0 -11.1381,10.6857 -11.1381,23.8671 0,13.1817 4.9867,23.8674 11.1381,23.8674 z" />
      </g>
      <path
         style="fill:#ffffff;fill-rule:evenodd;stroke:#ffffff;stroke-width:0.71148026px;stroke-linecap:butt;stroke-linejoin:miter;stroke-opacity:1"
         d="m 809.01428,920.46699 c 182.54048,0 545.14652,182.13791 601.38462,187.51611 349.352,33.4091 251.2996,-140.3078 379.678,-142.58807 l 0,0"
         id="path4206"
         inkscape:connector-curvature="0"
         sodipodi:nodetypes="cscc" />
      <g
         style="font-style:normal;font-variant:normal;font-weight:normal;font-stretch:normal;font-size:150px;line-height:125%;font-family:'Tengwar Cursive';-inkscape-font-specification:'Tengwar Cursive, Normal';text-align:start;letter-spacing:0px;word-spacing:0px;writing-mode:lr-tb;text-anchor:start;fill:#000000;fill-opacity:1;stroke:none;stroke-width:1px;stroke-linecap:butt;stroke-linejoin:miter;stroke-opacity:1"
         id="text4208">
        <path
           d="m 790.55725,895.8576 q 2.27051,-4.83398 6.00586,-5.49316 2.49023,-0.29297 5.41992,0.36621 2.85645,0.65918 4.90723,0.73242 1.31836,0.29297 6.0791,-1.31836 -1.75781,3.22266 -6.0791,3.51563 -2.92969,0 -5.34668,-0.58594 -2.41699,-0.65918 -4.6875,-0.51269 -1.9043,0.51269 -6.29883,3.29589 z"
           style=""
           id="path4250" />
        <path
           d="m 835.08533,908.61493 1.14796,-5.66496 q 1.28135,-2.28574 5.44065,-3.40875 l 0.4468,2.95411 q -2.10388,1.07363 -2.6458,6.32732 -1.03535,9.48315 -2.95555,19.07107 -2.58165,11.16975 -7.14164,23.85901 -2.56871,7.79745 -6.98329,17.41398 -4.5609,9.60961 -8.39456,16.24734 l -1.4182,-1.02033 q 4.35918,-8.44597 8.21617,-18.67547 2.86136,-7.78361 5.54177,-14.84253 3.34788,-11.86673 6.22217,-23.02264 1.6691,-10.47969 2.52352,-19.23815 z m 1.13685,3.86665 q -7.74533,8.72567 -15.39555,9.24354 -3.49784,-0.45882 -5.46415,-5.39127 l -0.48835,-2.07618 q -2.66421,-8.77833 2.60151,-14.68837 2.89088,-2.20957 5.47226,-2.52736 1.86108,2.50776 1.78492,4.11729 -0.003,1.61299 -3.10435,-1.02679 -2.01341,0.71128 -3.44108,2.9901 -2.1939,2.97579 -0.33145,10.10305 0.47449,2.36882 3.88925,4.58349 5.1143,0.38867 14.58778,-7.66863 l -0.11079,2.34113 z"
           style=""
           id="path4252" />
        <path
           d="m 880.69334,914.27892 1.46087,-5.27047 q 1.51871,-2.45338 5.39146,-2.66239 l 0.24272,2.5467 q -2.42144,0.40772 -2.74114,5.98228 -1.87211,9.354 -4.63488,18.7339 -3.56186,10.89685 -9.229,23.13181 -3.24997,7.53898 -8.49983,16.72621 -5.39498,9.16736 -9.8021,15.43903 l -1.32214,-1.14206 q 5.09089,-8.02618 9.8397,-17.87342 3.54023,-7.49923 6.83598,-14.29269 4.38687,-11.52315 8.239,-22.38026 2.59173,-10.29042 4.21936,-18.93864 z m 0.78954,3.95223 q -7.20044,5.07604 -16.15451,7.84206 -3.44338,-0.76716 -4.96461,-5.85452 -5.296,3.04509 -11.74525,3.71452 -3.15313,-0.72741 -4.73396,-5.37938 -2.03258,-11.07142 5.72247,-16.95862 2.43528,-1.58864 4.87659,-2.14149 1.75665,2.82791 1.41281,4.25934 -0.34383,1.43143 -3.02095,-1.15287 -2.01585,0.68503 -3.30995,2.57776 -3.2145,2.96045 -2.36712,9.72977 1.02019,4.42736 3.92883,5.86055 3.91248,-0.49927 8.9342,-2.62089 -1.87537,-8.97997 3.89363,-14.39985 3.07541,-1.94454 5.6748,-2.0322 1.6314,2.66291 1.41282,4.25934 -0.14601,1.60637 -3.00108,-1.298 -2.06855,0.52997 -3.69265,2.67322 -2.44911,2.76954 -1.22595,10.03386 0.26259,2.40157 3.46753,4.91029 6.22854,-1.21713 15.21028,-6.34498 l -0.31793,2.32209 z"
           style=""
           id="path4254" />
        <path
           d="m 925.49109,923.52541 1.83055,-5.15375 q 1.68869,-2.33963 5.56651,-2.27378 l 0.0617,2.55749 q -2.44424,0.23517 -3.15803,5.77308 -2.53003,9.19788 -5.95032,18.3585 -4.32483,10.61716 -10.84444,22.41994 -3.77586,7.28982 -9.66333,16.08207 -6.03084,8.76216 -10.87116,14.70588 l -1.23792,-1.23285 q 5.64666,-7.64539 11.08111,-17.13148 4.06258,-7.22962 7.83128,-13.77254 5.19214,-11.18345 9.80369,-21.7404 3.31418,-10.08098 5.55035,-18.59216 z m 0.50758,3.99822 q -7.54192,4.55322 -16.66944,6.678 -3.38039,-1.00915 -4.53742,-6.1915 -5.4984,2.66229 -11.97887,2.87318 -3.09368,-0.94895 -4.34101,-5.70122 -1.24318,-11.18759 6.90943,-16.51065 2.54169,-1.41213 5.01603,-1.79065 1.55192,2.94524 1.10755,4.34872 -0.44438,1.40348 -2.9317,-1.36398 -2.05931,0.54051 -3.48424,2.33681 -3.41614,2.72531 -3.05042,9.53765 0.704,4.4885 3.50381,6.12414 3.93802,-0.22086 9.09741,-1.98142 -1.23453,-9.09026 4.90392,-14.08785 3.20543,-1.7218 5.8045,-1.6251 1.43866,2.77178 1.10754,4.34872 -0.25943,1.59199 -2.90159,-1.50733 -2.10089,0.3821 -3.87274,2.40491 -2.63915,2.5891 -1.93365,9.92182 0.0918,2.41414 3.11098,5.14359 6.29911,-0.77285 15.62154,-5.25157 l -0.48163,2.29373 z"
           style=""
           id="path4256" />
        <path
           d="m 931.60268,918.42612 q -1.87094,-0.94785 0.30658,-1.73705 5.20488,-1.3543 14.41162,1.07359 1.90681,3.68417 0.17308,11.40755 -2.18195,9.42309 -6.87611,18.03219 -4.8591,10.38352 -11.97042,21.83952 -4.14164,7.08839 -10.46857,15.56991 -6.46856,8.44417 -11.60485,14.13408 l -1.17363,-1.2942 q 6.02811,-7.34838 11.93788,-16.54587 4.42492,-7.01369 8.52145,-13.35652 5.75407,-10.90497 10.89645,-21.21378 4.70193,-9.21303 6.36872,-17.25704 1.04659,-5.40496 0.25036,-8.41754 -2.77219,-2.70045 -10.77256,-2.23484 z m 14.10208,8.56657 q 7.76369,-4.16383 16.98744,-5.82175 3.32471,1.17973 4.21672,6.41421 5.62667,-2.37926 12.10948,-2.26036 3.04142,1.10503 3.01276,6.09671 -1.59597,8.06269 -7.87389,15.49668 2.49741,0.58285 6.04697,-0.52625 1.09578,0.44045 -1.51442,1.72152 -2.53939,1.29974 -5.05548,0.78772 -19.2221,-5.52348 -32.50687,-8.57229 l -0.0141,-1.67012 q 7.55216,1.23409 16.90054,3.69933 0.54475,-0.91679 2.56657,-3.41347 2.35799,-3.77145 3.24038,-8.84098 0.0311,-2.41568 -2.84542,-5.29512 -6.33025,0.45155 -15.86835,4.45045 l 0.59763,-2.26628 z m 14.22136,15.86965 q 4.99094,1.46764 12.35245,3.71191 1.15255,-1.21098 3.12223,-3.79716 2.37278,-3.54031 3.30806,-9.95932 0.14312,-2.84061 -2.5699,-4.6165 -3.94416,0.0203 -9.1864,1.51627 -0.71117,5.56917 -7.02644,13.1448 z"
           style=""
           id="path4258" />
        <path
           d="m 1032.5128,902.65638 q -3.0896,-0.91625 -4.8533,0.39419 -5.8588,6.36045 -25.6859,41.27556 l -4.35068,8.48834 q -2.94438,0.65473 -7.90625,-2.19182 -5.49165,-6.21226 -1.08961,-11.78237 9.36487,-6.84858 13.43474,6.73431 l 1.3007,-1.29495 q -1.3608,-8.80699 -6.21611,-11.23998 -4.85532,-2.43298 -10.49032,3.68823 -3.56425,4.29065 -4.07516,9.10481 -0.51091,4.81416 4.15458,7.11446 7.99438,3.44027 12.76447,3.32695 l 3.60444,1.75646 q 2.4446,1.03053 4.143,1.2286 2.294,-0.007 3.4204,-0.97193 l -0.3482,-1.40197 q -1.48,0.0959 -2.9468,-0.10993 -2.632,-0.39856 -4.4548,-2.23783 -1.6747,-1.56614 1.3123,-6.48635 20.1032,-36.36116 25.5251,-43.3095 0.9782,-1.23781 2.9444,-0.65474 2.3826,-0.82133 -0.187,-1.43054 z"
           style=""
           id="path4260" />
        <path
           d="m 1006.7433,950.02853 q 2.17,-4.3812 3.704,-7.73546 3.9328,-7.96988 6.8053,-15.50986 3.3747,-8.14836 11.1744,-18.11129 8.8713,-9.46647 23.201,-15.80329 6.0321,-2.9924 12.1371,-3.80838 2.0539,1.27197 2.1212,2.98521 -1.0269,-0.63599 -2.2883,-1.50073 -5.4967,1.31811 -11.2497,4.39974 -13.448,6.46501 -21.8561,15.9258 -6.6559,8.79078 -9.8018,16.70471 -2.7833,7.26092 -6.8442,16.11258 l -3.2465,7.26659 q -1.4001,2.93568 -3.7486,7.87498 l -4.6879,-0.73013 q 2.3152,-3.8734 4.5801,-8.07047 z m 5.1836,-4.18648 q 7.9684,-3.75733 17.2654,-4.93667 3.2594,1.34986 3.8799,6.62341 5.742,-2.08549 12.21,-1.63195 2.9803,1.26063 2.6939,6.24417 -2.0103,7.96951 -8.6637,15.06936 2.464,0.71104 6.0661,-0.21326 1.0715,0.49646 -1.6014,1.64102 -2.6031,1.16686 -5.4382,0.41404 -14.5162,-5.10339 -31.6719,-10.12813 l 0.072,-1.66862 q 7.4783,1.62248 16.9603,4.19327 1.5567,-1.50149 2.8343,-3.09222 2.1814,-3.45483 3.3244,-8.47202 0.1558,-2.41086 -2.5682,-5.43501 -6.3451,0.12403 -16.077,3.625 l 0.7139,-2.23239 z m 13.5864,16.18666 q 6.9762,2.23087 11.9406,4.74116 1.2136,-1.14984 3.3142,-3.63084 2.5525,-3.41305 3.818,-9.77519 0.2896,-2.82943 -2.328,-4.74306 -3.94,-0.18338 -9.2525,1.03982 -0.9978,5.525 -7.4923,12.36811 z"
           style=""
           id="path4262" />
        <path
           d="m 1071.5609,959.64688 q 13.578,-31.27813 21.1289,-38.92179 5.3151,-5.61906 12.0029,-8.45035 l 0.4076,1.53115 q -6.5104,4.12943 -10.7576,9.33808 -6.5414,9.2248 -19.2704,38.00665 -5.632,12.00974 -7.43,18.2061 l -5.2756,-0.86596 q 2.5273,-4.24634 9.1942,-18.84388 z m -2.2895,10.8257 q -9.8585,6.2399 -17.353,4.61924 -3.2341,-1.4094 -3.7578,-6.69345 l 0.1057,-2.13022 q -0.1294,-9.1728 6.5668,-13.39375 3.3897,-1.32272 5.9581,-0.91332 1.094,2.92503 0.5751,4.45054 -0.4495,1.54909 -2.6986,-1.84621 -2.1317,0.12598 -4.1345,1.92038 -2.9321,2.25198 -3.1159,9.61626 -0.2,2.40759 2.468,5.48119 4.8067,1.78957 16.1408,-3.32958 l -0.7547,2.21892 z"
           style=""
           id="path4264" />
        <path
           d="m 1074.1603,961.44667 q -1.7854,-1.1005 0.4503,-1.70546 5.2997,-0.91575 14.272,2.27108 1.5931,3.83029 -0.7784,11.38229 -2.9597,9.20842 -8.3551,17.39631 -5.7077,9.94241 -13.7492,20.76581 -4.718,6.7185 -11.7299,14.6431 -7.1499,7.8757 -12.7425,13.1176 l -1.0617,-1.3875 q 6.6196,-6.8203 13.2754,-15.4932 4.9942,-6.6205 9.6051,-12.5998 6.643,-10.38742 12.6268,-20.23173 5.4534,-8.78906 7.7849,-16.66616 1.4935,-5.29892 0.9511,-8.36738 -2.5375,-2.92211 -10.5488,-3.12496 z m 13.517,10.08631 q 7.6296,-3.97442 16.9595,-4.85776 4.043,1.74692 3.5332,8.87197 -1.1729,5.49051 -7.7435,12.17283 -2.41,2.40848 -4.9727,1.96459 -0.8629,-3.26005 -0.1701,-4.3353 0.7618,-1.05073 2.5156,1.67075 1.0288,-0.48955 3.2517,-2.80901 2.6641,-3.56179 3.966,-8.54013 0.2323,-2.40469 -2.3942,-5.51387 -6.3458,-0.0777 -15.5829,3.1704 l 0.6374,-1.79447 z"
           style=""
           id="path4266" />
        <path
           d="m 1107.0167,973.07517 q -1.769,-1.12674 0.4754,-1.69862 5.3126,-0.83741 14.2369,2.48153 1.5364,3.8534 -0.9463,11.36956 -3.0954,9.16373 -8.6111,17.27106 -5.8538,9.857 -14.0542,20.5605 -4.8167,6.6482 -11.9448,14.4684 -7.2654,7.7692 -12.9348,12.9281 l -1.0411,-1.403 q 6.7196,-6.7219 13.5028,-15.2956 5.0913,-6.546 9.79,-12.4566 6.7956,-10.2882 12.924,-20.0431 5.5827,-8.70762 8.0302,-16.54944 1.5715,-5.27629 1.0745,-8.35243 -2.494,-2.95925 -10.5015,-3.28036 z m 13.1941,9.90806 q 8.1346,-3.38251 17.4765,-4.12801 3.193,1.50005 3.5674,6.79676 5.8329,-1.81608 12.2728,-1.06209 2.9184,1.39793 2.4004,6.36275 -2.3788,7.86735 -8.345,14.24426 -2.6177,1.9959 -5.1208,2.0028 -1.0973,-3.1431 -0.4494,-4.465 0.6479,-1.3219 2.6966,1.7843 1.293,-0.535 3.5068,-2.9156 2.7084,-3.29061 4.2686,-9.58699 0.421,-2.81288 -2.1048,-4.84624 -3.9272,-0.36649 -9.2908,0.60821 -1.2539,5.47259 -7.9224,12.05718 -2.4452,2.37264 -5.0011,1.89094 -1.011,-2.9547 -0.518,-4.49049 0.5617,-1.51027 2.7142,1.94711 1.2243,-0.56053 3.4812,-2.84693 2.7164,-3.52207 4.0916,-8.48065 0.2678,-2.40099 -2.3125,-5.54861 -6.344,-0.17132 -16.2282,2.87305 l 0.8169,-2.19675 z"
           style=""
           id="path4268" />
        <path
           d="m 1154.0162,1001.6194 q 2.417,-4.24992 4.1404,-7.51094 4.3821,-7.73191 7.6812,-15.09524 3.8352,-7.94201 12.192,-17.44252 9.3982,-8.94358 24.0669,-14.45044 6.1934,-2.6425 12.3351,-3.10796 1.9778,1.38737 1.947,3.10165 -0.9889,-0.69369 -2.1988,-1.62916 -5.563,1.00157 -11.4829,3.74912 -13.7957,5.68526 -22.7312,14.64966 -7.1478,8.3957 -10.7412,16.11675 -3.194,7.08984 -7.7546,15.69474 l -3.6567,7.06904 q -1.5658,2.8508 -4.1929,7.6477 l -4.6385,-0.9971 q 2.533,-3.7346 5.0342,-7.7953 z m 5.4041,-3.65177 q 7.7283,-3.77901 17.0776,-4.42468 3.9973,1.84922 3.3063,8.95895 -1.3122,5.4589 -8.0507,11.9719 -2.4704,2.3464 -5.021,1.8374 -0.7797,-3.2809 -0.06,-4.3382 0.7883,-1.031 2.4723,1.7342 1.0409,-0.4632 3.3221,-2.7253 2.7539,-3.4929 4.182,-8.4365 0.2935,-2.398 -2.2531,-5.57299 -6.3418,-0.23908 -15.6585,2.77289 l 0.6828,-1.77767 z"
           style=""
           id="path4270" />
        <path
           d="m 1199.6174,1015.0651 2.8999,-5 q 1.9452,-1.7557 6.2452,-1.4892 l -0.5217,2.9418 q -2.3368,0.3442 -4.5309,5.1485 -4.0145,8.6536 -8.901,17.1234 -6.0192,9.7569 -14.3988,20.3207 -4.9282,6.566 -12.1871,14.2649 -7.3953,7.6457 -13.1509,12.7082 l -1.0173,-1.4204 q 6.832,-6.6076 13.7587,-15.0658 5.201,-6.4592 9.9987,-12.2897 6.9681,-10.1722 13.2601,-19.8224 4.9338,-9.3951 8.5451,-17.42 z m -0.1598,4.0272 q -10.1296,5.7894 -17.5435,3.8328 -3.1673,-1.5537 -3.4524,-6.856 l 0.2015,-2.1233 q 0.284,-9.1693 7.1636,-13.0843 3.4458,-1.16865 5.9932,-0.644 0.9611,2.9714 0.374,4.472 -0.5188,1.5272 -2.6127,-1.9659 -2.1352,0.03 -4.2168,1.7321 -3.0306,2.1176 -3.546,9.4662 -0.3082,2.3961 2.2186,5.5868 4.7212,2.0043 16.2744,-2.5991 l -0.8539,2.1827 z"
           style=""
           id="path4272" />
        <path
           d="m 1229.8342,1019.3277 q 15.1312,-30.55704 23.0564,-37.81196 5.5905,-5.34513 12.412,-7.83709 l 0.3302,1.54968 q -6.7095,3.79737 -11.2128,8.78622 -6.9964,8.88475 -21.1543,36.99125 -6.2278,11.7118 -8.3347,17.8101 l -5.2254,-1.1297 q 2.7373,-4.1141 10.1286,-18.3585 z m -2.8301,10.6971 q -10.1594,5.737 -17.5631,3.7422 -3.1592,-1.57 -3.4169,-6.8737 l 0.2124,-2.1222 q 0.3313,-9.1678 7.2311,-13.0472 3.4518,-1.1509 5.9964,-0.613 0.9457,2.9762 0.3509,4.4738 -0.5267,1.5245 -2.6025,-1.9794 -2.1353,0.019 -4.2257,1.7104 -3.0415,2.1019 -3.5948,9.4477 -0.3206,2.3945 2.1898,5.5982 4.7108,2.0286 16.2876,-2.5151 l -0.8652,2.1783 z"
           style=""
           id="path4274" />
        <path
           d="m 1231.7887,1022.617 q 12.2699,-1.0642 17.2436,1.0944 1.9573,0.6294 12.4054,6.2532 10.448,5.6238 20.8593,9.1802 3.6959,1.8025 -0.6841,2.0932 -13.9728,-4.5154 -24.9231,-10.657 -18.0401,2.8483 -18.104,7.7173 -1.6385,3.2882 16.1585,13.6049 11.358,6.3056 12.3297,10.1701 2.9434,11.1312 -13.2662,9.8212 -7.2339,-0.8573 -13.3761,-3.6438 -6.1421,-2.7865 -5.5939,-4.9343 -0.1563,-3.5365 3.2192,-4.8628 l 1.2512,0.03 q -1.337,2.1463 -1.2057,4.5675 1.1639,2.9944 4.6832,4.647 3.5194,1.6525 11.3782,2.919 11.9951,0.4041 7.8225,-8.0636 -3.3664,-3.4068 -11.708,-8.1832 -16.4379,-9.7701 -18.1985,-13.6361 -2.7027,-8.9818 23.3055,-10.8354 -7.1465,-3.8221 -12.0819,-4.7021 -4.9354,-0.88 -12.0349,-0.8938 -1.6574,-0.9825 0.5201,-1.6855 z"
           style=""
           id="path4276" />
        <path
           d="m 1282.4549,1060.7204 q 2.9052,1.8039 2.1519,-1.0273 l -2.5888,-7.6784 q 6.9297,-6.9977 12.8499,-3.6618 2.7169,1.0961 3.5683,7.5998 -1.0883,9.3541 -18.9128,30.4374 -10.6995,12.427 -30.6358,30.1311 l 1.0559,1.6896 q 19.9317,-16.1265 32.1849,-29.6641 21.1821,-25.0993 21.1597,-36.0072 -0.7966,-6.6395 -5.6871,-8.6124 -6.5755,-2.4946 -11.9337,1.9779 -5.3582,4.4725 -7.7363,8.4098 l 4.5239,6.4056 z"
           style=""
           id="path4278" />
        <path
           d="m 1323.4409,1064.7218 2.9258,-5.5347 q 1.8641,-2.4883 3.85,-3.1134 l 4.2844,-0.6515 q -3.9319,4.1062 -6.9805,10.9329 -4.0828,8.6216 -5.8245,11.3956 l -4.9231,-1.4975 q 2.9933,-3.5353 6.6679,-11.5314 z m -13.311,-13.8496 q -1.9989,-1.1159 -6.7725,-2.0014 -1.9719,-0.7894 0.6941,-1.5366 3.7402,-0.081 7.1537,1.0494 l 4.9636,1.9872 q 14.7958,6.0024 15.5031,5.8122 l -1.6193,2.6652 -17.6788,-7.0777 q -6.1077,3.2351 -6.967,11.4905 -0.3272,2.3937 2.1744,5.6042 5.4262,1.6201 16.2944,-2.4704 l -0.8711,2.1758 q -10.2428,4.8932 -17.5733,3.6941 -3.2501,-1.5378 -3.343,-8.9911 0.3696,-7.8203 8.0417,-12.4014 z"
           style=""
           id="path4280" />
      </g>
      <path
         style="fill:none;fill-rule:evenodd;stroke:#ffffff;stroke-width:0.80000001px;stroke-linecap:butt;stroke-linejoin:miter;stroke-opacity:1"
         d="m 1490.0738,1147.4825 c 248.4043,-20.4907 106.4927,-257.62954 260.451,-286.51443 43.2195,-8.10863 190.8987,-9.48353 278.1497,26.75109"
         id="path4218"
         inkscape:connector-curvature="0"
         sodipodi:nodetypes="csc" />
      <g
         style="font-style:normal;font-variant:normal;font-weight:normal;font-stretch:normal;font-size:150px;line-height:125%;font-family:'Tengwar Cursive';-inkscape-font-specification:'Tengwar Cursive, Normal';text-align:start;letter-spacing:0px;word-spacing:0px;writing-mode:lr-tb;text-anchor:start;fill:#000000;fill-opacity:1;stroke:none;stroke-width:1px;stroke-linecap:butt;stroke-linejoin:miter;stroke-opacity:1"
         id="text4220">
        <path
           d="m 1495.4591,1128.9603 q 0.9135,-3.36 2.5324,-4.5931 1.6189,-1.233 3.6328,0.7322 l 1.5597,1.8738 q -7.7299,17.4854 -9.1289,17.5105 -1.3991,0.025 -3.6499,-1.4681 l -0.7107,1.4162 q 4.6828,3.2593 5.9652,2.2891 1.2824,-0.9701 9.1559,-17.2924 3.1374,3.8929 7.8804,9.4325 4.7339,5.4669 7.2323,5.3798 3.3976,0.023 6.3015,-3.9515 l -1.1155,-1.2644 q -2.1393,2.9947 -4.2743,3.037 -1.5076,-0.2567 -5.3253,-4.8774 -3.754,-4.7023 -10.6544,-13.3702 -3.4462,-4.0024 -6.4641,-2.7442 -3.018,1.2583 -4.7714,7.3787 l 1.8343,0.5115 z"
           style=""
           id="path4283" />
        <path
           d="m 1519.4515,1135.0135 q -0.3171,-4.8789 -0.6701,-8.5503 -0.5895,-8.8678 -1.8812,-16.8324 -1.1619,-8.7427 0.5967,-21.2727 2.9346,-12.6374 12.1612,-25.301 3.7211,-5.6119 8.5958,-9.3768 2.4148,0.072 3.3315,1.5208 -1.2075,-0.036 -2.7324,-0.1523 -4.0966,3.8946 -7.5314,9.444 -8.3993,12.3327 -10.936,24.7331 -1.3559,10.9426 -0.1135,19.3677 1.2291,7.6784 2.1495,17.3735 l 0.8311,7.9153 q 0.2591,3.2422 0.7013,8.6935 l -4.4228,1.7168 q 0.063,-4.5122 -0.08,-9.2792 z m 1.9256,-5.5942 q 4.3786,-7.4051 11.8338,-13.0837 4.3557,-0.6525 7.6867,5.6665 1.9045,5.2815 -1.0143,15.5912 4.3983,-1.4865 7.3321,-4.5271 1.1984,0.3377 -1.353,3.0698 -3.5532,2.9511 -7.806,3.7311 -8.2039,1.5689 -13.9995,2.8362 l -1.2834,-1.0689 q 5.8539,-2.0297 15.1064,-3.603 0.8878,-1.7686 1.5499,-4.9123 0.3805,-4.4316 -1.144,-9.3463 -1.073,-2.1645 -4.9456,-3.417 -5.4291,3.2864 -11.5563,10.9239 l -0.4068,-1.8604 z"
           style=""
           id="path4285" />
        <path
           d="m 1534.6611,1121.0241 q 6.3577,-6.3754 10.5327,-7.0418 1.0976,-0.7868 4.8988,3.6433 1.9383,2.6768 3.4328,6.1799 2.0694,4.8504 2.7717,10.6026 l -5.0822,2.6461 q 0.1815,-5.1738 -2.0387,-11.871 -2.1466,-4.6582 -5.3748,-6.6254 -2.5384,-0.3503 -8.0859,4.5646 -2.7701,0.2263 -1.0544,-2.0983 z m 17.0608,0.047 q 3.5715,-8.0533 9.834,-15.0252 3.3486,-1.1101 7.2666,2.4739 2.9804,-5.3327 8.1704,-9.2191 3.0791,-0.9952 6.1213,2.9624 3.6906,7.344 3.2997,17.0663 2.3291,-1.0733 4.4499,-4.1281 1.1353,-0.3251 -0.1384,2.2887 -1.2064,2.585 -3.5068,3.7257 -18.5637,7.4422 -30.9215,13.1923 l -1.0365,-1.3096 q 6.7187,-3.6628 15.6112,-7.4566 -0.1329,-1.0582 -0.07,-4.2702 -0.4544,-4.4246 -2.8705,-8.9679 -1.4587,-1.9258 -5.4971,-2.4325 -4.7193,4.2431 -9.7927,13.2557 l -0.9197,-2.1558 z m 20.9688,3.7946 q 4.8406,-1.9059 12.0291,-4.6543 0.1662,-1.6635 0.1331,-4.9141 -0.3008,-4.2513 -3.5037,-9.8922 -1.6312,-2.33 -4.863,-2.066 -3.1007,2.4377 -6.32,6.8371 2.858,4.8325 2.5245,14.6895 z"
           style=""
           id="path4287" />
        <path
           d="m 1578.0318,1108.2473 q 4.1325,-11.602 8.1632,-15.2283 1.3861,-1.5185 10.8441,-8.6834 9.458,-7.1649 17.0204,-15.1557 3.1757,-2.6122 1.6194,1.4923 -9.915,10.8314 -20.0528,18.2379 -4.9084,17.5916 -0.5066,19.6736 2.3096,2.8571 19.0907,-9.0409 10.4563,-7.709 14.3751,-6.9864 11.3473,1.95 3.4179,16.1482 -3.7868,6.223 -8.8743,10.651 -5.0875,4.428 -6.8132,3.0366 -3.2814,-1.3279 -3.0846,-4.9493 l 0.5471,-1.1257 q 1.3963,2.1083 3.653,2.9953 3.2072,0.1862 6.1732,-2.3278 2.9659,-2.514 7.3846,-9.1351 5.3537,-10.7417 -4.0823,-10.4666 -4.4978,1.6457 -12.3095,7.2469 -15.7189,10.8892 -19.967,10.8834 -9.2924,-1.2754 -0.1671,-25.7007 -6.4469,4.9111 -9.2989,9.0341 -2.8519,4.1229 -5.8156,10.5743 -1.5825,1.099 -1.3168,-1.1737 z"
           style=""
           id="path4289" />
        <path
           d="m 1620.273,1076.444 q -3.8246,-3.0458 -6.7795,-5.2532 -6.9603,-5.5262 -13.7242,-9.9254 -7.2526,-5.0184 -15.3449,-14.7451 -7.3809,-10.6695 -10.5506,-26.0138 -1.6519,-6.5278 -1.161,-12.6675 1.6768,-1.7392 3.3657,-1.4434 -0.8384,0.8696 -1.9499,1.9201 0.1283,5.651 1.9263,11.9248 3.4811,14.5095 10.9542,24.725 7.188,8.3613 14.2597,13.1067 6.5099,4.253 14.3051,10.0907 l 6.4177,4.707 q 2.5741,1.9882 6.9065,5.3262 l -1.7031,4.4282 q -3.2975,-3.0806 -6.922,-6.1803 z m -2.8461,-5.1868 q -2.537,-8.2201 -1.7276,-17.5567 2.4457,-3.6628 9.3628,-1.8795 5.1899,2.1414 10.8586,11.234 1.857,-4.2551 1.579,-8.4712 1.0558,-0.6599 1.3625,3.0657 -0.2047,4.6143 -2.4869,8.2867 -4.3548,7.1274 -7.3137,12.2695 l -1.6541,0.2312 q 2.4336,-5.6978 7.4903,-13.6044 -0.7121,-1.8463 -2.5938,-4.4502 -3.0245,-3.2614 -7.6874,-5.4376 -2.3237,-0.6611 -5.8546,1.3633 -1.2179,6.2283 0.3155,15.899 l -1.6506,-0.9498 z"
           style=""
           id="path4291" />
        <path
           d="m 1640.9607,1052.631 q 1.7798,-2.92 -1.0451,-2.1434 l -7.6568,2.6518 q -7.0545,-6.8719 -3.7673,-12.8193 1.0736,-2.7259 7.5701,-3.6307 9.3628,1.0114 30.592,18.6619 12.5145,10.5969 30.382,30.3869 l 1.6808,-1.0697 q -16.2898,-19.7984 -29.9277,-31.9399 -25.2727,-20.975 -36.18,-20.8629 -6.6328,0.8512 -8.5654,5.7577 -2.4405,6.5958 2.076,11.9171 4.5164,5.3212 8.4731,7.6669 l 6.3683,-4.5764 z"
           style=""
           id="path4293" />
        <path
           d="m 1641.72,1012.0071 -5.8275,-2.2876 q -2.6815,-1.5736 -3.525,-3.477 l -1.1273,-4.1845 q 4.5208,3.4472 11.6459,5.7121 9.0247,3.0915 11.9763,4.5116 l -0.9368,5.0598 q -3.8482,-2.5785 -12.2056,-5.3344 z m -12.2717,14.7783 q -0.8849,2.1113 -1.2302,6.9541 -0.5636,2.0478 -1.6048,-0.5177 -0.4988,-3.7077 0.2417,-7.2262 l 1.4188,-5.155 q 4.3075,-15.3749 4.0393,-16.0565 l 2.8298,1.3107 -5.0532,18.3602 q 3.8988,5.707 12.1985,5.6363 2.4152,0.057 5.3254,-2.7884 1.0022,-5.5735 -4.2798,-15.9152 l 2.2597,0.622 q 6.0096,9.6303 5.639,17.0489 -1.1642,3.4019 -8.5601,4.329 -7.8125,0.5086 -13.2241,-6.6022 z"
           style=""
           id="path4295" />
        <path
           d="m 1650.9186,968.61726 -5.9549,-1.93163 q -2.7716,-1.4089 -3.7285,-3.25792 l -1.3778,-4.10882 q 4.7206,3.16806 11.9695,4.99872 9.1948,2.54116 12.2268,3.78049 l -0.6297,5.10709 q -3.9969,-2.34147 -12.5054,-4.58793 z m 3.9989,-0.50275 q 6.5799,9.25006 6.6578,16.67751 -1.0132,3.37917 -6.1405,4.61672 3.4096,6.1849 2.8022,11.89556 -0.9527,3.0925 -5.7065,4.3341 -11.189,1.2296 -15.8381,-7.23826 -0.7912,4.09976 -0.6245,8.62656 -0.8276,2.1458 -1.5917,-0.2614 -1.3385,-6.4211 1.4084,-18.71653 l 2.2061,-10.08904 q 3.3979,-15.37681 2.7841,-17.07847 l 3.0391,1.91455 -3.8641,18.64696 q 4.3795,5.49148 12.6598,4.91998 2.4143,-0.0889 5.1474,-3.10476 0.6639,-5.62385 -5.2327,-15.62787 l 2.2932,0.48439 z m -17.8578,28.19233 q 5.2203,6.11826 12.0331,5.76076 4.4893,-0.6986 6.1283,-3.49641 0.4026,-4.03218 -1.929,-8.94135 -7.7676,0.97925 -13.7721,-5.67894 l -2.4603,12.35594 z"
           style=""
           id="path4297" />
        <path
           d="m 1657.7398,938.77007 -5.3332,-2.22855 q -1.9926,-1.70171 -2.2847,-6.00004 l 2.9846,0.13669 q 0.6436,2.2726 5.6914,3.82665 9.1003,2.86121 18.1311,6.61074 10.4538,4.70619 22.0129,11.64862 7.1484,4.03717 15.7219,10.23895 8.5381,6.34395 14.3028,11.39617 l -1.2768,1.1925 q -7.4361,-5.91962 -16.7193,-11.69377 -7.0779,-4.32152 -13.4801,-8.32452 -10.9883,-5.59341 -21.3714,-10.58396 -9.9545,-3.67679 -18.3792,-6.21948 z m 4.014,-0.36257 q 7.0514,9.29545 6.0704,16.90017 -1.1308,3.34166 -6.3516,4.3104 l -2.1315,0.0749 q -9.129,0.90478 -13.9012,-5.41048 -1.6047,-3.26564 -1.414,-5.85951 2.822,-1.33742 4.3859,-0.94945 1.5816,0.31687 -1.6113,2.84514 0.3058,2.11335 2.2632,3.95723 2.4919,2.73111 9.8453,2.29141 2.4159,-0.004 5.2528,-2.92282 1.3766,-4.94085 -4.6828,-15.80133 l 2.2748,0.56431 z"
           style=""
           id="path4299" />
        <path
           d="m 1650.1491,927.76597 q 0.6218,-8.98223 3.3377,-12.22231 0.3131,-1.31372 6.0877,-0.46011 3.2184,0.75073 6.6435,2.41637 4.7424,2.30628 9.0435,6.18975 l -2.1033,5.32977 q -3.2545,-4.02602 -9.3214,-7.62799 -4.6747,-2.11048 -8.402,-1.47982 -2.1466,1.39943 -3.1139,8.74762 -1.9435,1.98681 -2.1718,-0.89328 z m 12.9145,-11.14851 q -2.5823,-8.42284 -2.4234,-17.79306 1.801,-3.03347 7.1091,-2.89537 -1.2451,-5.9808 0.1265,-12.31798 1.6728,-2.77 6.5646,-1.77564 7.6012,3.12648 13.6794,10.72467 1.0552,-2.33736 0.6542,-6.03447 0.6442,-0.9898 1.3958,1.81901 0.7836,2.74296 -0.2057,5.11234 -9.1399,17.78936 -14.7026,30.23271 l -1.6412,-0.3095 q 2.6726,-7.17043 6.9008,-15.8648 -0.794,-0.71191 -2.8521,-3.17877 -3.2437,-3.04343 -8.0465,-4.89045 -2.364,-0.49808 -5.7458,1.76662 -0.7823,6.29794 1.2946,16.4297 l -2.1077,-1.02501 z m 18.3223,-10.88048 q 2.406,-4.61246 6.0328,-11.40031 -0.965,-1.36517 -3.121,-3.79819 -3.014,-3.01321 -9.1306,-5.17333 -2.7592,-0.69027 -5.0266,1.62768 -0.7435,3.8735 -0.2906,9.30615 5.3261,1.77575 11.536,9.438 z"
           style=""
           id="path4301" />
        <path
           d="m 1681.0632,875.31221 q 6.0502,-10.72746 10.6403,-13.61338 1.6247,-1.25993 12.1659,-6.70716 10.5412,-5.44723 19.3554,-12.03151 3.5746,-2.03244 1.3412,1.74658 -11.6167,8.98214 -22.8689,14.55146 -7.8362,16.49709 -3.8538,19.29919 1.7885,3.20904 20.3526,-5.65329 11.6178,-5.8132 15.3559,-4.43298 10.8487,3.85637 0.6143,16.49456 -4.7924,5.48614 -10.5604,8.98183 -5.7681,3.49568 -7.2312,1.83039 -3.007,-1.86796 -2.1955,-5.4028 l 0.731,-1.0159 q 1.0164,2.31546 3.0888,3.57429 3.1285,0.73036 6.4797,-1.24107 3.3512,-1.97143 8.8341,-7.74217 7.107,-9.67146 -2.2378,-11.00937 -4.7125,0.85458 -13.3649,5.0418 -17.3455,8.04941 -21.5303,7.31937 -8.9389,-2.84125 4.2176,-25.35279 -7.1899,3.73987 -10.7031,7.31614 -3.5132,3.57626 -7.5336,9.42782 -1.7467,0.81307 -1.0973,-1.38101 z"
           style=""
           id="path4303" />
        <path
           d="m 1757.8827,846.51515 -0.247,-5.77482 q 0.6945,-2.52668 4.462,-4.61634 l 1.1436,2.76017 q -1.7842,1.54776 -1.0477,6.77772 1.274,9.45405 1.7142,19.22245 0.1783,11.46283 -1.1986,24.87607 -0.6195,8.18625 -2.5937,18.58186 -2.1179,10.42405 -4.2441,17.78856 l -1.6218,-0.64961 q 2.2017,-9.24604 3.4873,-20.10267 0.907,-8.24313 1.8125,-15.73934 0.398,-12.32352 0.507,-23.84324 -0.8982,-10.57369 -2.1737,-19.28081 z m 2.0328,3.48013 q -5.4214,10.3313 -12.723,12.67248 -3.5056,0.39522 -6.5996,-3.92014 l -0.973,-1.89798 q -4.6957,-7.88082 -1.0046,-14.88311 2.2752,-2.83955 4.7045,-3.76837 2.4092,1.98702 2.7221,3.56768 0.3847,1.56644 -3.2601,-0.25067 -1.7835,1.1743 -2.6217,3.72943 -1.4145,3.41582 2.1062,9.88662 1.0299,2.18538 4.8768,3.51452 5.0578,-0.85178 12.3173,-10.9496 l 0.4551,2.29914 z"
           style=""
           id="path4305" />
        <path
           d="m 1788.1098,844.25444 0.2073,-6.25695 q 0.5865,-3.05332 2.0983,-4.48472 l 3.5667,-2.46155 q -1.7372,5.41319 -1.4893,12.88552 0.1039,9.53893 -0.2475,12.79552 l -5.0818,0.80894 q 1.1433,-4.48893 0.9463,-13.28676 z m -18.031,-6.62398 q -2.2857,-0.12806 -6.9652,1.16577 -2.1184,0.15355 -0.049,-1.68546 3.3275,-1.70987 6.8911,-2.18847 l 5.3327,-0.38653 q 15.9303,-1.08124 16.4829,-1.5619 l -0.289,3.10519 -18.9931,1.37667 q -4.0749,5.58263 -1.2331,13.381 0.7538,2.29526 4.4085,4.08652 5.5878,-0.91907 13.5682,-9.35498 l 0.1694,2.33762 q -7.0667,8.88373 -14.1822,11.01503 -3.5954,0.0403 -6.9421,-6.61995 -3.0915,-7.19278 1.8006,-14.67051 z"
           style=""
           id="path4307" />
      </g>
      <circle
         style="fill:#ffffff;fill-opacity:1;stroke:#ff0000;stroke-width:0.39340806;stroke-miterlimit:4;stroke-dasharray:none;stroke-opacity:1"
         id="path4228"
         transform="scale(1,-1)"
         cx="559.71869"
         cy="-977.32196"
         r="22.480461" />
    </g>
  </g>
</svg>
