<?xml version="1.0" encoding="UTF-8" standalone="no"?>
<!-- Created with Inkscape (http://www.inkscape.org/) -->

<svg
   xmlns:dc="http://purl.org/dc/elements/1.1/"
   xmlns:cc="http://creativecommons.org/ns#"
   xmlns:rdf="http://www.w3.org/1999/02/22-rdf-syntax-ns#"
   xmlns:svg="http://www.w3.org/2000/svg"
   xmlns="http://www.w3.org/2000/svg"
   xmlns:xlink="http://www.w3.org/1999/xlink"
   xmlns:sodipodi="http://sodipodi.sourceforge.net/DTD/sodipodi-0.dtd"
   xmlns:inkscape="http://www.inkscape.org/namespaces/inkscape"
   width="800mm"
   height="400mm"
   viewBox="0 0 2834.6457 1417.3228"
   id="svg2"
   version="1.1"
   inkscape:version="0.91 r13725"
   sodipodi:docname="sword.svg">
  <defs
     id="defs4" />
  <sodipodi:namedview
     id="base"
     pagecolor="#ffffff"
     bordercolor="#666666"
     borderopacity="1.0"
     inkscape:pageopacity="0.0"
     inkscape:pageshadow="2"
     inkscape:zoom="0.175"
     inkscape:cx="-705.45073"
     inkscape:cy="1060.9653"
     inkscape:document-units="mm"
     inkscape:current-layer="g4201"
     showgrid="false"
     inkscape:window-width="1920"
     inkscape:window-height="1054"
     inkscape:window-x="1280"
     inkscape:window-y="0"
     inkscape:window-maximized="1" />
  <metadata
     id="metadata7">
    <rdf:RDF>
      <cc:Work
         rdf:about="">
        <dc:format>image/svg+xml</dc:format>
        <dc:type
           rdf:resource="http://purl.org/dc/dcmitype/StillImage" />
        <dc:title />
      </cc:Work>
    </rdf:RDF>
  </metadata>
  <g
     inkscape:label="Layer 1"
     inkscape:groupmode="layer"
     id="layer1"
     transform="translate(0,364.96063)">
    <g
       transform="matrix(1.25,0,0,-1.25,-158.70027,1336.2968)"
       inkscape:label="sword"
       id="g4201"
       style="stroke:#ff0000;stroke-width:1;stroke-miterlimit:4;stroke-dasharray:none">
      <path
         inkscape:connector-curvature="0"
         id="path4203"
         style="fill:none;stroke:#ff0000;stroke-width:1;stroke-linecap:butt;stroke-linejoin:miter;stroke-miterlimit:4;stroke-dasharray:none;stroke-opacity:1"
         d="m 653.3748,1268.4523 c -4.7237,3.5816 -8.9711,22.9621 -13.722,31.0111 -30.5507,51.7782 -17.9436,-13.8254 -17.9405,-21.2675 -35.1479,0 -18.6168,-3.7426 -4.9767,-38.3437 -5.4947,-15.7989 -23.7532,-29.3511 -25.469,-42.0319 l 14.398,-6.9012 c -1.0846,-14.7489 -14.6988,-26.7534 -19.3734,-39.1663 l 3.7715,-13.7653 c -5.2285,-10.6237 -12.1728,-13.4198 -19.1863,-18.733 -7.2119,-5.4601 -13.6083,-0.01 -19.7978,-18.8598 2.9056,-8.8489 14.1132,-19.2569 19.4857,-19.4839 l 1.2988,-32.5041 c -12.9654,-7.2666 -25.9021,5.086 -37.8088,5.762 -25.6904,1.4528 -54.068,9.7005 -77.9646,9.6917 -42.8216,-0.017 -91.9256,-4.5856 -133.651,-24.9727 -6.264,-3.058 -12.3296,-1.5304 -19.1962,-3.4206 -12.4104,-3.4117 -10.4038,26.6386 -32.4105,4.341 -8.1973,18.995 -17.0204,38.9075 -32.6911,38.7493 -8.2044,-0.081 -30.3781,0.4145 -36.6911,-7.1543 -13.8067,-16.5325 -8.0175,-16.7655 -13.9896,-25.6057 -11.1084,-16.4375 -35.9302,-15.1803 -17.4861,-37.6965 -3.4735,-1.8813 -29.0865,-26.5059 -30.5146,-29.4863 1.6483,-5.0227 26.5362,-29.0633 30.4455,-29.2274 -12.6374,-35.0555 0.9609,-14.0499 17.9149,-39.6757 3.9598,-5.9865 6.1963,-30.3551 23.4063,-31.1261 31.3937,-1.4009 34.4474,-8.1065 49.8968,17.4503 3.8634,6.3919 7.6765,15.3358 9.8598,21.6876 3.465,-7.4307 6.4281,-9.9793 13.3582,-9.6888 9.811,0.4113 7.4778,5.506 12.2347,12.085 15.0349,0.4144 18.9331,0.1842 32.9411,-7.1085 28.9355,-15.0596 112.5402,-26.1808 138.6981,-21.9722 19.8997,3.1989 53.4364,4.5479 70.3732,10.2612 12.5855,4.2431 18.7231,8.1238 32.3745,7.7471 l 0.0289,-32.7717 c -4.8317,-2.0797 -17.2919,-12.088 -19.9129,-19.4437 5.8026,-22.8152 31.923,-22.7202 36.9817,-33.6115 3.7701,-8.1153 -0.6027,-8.1958 -1.2657,-15.9429 -1.2787,-14.9213 16.052,-17.5019 19.0857,-42.9982 l -14.8037,-5.7217 c 1.3938,-10.3331 9.0675,-16.7683 13.125,-21.9897 4.8328,-6.2224 9.6211,-11.7397 12.744,-21.21 -23.7832,-36.6897 -19.1259,-35.8699 4.7551,-39.2672 -0.2358,-23.0338 -14.572,-42.8142 7.9685,-30.0501 4.4331,2.5084 6.1101,3.8863 9.8541,9.5477 6.0253,9.1105 8.7409,29.639 15.0698,30.7522 0.2041,-0.0431 45.9037,-128.4599 111.4914,-57.3616 52.0342,56.3978 153.1177,267.7359 206.6463,123.7016 28.4247,-76.4776 12.1728,16.7656 5.9403,33.8043 -69.6915,190.5075 -182.7995,-80.551 -239.2322,-42.3309 0.7293,8.2936 9.8642,11.1099 11.9715,35.9445 7.816,92.0752 -43.598,103.0036 -42.9205,62.7468 27.6438,-14.8033 18.2166,-70.5886 -13.1797,-58.3395 -19.044,7.4304 -22.7851,54.0935 -12.3037,74.0063 42.3065,80.3438 989.5878,-79.2997 1142.9124,-32.9357 35.0543,10.6007 70.4667,18.6701 105.4964,30.1394 69.2728,22.6802 141.2569,34.8888 210.2664,59.2835 19.9732,7.0622 208.1693,55.0661 209.7558,61.3142 1.1608,7.8678 -181.9984,57.1518 -198.7336,61.1705 -66.8061,16.0407 -134.3112,42.1095 -201.0682,58.1933 -32.6276,7.8591 -68.1265,16.8316 -100.3816,28.1832 -286.0852,100.6849 -805.1687,-78.3879 -1153.9908,-35.8152 -23.4351,2.8621 -19.9556,37.8374 -17.0963,73.241 7.7026,7.1 23.3963,14.7549 32.8062,12.0334 9.9232,-2.871 21.4489,-48.3863 -4.0606,-58.4204 -6.389,-37.3252 50.7138,-34.2876 42.4922,59.7697 -2.1677,24.7799 -6.562,24.6937 -14.0012,37.7654 69.5174,0 178.8729,-215.0374 240.1109,-46.6832 46.0378,126.5266 -12.4676,23.5919 -21.1782,13.1292 -93.1209,-111.8322 -170.5952,252.2537 -271.0012,149.8626 -22.3563,-22.8007 -21.5019,-48.5733 -31.9603,-60.2904 z" />
      <g
         id="g4207"
         style="stroke:#0000ff;stroke-width:1;stroke-miterlimit:4;stroke-dasharray:none">
        <path
           inkscape:connector-curvature="0"
           id="path4209"
           style="fill:none;stroke:#0000ff;stroke-width:1;stroke-linecap:butt;stroke-linejoin:miter;stroke-miterlimit:4;stroke-dasharray:none;stroke-opacity:1"
           d="m 638.5584,1141.4463 c -0.94,8.3826 -3.8308,14.6923 -9.7481,14.7578 -6.1736,-0.5607 -9.337,-16.4946 -5.4672,-25.1312 1.7453,-3.8984 5.0783,-5.7988 7.1983,-8.1124 6.6062,-7.1949 11.848,-16.1671 12.9376,-32.4275 0.366,-5.4445 -0.0289,-9.8584 -0.4564,-15.8899 -0.6859,-9.7197 -3.6615,-15.9256 -5.648,-23.1891 -1.2759,-4.6593 -0.6202,-9.2648 -0.9127,-14.2688 0.5907,-1.9766 1.6611,-3.1002 2.8267,-4.0524 2.9945,10.9491 3.4015,24.5132 8.3812,31.7789 3.7476,5.4701 7.7573,9.713 14.5777,8.9193 0.1667,1.7041 0.2424,3.6586 0.2733,5.5119 -0.6781,1.7195 -2.6221,1.6645 -4.1001,1.2972 -1.9162,-0.4697 -4.2264,-1.0443 -6.0128,-2.4296 -2.4968,-1.9361 -4.2582,-5.1486 -6.105,-6.6495 -1.01,2.116 0.6018,6.717 1.1846,10.0528 0.5593,3.1932 0.61,7.4423 0.7299,10.2169 0.0899,2.1002 -0.1808,4.701 -0.4558,6.6489 -1.7614,12.4418 -6.1835,21.49 -11.6629,25.9416 -0.282,0.2279 -0.7528,0.4663 -1.1338,0.8495 -0.4998,0.5017 -2.2558,0.7719 -2.7547,0.8419 -0.7591,0.1123 -1.5619,0.2375 -2.0339,1.0672 -0.0108,0.9386 0.5754,0.6784 0.9122,0.324 6.6095,1.793 12.9285,-4.3236 17.3101,-8.7582 1.3929,-0.024 2.5197,-3.1918 3.2794,-4.2122 0.6122,6.8351 -0.0763,14.3606 -1.821,20.9154 -1.798,6.7541 -3.9249,13.3081 -6.7419,18.3229 -3.4688,6.1718 -8.25,13.6839 -14.3048,14.5921 -3.2596,0.4927 -5.9389,-0.4458 -8.0167,-2.4312 -3.6447,-3.4798 -8.7043,-10.461 -7.5639,-20.7539 0.246,-2.2138 1.5466,-4.161 1.2764,-7.1339 -3.0603,1.3753 -5.6183,8.8798 -5.5488,15.8241 0.0638,6.3604 1.8913,11.0426 3.6366,14.8223 4.4291,8.5661 14.6049,9.9205 21.4098,6.8108 -2.7896,24.5753 7.728,42.9673 20.6815,47.0257 3.3982,1.0644 8.8427,-0.7016 10.9338,-2.7595 3.5941,3.251 7.928,9.1156 12.9376,9.0816 3.502,-0.025 7.7732,-2.0925 9.8394,-5.5148 -0.2588,-0.6231 -1.1914,-0.043 -1.3675,-0.8073 -6.2563,2.6614 -14.3447,-1.0157 -18.7679,-6.812 1.3201,-3.2683 3.1079,-7.5404 3.2797,-12.6476 0.2101,-6.2498 -1.3056,-12.3338 -2.6427,-16.7048 -0.0709,0.8413 -0.5287,0.2123 -0.7277,0.9731 1.431,9.2118 -0.6553,17.5669 -4.1006,21.2448 -1.2761,-1.8998 -2.0962,-4.7582 -3.0974,-7.2978 -2.399,-6.0902 -4.6545,-13.0855 -5.9233,-21.4066 3.4132,0.8285 7.4189,-5.0114 7.0163,-11.6728 -0.1834,-3.0345 -1.2427,-4.9564 -2.552,-6.8083 -0.1168,0.5482 -0.6179,0.4093 -0.7282,0.9723 1.4355,3.1192 1.3564,7.3681 -0.6378,9.0788 -1.478,1.2702 -4.242,0.2534 -4.8283,-2.1093 -0.4441,-1.7881 -0.3767,-4.6312 -0.2735,-7.2969 0.3849,-9.9247 1.8349,-20.8015 4.2823,-27.8923 2.759,-11.6615 2.8091,-31.432 1.4573,-44.7503 1.7042,-0.01 3.293,-0.031 4.6474,-0.646 0.4686,11.5092 -0.2597,24.2691 -1.6404,35.1822 0.8067,0.035 0.6242,-0.8788 1.093,-0.8102 5.008,-8.5059 4.7157,-25.3604 5.4669,-38.9154 2.3536,-2.9993 4.8991,-5.2214 6.9248,-9.2409 1.781,-3.5405 3.9172,-8.2713 4.5544,-13.1369 0.4473,-3.4002 0.6562,-8.9912 0.6381,-12.483 -0.01,-1.7696 -0.4346,-5.0692 -1.0919,-1.3008 -1.44,8.2457 -3.3846,16.1567 -6.5614,21.8917 -1.5545,2.8106 -3.3627,4.409 -5.0108,7.1376 -0.2747,-3.0625 -0.0136,-6.1903 -0.4547,-8.4353 6.6507,-5.5828 11.4622,-19.3504 10.2949,-35.674 -0.6902,-9.6398 -2.8939,-18.3541 -5.8317,-24.8077 7.0634,6.8905 13.5042,16.2893 21.5938,21.8903 0.6159,-0.5409 1.1043,-2.2298 1.6381,-3.4059 -1.1098,-3.3746 -3.4673,-4.7843 -5.4643,-6.9706 -4.5576,-4.9896 -9.2835,-11.7837 -14.0313,-18.485 -3.4696,-4.8938 -6.5157,-9.705 -9.4748,-15.7286 -0.9496,-1.9304 -2.404,-4.2716 -2.8258,-5.84 -0.324,-1.2064 1.3209,-4.7231 2.1869,-6.3215 3.1153,-5.7385 6.1467,-10.8088 9.294,-16.2187 3.9977,-6.8704 8.8137,-12.5915 12.7544,-18.8048 1.1829,-1.8657 7.3219,-8.93 7.6539,-10.7022 -1.0522,-5.0207 -5.169,-0.8458 -7.0155,0.6469 -6.4862,5.239 -12.3372,14.7245 -17.9493,21.7287 4.3257,-9.1075 8.841,-25.0949 8.2911,-41.671 -1.434,-12.3151 -5.0871,-20.6765 -10.4771,-25.9472 0.4844,-2.7054 0.6709,-6.2487 1.9136,-7.1354 1.6019,0.1117 2.3032,2.4327 3.1884,4.0541 2.0654,3.784 4.2747,7.3763 5.9216,12.3245 1.605,4.82 2.7298,9.8541 4.0995,15.4029 0.9037,-5.2895 -0.5148,-12.6887 -1.548,-17.9978 -1.9775,-10.1525 -7.2885,-17.3605 -11.7536,-22.3752 -0.0918,-13.3495 -2.6155,-26.9229 -6.0126,-37.1347 -0.9617,10.7444 1.6767,23.682 0.912,34.8638 -1.9316,0.2722 -3.4385,-0.5286 -5.1954,-0.9731 0.4385,-6.2697 0.248,-25.0191 -0.1233,-31.3668 -0.4527,-7.7122 -3.1564,-21.1385 -3.8846,-24.2523 -1.5729,-6.7278 -3.9024,-17.4297 -1.1846,-23.997 1.3394,-3.2369 5.22,-3.8716 6.1974,0.6474 0.3257,3.0643 -0.9079,4.5011 -0.7305,6.6478 0.8011,-0.0442 1.9511,-1.8513 1.9125,-1.783 3.8518,-6.853 -0.8934,-18.3603 -6.0131,-14.108 0.3402,-6.1736 2.9588,-18.7747 8.2006,-30.6448 3.1819,1.6617 6.7111,9.3441 5.5508,15.8105 -0.1318,0.7368 -1.0683,5.3816 -0.9949,5.5939 0.5907,-0.0218 1.3751,-0.9229 1.724,-1.9037 1.7377,-5.3243 4.0343,-11.357 1.4545,-20.1923 -0.5012,-1.7181 -1.2348,-4.3059 -1.9936,-6.1192 1.0026,-1.8615 2.2495,-2.3615 4.0084,-4.053 0.9771,-0.6817 5.2266,-3.7528 9.2741,-4.9955 1.1081,-0.339 3.648,-0.8251 3.7545,-1.4952 -0.3483,-2.2147 -2.7575,-2.8233 -4.3735,-2.9166 -6.2652,-0.3512 -12.4427,5.3617 -16.0348,10.3788 -7.0832,-7.5328 -16.7122,-4.1389 -22.1403,3.7284 -2.1778,3.1592 -4.5774,6.6549 -6.0142,10.2158 -1.7209,4.2712 -3.5952,8.8608 -4.0074,15.4063 -0.3038,4.8251 0.2688,8.4271 0.8192,12.3256 -4.8727,-3.3704 -12.3573,-3.5649 -16.6736,0.3217 -5.5471,4.8033 -6.7383,19.2107 -7.0152,31.7829 0.6763,1.5531 0.9286,3.8574 2.461,3.8914 0.1012,-7.844 1.6895,-17.589 4.8291,-20.916 1.7884,-1.9009 4.0819,-3.7982 6.8315,-4.5434 0.9357,-0.0663 1.2464,0.1837 1.7626,0.2291 12.85,1.1678 19.0352,17.395 24.0222,33.4975 1.8785,6.0701 3.2964,13 3.6437,20.1079 -2.871,-3.3214 -6.8565,-9.1233 -10.9318,-11.8361 -2.8469,-1.8944 -4.8986,-3.0835 -8.6559,-3.2445 -1.2271,-0.0513 -3.8543,0.4467 -3.4623,2.918 0.2464,1.5545 1.5359,1.3665 2.2783,1.1355 3.8684,2.0285 6.6821,5.5809 9.5657,10.2152 1.0191,1.6382 2.1235,4.4618 2.8253,7.297 2.2417,9.0683 4.4252,19.3793 3.0972,31.4566 0.0275,0.938 0.3432,0.959 0.6378,0.4876 3.9322,-4.7308 7.0594,-7.8727 13.2106,-8.2695 -0.6948,2.5446 -0.8343,6.084 -2.0036,7.7819 -5.0516,-0.318 -10.3444,4.64 -13.2114,10.0548 -2.8831,5.4485 -5.9616,12.2459 -6.7428,20.4327 -0.2928,3.0897 -0.4331,6.7396 -0.8198,9.7293 -1.6316,-1.1528 -2.9469,-2.8621 -4.5547,-4.0549 2.9781,-10.5974 5.9281,-23.5996 8.8376,-35.3475 3.3741,-24.1909 -5.9377,-39.818 -15.2164,-48.6454 -6.1639,-2.22 -8.6468,-24.1455 -3.3698,-31.4603 0.517,-0.6894 2.5492,-1.2512 3.7278,-1.3943 3.1987,-0.3932 6.541,2.2748 7.7519,7.2337 0.612,2.5075 0.0908,6.0565 1.4579,7.7831 1.0222,-4.2381 -0.0385,-11.7706 -1.7317,-14.9185 -2.3111,-2.8023 -5.5976,-4.6301 -8.655,-6.0009 -4.3532,-1.9505 -7.3159,1.5267 -9.5664,5.3518 -4.4348,7.5433 -3.456,23.6611 -0.1822,32.2676 -10.6217,3.526 -15.5007,12.5839 -20.956,29.9974 -1.8082,5.9079 -1.9256,11.1036 -1.7311,17.03 0.4938,-1.5353 0.6097,-1.0931 0.7188,-2.043 7.0745,-18.5065 15.7216,-25.6966 16.6828,-27.3075 3.6975,-2.4143 9.0034,-5.3221 13.3038,-2.9189 0.7064,0.3926 1.4494,2.0758 2.276,3.2415 3.7607,5.2976 7.3661,16.7133 5.7407,27.5649 -1.9196,-5.3198 -4.417,-9.7067 -7.7448,-13.1338 -1.8116,-1.8669 -4.775,-3.9302 -7.1972,-3.7292 -5.6168,0.4697 -10.8323,7.5733 -11.4809,16.3763 -0.3676,5.0187 -0.0635,10.777 1.4579,14.5925 1.258,3.1597 4.7622,5.1114 7.653,4.5436 -0.9842,-1.9757 -2.8075,-2.4624 -3.7341,-4.5436 -1.8187,-7.9926 1.1109,-15.6875 5.0111,-15.4004 -0.0204,-0.2344 -0.2719,-0.0587 -0.2724,-0.3234 0.5176,0.3197 1.3351,-0.1205 1.0927,0.1604 0.8144,0.2906 2.4242,0.5205 3.1884,1.7822 4.4654,7.3644 7.4376,21.3998 5.3748,35.0248 -7.6825,-1.3149 -15.6773,6.3672 -16.4903,17.6755 -0.4031,5.6018 0.4408,12.6113 2.0055,17.0277 0.0907,-0.1063 1.9299,3.223 2.952,4.6508 2.4818,3.4693 5.6645,5.6925 9.074,7.5104 1.1268,-0.5346 2.3964,0.087 2.1864,-2.9211 -0.7631,-1.9193 -2.1203,-1.9318 -3.2811,-2.757 -3.4744,-2.4695 -6.1379,-6.8822 -6.0129,-14.5922 0.1463,-2.0078 0.0289,-3.5923 2.0963,-8.5941 3.0923,-3.3488 6.9482,-2.031 9.0192,2.92 0.1968,0.4677 0.1871,1.1223 0.3651,1.62 3.5535,9.9502 8.358,20.5906 12.7557,30.1626 2.0565,4.4754 4.4328,8.4617 7.2875,11.5115 -7.0381,8.2267 -11.7538,20.5909 -16.9466,32.1049 -2.1991,6.1974 -4.3707,13.8342 -6.2861,21.0819 -4.5269,-1.8695 -10.8587,-8.0918 -9.2021,-17.6757 0.8512,-4.9182 3.5787,-9.529 6.0123,-12.0025 1.3186,-1.3385 3.3959,-1.6832 4.8464,-2.8114 0.3809,-0.2948 0.9816,-0.6863 1.2585,-1.5644 -1.2285,-1.4361 -2.8091,-0.0275 -4.0087,0.1598 -4.0028,0.6361 -7.4047,2.1544 -9.9298,6.6495 -2.4032,4.2787 -4.7061,10.7419 -4.9212,17.0283 -0.5667,16.6385 6.8678,24.1396 16.1266,22.5369 0.5833,11.8638 1.618,28.2773 -3.5524,35.5116 -2.052,2.8712 -7.5379,6.2971 -10.205,1.7852 -2.3304,-3.9438 -1.1455,-13.5873 1.1849,-16.8647 0.5933,-0.8328 1.4816,-0.9473 1.7311,-2.4338 0.0417,-0.6645 0.0669,-0.3113 0,-0.97 -6.0106,-0.4289 -10.3051,12.9798 -8.7347,22.0702 0.6114,5.8402 4.5661,9.773 5.5446,10.8448 7.9188,8.6842 17.7823,-0.7291 20.3187,-13.1321 0.6656,6.5044 0.9315,14.2932 -0.5462,20.2661 -1.4715,5.9445 -4.1426,12.8826 -8.2905,13.4603 -3.9546,0.5471 -7.6099,-1.0024 -10.5687,-2.1087 -3.0611,-1.1449 -5.5341,-4.2163 -7.6496,-7.1011 -1.6418,-2.2379 -4.1465,-6.2515 -5.381,-9.7994 -2.6268,-8.9005 -2.9423,-9.913 -4.3727,-15.5315 -1.0857,-2.8854 -1.3706,-4.8612 -1.2753,1.1364 0.6165,8.2545 2.3054,15.0964 4.1,21.4041 3.6686,12.888 8.7242,22.248 18.4958,24.4842 -4.1604,9.3561 -3.5317,24.45 1.2192,33.338 1.8519,3.4642 4.7044,5.7433 7.6269,6.3647 2.0511,0.439 3.831,-0.11 5.7313,-1.7578 2.7199,-3.0864 6.2881,-8.9521 6.3774,-16.7032 0.0125,-1.0672 0.1537,-2.806 -0.5473,-3.0821 z" />
        <path
           inkscape:connector-curvature="0"
           id="path4211"
           style="fill:none;stroke:#0000ff;stroke-width:1;stroke-linecap:butt;stroke-linejoin:miter;stroke-miterlimit:4;stroke-dasharray:none;stroke-opacity:1"
           d="m 658.8493,1065.1524 c 6.1515,0 11.1379,-10.6858 11.1379,-23.8671 0,-13.1817 -4.9864,-23.8672 -11.1379,-23.8672 -6.1514,0 -11.1379,10.6855 -11.1379,23.8672 0,13.1813 4.9865,23.8671 11.1379,23.8671 z" />
        <path
           inkscape:connector-curvature="0"
           id="path4213"
           style="fill:none;stroke:#0000ff;stroke-width:1;stroke-linecap:butt;stroke-linejoin:miter;stroke-miterlimit:4;stroke-dasharray:none;stroke-opacity:1"
           d="m 657.7415,942.0474 c 6.1512,0 11.1379,-10.6857 11.1379,-23.8674 0,-13.1814 -4.9867,-23.8671 -11.1379,-23.8671 -6.1514,0 -11.1381,10.6857 -11.1381,23.8671 0,13.1817 4.9867,23.8674 11.1381,23.8674 z" />
      </g>
      <path
         style="fill:#ffffff;fill-rule:evenodd;stroke:#ffffff;stroke-width:0.71148026px;stroke-linecap:butt;stroke-linejoin:miter;stroke-opacity:1"
         d="m 809.01428,920.46699 c 182.54048,0 545.14652,182.13791 601.38462,187.51611 349.352,33.4091 251.2996,-140.3078 379.678,-142.58807 l 0,0"
         id="path4206"
         inkscape:connector-curvature="0"
         sodipodi:nodetypes="cscc" />
      <text
         xml:space="preserve"
         style="font-style:normal;font-weight:normal;font-size:150px;line-height:125%;font-family:'Tengwar Cursive';letter-spacing:0px;word-spacing:0px;fill:#000000;fill-opacity:1;stroke:none;stroke-width:1px;stroke-linecap:butt;stroke-linejoin:miter;stroke-opacity:1;-inkscape-font-specification:'Tengwar Cursive, Normal';font-stretch:normal;font-variant:normal;text-anchor:start;text-align:start;writing-mode:lr;"
         id="text4208"
         sodipodi:linespacing="125%"><textPath
           xlink:href="#path4206"
           id="textPath4214">password123admin</textPath></text>
      <path
         style="fill:none;fill-rule:evenodd;stroke:#ffffff;stroke-width:0.80000001px;stroke-linecap:butt;stroke-linejoin:miter;stroke-opacity:1"
         d="m 1490.0738,1147.4825 c 248.4043,-20.4907 106.4927,-257.62954 260.451,-286.51443 43.2195,-8.10863 190.8987,-9.48353 278.1497,26.75109"
         id="path4218"
         inkscape:connector-curvature="0"
         sodipodi:nodetypes="csc" />
      <text
         sodipodi:linespacing="125%"
         id="text4220"
         style="font-style:normal;font-variant:normal;font-weight:normal;font-stretch:normal;font-size:150px;line-height:125%;font-family:'Tengwar Cursive';-inkscape-font-specification:'Tengwar Cursive, Normal';text-align:start;letter-spacing:0px;word-spacing:0px;writing-mode:lr;text-anchor:start;fill:#000000;fill-opacity:1;stroke:none;stroke-width:1px;stroke-linecap:butt;stroke-linejoin:miter;stroke-opacity:1;"
         xml:space="preserve"><textPath
           xlink:href="#path4218"
           id="textPath4224">letmeinbatman</textPath></text>
      <circle
         style="fill:#ffffff;fill-opacity:1;stroke:#ff0000;stroke-width:0.39340806;stroke-miterlimit:4;stroke-dasharray:none;stroke-opacity:1"
         id="path4228"
         transform="scale(1,-1)"
         cx="559.71869"
         cy="-977.32196"
         r="22.480461" />
    </g>
  </g>
</svg>
